<?xml version="1.0" encoding="utf-8"?>
<!-- Generator: Adobe Illustrator 17.0.2, SVG Export Plug-In . SVG Version: 6.00 Build 0)  -->
<!DOCTYPE svg PUBLIC "-//W3C//DTD SVG 1.1//EN" "http://www.w3.org/Graphics/SVG/1.1/DTD/svg11.dtd">
<svg version="1.1" id="Calque_1" xmlns="http://www.w3.org/2000/svg" xmlns:xlink="http://www.w3.org/1999/xlink" x="0px" y="0px"
	 width="595.28px" height="595.28px" viewBox="0 0 595.28 595.28" enable-background="new 0 0 595.28 595.28" xml:space="preserve">
<g id="_x33_D">
</g>
<path d="M595.276,0h-1.2l-62.259,66.618l-71.642-34.333L467.664,0h-15.965l-6.69,28.843l-75.101,0.254L373.872,0h-15.548
	l-3.964,29.15l-48.294,0.163V0h-17.14v29.312l-48.293-0.163L236.67,0h-15.55l3.964,29.096l-75.101-0.254L143.293,0h-15.964
	l7.488,32.283L63.176,66.617L0.936,0.019v22.787L50.8,75.614L0.936,66.231v529.045h95.813l19.496-107.849l60.424,10.956
	l-2.598,96.893h15.554l2.586-96.469l96.715-12.128v108.597h17.14V486.679l96.715,12.128l2.586,96.469h15.553l-2.597-96.893
	l60.424-10.956l19.495,107.849h97.033V66.002l-51.083,9.613l51.083-54.099V0z M246.463,219.934l-97.26-62.577l79.429-35.758
	L246.463,219.934z M151.578,44.438l73.684,0.249l1.255,56.225l-74.939-14.598V44.438z M150.118,101.911l58.826,11.459
	l-65.885,29.661L150.118,101.911z M240.559,234.66l-70.426,29.076l-57.628-39.725l23.957-56.326L240.559,234.66z M248.214,248.36
	l-12.106,115.315l-64.873-23.653l5.307-62.071L248.214,248.36z M110.046,308.804l50.26-23.495l-4.075,47.671L110.046,308.804z
	 M145.894,345.157l-40.464,20.287l-3.916-43.517L145.894,345.157z M101.986,295.371l6.973-54.886l44.628,30.764L101.986,295.371z
	 M68.196,81.491l67.833-32.508v38.952l-79.419,40.024L68.196,81.491z M50.759,148.356l82.768-41.712l-7.572,44.106l-99.268,45.166
	L50.759,148.356z M117.925,171.525l-21.264,49.994L41.56,256.271l-21.173-40.366L117.925,171.525z M85.851,321.353l3.717,41.31
	L53.635,340.3L85.851,321.353z M46.363,326.502v-43.437l32.181,24.511L46.363,326.502z M86.481,294.042l-34.246-26.083
	l40.831-25.753L86.481,294.042z M18.912,246.587l11.903,22.693v67.382l-7.835,7.141L18.912,246.587z M92.799,395.206
	c-0.175-0.118-0.333-0.259-0.519-0.363l-63.228-35.504l10.425-9.503l53.762,33.458l13.682,19.84L92.799,395.206z M116.16,471.569
	l-15.098-53.854l27.54,15.463c0.033,0.019,0.069,0.031,0.103,0.049c0.182,0.098,0.368,0.183,0.556,0.266
	c0.111,0.049,0.22,0.103,0.333,0.147c0.183,0.071,0.37,0.127,0.558,0.184c0.121,0.037,0.241,0.08,0.364,0.111
	c0.192,0.048,0.387,0.079,0.582,0.112c0.119,0.02,0.237,0.049,0.358,0.064c0.281,0.035,0.564,0.05,0.848,0.054
	c0.032,0,0.064,0.006,0.096,0.006c0.001,0,0.002,0,0.004,0c0.001,0,0.002,0,0.003,0c0.006,0,0.013-0.001,0.019-0.001
	c0.331-0.001,0.662-0.03,0.992-0.073c0.109-0.014,0.217-0.035,0.326-0.054c0.243-0.043,0.484-0.098,0.723-0.164
	c0.104-0.029,0.209-0.054,0.312-0.088c0.313-0.101,0.622-0.216,0.923-0.358l0.071-0.033c0.001,0,0.002-0.001,0.003-0.001
	l38.05-17.911l2.639,67.016L116.16,471.569z M176.009,397.237l-40.956,19.28l-24.851-36.035l53.263-26.704l59.093,21.546
	l-42.65,20.078C178.417,395.639,177.085,396.286,176.009,397.237z M288.925,470.97l-96.871,12.145l-2.946-74.819l56.994-26.83
	c0.04-0.019,0.076-0.045,0.116-0.064c0.172-0.084,0.338-0.181,0.504-0.278c0.112-0.066,0.228-0.128,0.336-0.199
	c0.17-0.112,0.332-0.238,0.494-0.364c0.092-0.072,0.189-0.138,0.278-0.213c0.166-0.142,0.321-0.299,0.476-0.456
	c0.073-0.073,0.152-0.14,0.221-0.216c0.15-0.164,0.286-0.344,0.424-0.523c0.061-0.08,0.131-0.155,0.189-0.237
	c0.004-0.006,0.01-0.011,0.014-0.017l39.77-56.664V470.97z M248.45,143.735l38.018,54.003l-24.077,22.872L248.45,143.735z
	 M288.926,295.14l-35.263,50.242l11.078-105.529l24.185-22.974V295.14z M288.926,174.196l-43.022-61.111l43.022-23.365V174.196z
	 M288.927,71.987L288.927,71.987l-46.934,25.49l-1.177-52.737l48.111,0.163V71.987z M458.963,48.983l67.833,32.508l11.586,46.467
	l-79.42-40.025V48.983z M482.488,224.01l-57.629,39.726l-70.427-29.077l104.098-66.975L482.488,224.01z M493.479,321.926
	l-3.916,43.518l-40.465-20.287L493.479,321.926z M438.762,332.979l-4.075-47.67l50.26,23.494L438.762,332.979z M441.405,271.25
	l44.629-30.765l6.973,54.887L441.405,271.25z M423.759,340.022l-64.873,23.653L346.779,248.36l71.674,29.592L423.759,340.022z
	 M451.934,143.032l-65.885-29.66l58.826-11.46L451.934,143.032z M369.733,44.688l73.682-0.249v41.875l-74.938,14.599L369.733,44.688
	z M366.359,121.599l79.43,35.758l-97.261,62.577L366.359,121.599z M306.067,44.904l48.111-0.163L353,97.477l-46.933-25.49V44.904z
	 M306.067,89.719l43.021,23.366l-43.021,61.111V89.719z M346.542,143.736l-13.94,76.875l-24.078-22.872L346.542,143.736z
	 M306.067,216.88l24.185,22.973l11.079,105.532l-35.264-50.244V216.88z M402.939,483.113l-96.872-12.145V322.23l39.771,56.666
	c0.005,0.007,0.01,0.012,0.015,0.019c0.054,0.076,0.118,0.145,0.175,0.219c0.141,0.185,0.282,0.37,0.437,0.54
	c0.069,0.076,0.148,0.142,0.22,0.215c0.156,0.157,0.311,0.315,0.478,0.457c0.089,0.075,0.185,0.141,0.277,0.212
	c0.162,0.126,0.324,0.252,0.494,0.364c0.109,0.072,0.225,0.134,0.339,0.2c0.165,0.097,0.329,0.193,0.5,0.277
	c0.04,0.02,0.076,0.046,0.117,0.065l56.994,26.829L402.939,483.113z M415.085,395.402l-42.65-20.078l59.092-21.546l53.263,26.704
	l-24.851,36.035l-40.957-19.28C417.907,396.286,416.575,395.639,415.085,395.402z M478.834,471.571l-60.31,10.932l2.639-67.016
	l38.052,17.912l0.073,0.034c0.301,0.142,0.61,0.257,0.923,0.358c0.104,0.034,0.209,0.059,0.314,0.088
	c0.239,0.066,0.479,0.121,0.721,0.164c0.109,0.019,0.218,0.04,0.327,0.054c0.329,0.044,0.658,0.072,0.989,0.073
	c0.007,0,0.014,0.002,0.021,0.002c0.001,0,0.002,0,0.004,0c0.001,0,0.003,0,0.004,0c0.036,0,0.071-0.006,0.106-0.007
	c0.28-0.004,0.559-0.019,0.837-0.053c0.122-0.015,0.242-0.044,0.364-0.065c0.193-0.033,0.386-0.064,0.576-0.111
	c0.124-0.031,0.245-0.075,0.368-0.112c0.186-0.056,0.371-0.112,0.553-0.182c0.116-0.045,0.228-0.1,0.341-0.15
	c0.184-0.082,0.366-0.165,0.544-0.26c0.035-0.019,0.073-0.032,0.109-0.052l27.539-15.463L478.834,471.571z M502.713,394.843
	c-0.186,0.105-0.344,0.245-0.52,0.364l-14.121,7.929l13.682-19.84l53.762-33.458l10.425,9.502L502.713,394.843z M516.448,307.576
	l32.181-24.511v43.437L516.448,307.576z M541.357,340.299l-35.934,22.364l3.718-41.311L541.357,340.299z M508.513,294.042
	l-6.585-51.837l40.831,25.753L508.513,294.042z M572.012,343.802l-7.834-7.14v-67.383l11.902-22.69L572.012,343.802z
	 M553.433,256.272l-55.099-34.753l-21.266-49.995l93.536,44.379L553.433,256.272z M544.234,148.356l20.068,47.56l-95.266-45.166
	l-7.572-44.106L544.234,148.356z"/>
</svg>
