<?xml version="1.0" encoding="utf-8"?>
<!-- Generator: Adobe Illustrator 16.0.0, SVG Export Plug-In . SVG Version: 6.00 Build 0)  -->
<!DOCTYPE svg PUBLIC "-//W3C//DTD SVG 1.1//EN" "http://www.w3.org/Graphics/SVG/1.1/DTD/svg11.dtd">
<svg version="1.1" id="Calque_1" xmlns="http://www.w3.org/2000/svg" xmlns:xlink="http://www.w3.org/1999/xlink" x="0px" y="0px"
	 width="595.28px" height="595.28px" viewBox="0 0 595.28 595.28" enable-background="new 0 0 595.28 595.28" xml:space="preserve">
<path d="M305.32,130.206c-0.037,16.273-1,75.088-1,75.088c-0.001,3.914-2.173,8.086-6.087,8.086c-3.913,0-6.887-5.59-7.086-8.086
	c-1.478-18.491-0.468-57.432,0-73.899c0.187-6.565-5.624-6.616-7.408-6.564c-54.692,1.61-89.835,13.514-108.872,21.489
	c-3.891,1.63-9.69,3.718-6.95,9.131c20.091,39.681,43.826,66.253,63.141,90.932c23.283,29.749,54.616,46.049,67.177,46.049
	c13.106,0,37.071-7.824,66.177-46.049c20.376-26.76,54.1-63.918,64.511-91.657c1.51-4.023-5.705-8.041-11.803-10.451
	c-19.027-7.519-52.287-17.499-100.514-19.247C311.001,124.823,305.334,124.262,305.32,130.206z"/>
<path d="M486.818,147.646c0,0-43.48-56.991-137.996-100.754c-30.414,8.385-45.675,20.873-50.588,20.873
	c-4.438,0-20.172-12.488-50.588-20.873c-94.514,43.763-141.261,96.335-137.996,100.754c15.373,20.809,60.349,56.486,67.023,53.27
	c2.238-1.079-19.268-30.593-27.323-50.206c-2.018-4.912,1.274-8.081,2.557-8.982c7.009-4.924,50.313-31.081,145.763-31.081
	c97.705,0,143.969,29.892,145.891,31.164l5.112,3.385l-2.684,5.515c-8.864,18.215-30.648,49.421-27.763,50.922
	c2.78,0,6.097-1.89,8.084-2.873C454.857,184.631,472.938,165.36,486.818,147.646z"/>
<path d="M568.18,308.975c-27.519-27.545-54.324-41.544-89.873-50.308c-39.105-9.647-75.355-3.911-108.757,11.359
	c-27.978,12.792-59.977,47.389-68.279,55.437c-2.291,1.553-4.915,1.229-6.736-0.495c-7.417-7.021-40.217-42.871-68.803-55.941
	c-33.401-15.271-69.651-21.007-108.757-11.359c-35.549,8.764-62.354,22.763-89.873,50.308
	c-10.982,10.993-27.101,32.852-27.101,32.852V595.28H595.28V341.826C595.28,341.826,579.162,319.968,568.18,308.975z
	 M297.641,464.935c-24.354,0-44.096-19.742-44.096-44.096s19.742-44.096,44.096-44.096s44.096,19.742,44.096,44.096
	S321.994,464.935,297.641,464.935z"/>
</svg>
