<?xml version="1.0" encoding="utf-8"?>
<!-- Generator: Adobe Illustrator 16.0.0, SVG Export Plug-In . SVG Version: 6.00 Build 0)  -->
<!DOCTYPE svg PUBLIC "-//W3C//DTD SVG 1.1//EN" "http://www.w3.org/Graphics/SVG/1.1/DTD/svg11.dtd">
<svg version="1.1" xmlns="http://www.w3.org/2000/svg" xmlns:xlink="http://www.w3.org/1999/xlink" x="0px" y="0px"
	 width="595.28px" height="595.28px" viewBox="0 0 595.28 595.28" enable-background="new 0 0 595.28 595.28" xml:space="preserve">
<g id="Calque_1" display="none">
	
		<image display="inline" overflow="visible" width="591" height="566" xlink:href="anus-dessinercontours.png"  transform="matrix(1.0483 0 0 1.0483 -26.626 1.293)">
	</image>
</g>
<g id="Calque_2">
	<path d="M252.981,292.559l6.323-4.121c0,0,11.946,19.936,18.343,20.825c7.686,1.069,11.549-0.824,14.438-19.757
		c0.861-5.641,0.318-26.017,0.318-26.017s2.979-1.214,6.968-0.866c0,0,1.181,39.879,11.49,42.418s27.573-20.652,27.573-20.652
		s2.635,2.608,6.683,6.171c-4.551,7.515-23.406,18.691-17.771,30.257c4.134,8.485,27.786,7.183,27.786,7.183
		s-0.056,3.55,0.021,8.265c-14.754-0.87-24.321-0.809-26.938,4.786c-2.615,5.596-0.075,10.171,5.656,17.623
		c6.4,8.321,10.589,12.041,10.589,12.041s-1.608,4.043-5.912,7.017c-3.851-5.044-19.604-22.43-28.079-16.823
		s-7.992,32.923-7.992,32.923s-7.347-0.97-7.345-0.578c0.003,0.39,0.276-32.681-10.172-36.836
		c-7.548-2.613-26.285,25.848-26.285,25.848l-6.171-4.011c6.618-8.827,18.038-24.84,15.13-30.291
		c-2.581-11.176-31.065-8.736-31.065-8.736l-0.96-7.905c0,0,25.68,1.191,29.491-9.371
		C268.913,311.388,252.981,292.559,252.981,292.559z"/>
	<path d="M290.15,0h-2.23H0.002v74.707c0,0,45.087-29,123.99-26c77.703,2.954,115.953,19.487,163.927,19.989v0.012
		c0.384,0,0.765-0.004,1.147-0.006c0.361,0.002,0.721,0.006,1.083,0.006v-0.011c50.883-0.475,91.4-17.033,173.784-19.99
		c83.583-3,131.345,26,131.345,26V0H290.15z"/>
	<path d="M337.406,523.692c-30.735-34.7-37.864-70.594-39.517-85.06V431.5c0,0-0.01,1.582-0.271,4.435
		c-0.22-2.538-0.229-3.935-0.229-3.935v6.136c-1.653,14.468-8.781,50.359-39.517,85.057
		C215.809,570.679,130.747,614.703,0.002,553.5v41.28H297.39v0.5h297.889V554C464.534,615.203,379.469,571.179,337.406,523.692z"/>
</g>
</svg>
