<?xml version="1.0" encoding="utf-8"?>
<!-- Generator: Adobe Illustrator 16.0.0, SVG Export Plug-In . SVG Version: 6.00 Build 0)  -->
<!DOCTYPE svg PUBLIC "-//W3C//DTD SVG 1.1//EN" "http://www.w3.org/Graphics/SVG/1.1/DTD/svg11.dtd">
<svg version="1.1" id="Calque_1" xmlns="http://www.w3.org/2000/svg" xmlns:xlink="http://www.w3.org/1999/xlink" x="0px" y="0px"
	 width="595.3px" height="595.3px" viewBox="0 0 595.3 595.3" style="enable-background:new 0 0 595.3 595.3;" xml:space="preserve"
	>
<path d="M397.8,480.5c-2.4-0.2-6.3,0.3-7.7,4.1c-2.9,9.2-30.5,56.2-97.9,56.2c-55.5,0-93.1-51.5-96.4-56.3c-3.8-5.4-6.5-6.5-16.5-3
	s-77.9,19.3-126.8,58.9C33.3,556,14.4,576.8,0,594.9h595.3C543.5,525,400,480.7,397.8,480.5z M285.4,262.5
	c-17.2-9.2-40.5-23.7-52.7-45.2c-10.5-18.5-16.5-37.3-13.9-53.2c-5.9,3.3-8.9,4.4-17.2,9.4c-50.3,30.8-201.2,104-201.2,104v138.7
	c0,0,174.9-95.7,207.9-113C235.7,288.9,266.2,272.6,285.4,262.5z M292.8,254.2c1.9,0.9,3.2,2.6,3.7,4.4c0.1,0,0.1-0.1,0.2-0.1
	c3.7,32.4-12.8,53.5-18.4,77.1c-6.6,28,0.3,42.7,15.3,48.7c15.1,6.2,47.7-1.9,43-37.8c-2.4-18.5-18.1-50-18.6-92.5
	c0,0,0.6-19.3-15-51.4c-2.8-5.7,17.2-24.6,34.5-20.1c12,3.1,49.8,6,49.8-38.4c0-29.6-10.8-49.1-20.1-73.2
	C356,42.2,352,16.1,352,16.1c-5.6,18.9-27.3,64.3-37.5,82.2c-9.3,16.5-23.5,41.7-2.8,63.7c6.2,6.6-22.3,20.9-22.3,20.9
	s-16.3-28.4-26.4-32.3c-5-1.9-7.8-3.9-15.3-1.6c-19.7,6-14,44.8-2.3,63.9C257.1,231.7,278.9,247.6,292.8,254.2z M308.4,333.4
	c-0.5-3.4-0.7-8.7,4.5-8.7s7.5,11.2,8.9,19.9c1.4,8.7-0.7,15.5-2.1,19c-1.4,3.5-5.4,4.2-8.7,2.5c-3.3-1.7-3.2-7.5-2.6-11.7
	C309.2,349.5,309.3,339.8,308.4,333.4z M361.6,113.2c-0.4,9.5,4.6,17.4,6.6,27.1c2,9.7-3.5,16.9-11.7,21.8c1.8-4.3,2-15.9,0.2-25.4
	C353.8,121.1,361.6,113.2,361.6,113.2z M333.4,467.6c-4-0.9-4.9-2.5-6-6c-1.1-3.4-4.7-30.4-6.1-33.5c-1.4-3.1-1.6-3.5-5-4.1
	c-4.1-0.7-34.2-0.8-37.5-0.1c-3.3,0.8-3.7,2.5-4,4.2c-1,4.5-5.9,25.5-7.1,28.6c-1.2,2.9-1.5,5.1-7.4,6.7c-6,1.6-28.2,4.2-38.2,6.2
	c-9.9,2-7.1,5.4-7.1,5.4s20,48,74.4,51.3c63.5,3.8,76.4-36.3,78.5-41.2c1.5-3.4-0.6-5.8-3.1-6.5S337.3,468.5,333.4,467.6z"/>
</svg>
