<?xml version="1.0" encoding="utf-8"?>
<!-- Generator: Adobe Illustrator 15.0.0, SVG Export Plug-In . SVG Version: 6.00 Build 0)  -->
<!DOCTYPE svg PUBLIC "-//W3C//DTD SVG 1.1//EN" "http://www.w3.org/Graphics/SVG/1.1/DTD/svg11.dtd">
<svg version="1.1" id="Calque_1" xmlns="http://www.w3.org/2000/svg" xmlns:xlink="http://www.w3.org/1999/xlink" x="0px" y="0px"
	 width="595.279px" height="595.281px" viewBox="0 0 595.279 595.281" enable-background="new 0 0 595.279 595.281"
	 xml:space="preserve">
<g id="Calque_1_1_">
</g>
<g id="Calque_2">
	<path d="M291.136,16.812c0,0-20.089,1.133-19.628,3.327c1.592,7.573,13.849,11.213,19.226,11.04
		c5.376-0.174,23.182-3.442,22.488-11.045C312.977,17.455,291.136,16.812,291.136,16.812z"/>
	<circle cx="196.5" cy="322.779" r="12.5"/>
	<ellipse cx="427.501" cy="323.779" rx="11.5" ry="12.5"/>
	<ellipse cx="308.001" cy="542.281" rx="11" ry="12"/>
	<path d="M379.766,267.276c-7.176-0.28-14.4-6.588-19.794-13.461c-6.683,3.261-14.276,4.741-19.801,2.979
		c-4.097-1.308-7.647-4.613-10.534-8.875c-3.853,3.6-8.215,6.256-12.689,7.173c-3.382,0.692-8.854,0.82-14.205-3.319
		c-7.197,6.241-17.73,8.814-26.39,6.266c-2.319-0.683-4.421-1.71-6.263-3.036c-0.335,0.151-0.674,0.296-1.021,0.435
		c-8.848,3.557-19.419,1.77-25.708-4.342c-5.819-5.656-7.273-14-3.991-22.894l11.258,4.155c-1.635,4.428-1.267,7.837,1.098,10.133
		c2.519,2.446,7.021,3.356,11.065,2.386c-0.277-0.848-0.511-1.725-0.693-2.63c-1.697-8.341,2.719-18.371,7.742-22.156
		c2.833-2.134,6.195-2.54,8.992-1.083c5,2.604,5.354,9.212,5.188,13.956c-0.185,5.208-1.59,9.834-4.052,13.627
		c4.885,1.326,11.339-0.498,15.379-4.307c-2.604-6.162-4.771-21.422,0.72-28.837c2.646-3.576,6.731-5.075,11.203-4.103
		c4.438,0.962,7.582,3.821,8.854,8.05c2.229,7.413-2.073,17.63-6.189,24.771c2.551,2.027,4.936,1.38,7.181,0.21
		c2.604-1.358,4.953-3.485,6.962-5.918c-0.918-2.694-1.624-5.424-2.099-8.037c-1.156-6.35-1.443-14.781,3.749-18.888
		c1.699-1.343,5.351-3.247,10.731-0.893c2.381,1.042,7.809,4.495,6.802,14.038c-0.501,4.75-2.547,10.183-5.604,15.241
		c2.244,4.463,4.669,6.966,6.161,7.443c1.756,0.562,5.455,0.074,9.599-1.742c-0.483-0.958-0.897-1.86-1.233-2.685
		c-2.598-6.382-2.366-11.253,0.688-14.477c1.928-2.034,5.6-3.982,12.162-1.713c9.509,3.287,10.943,10.279,9.284,15.268
		c-0.802,2.41-2.399,4.762-4.522,6.918c0.548,0.672,1.125,1.344,1.73,2.011c4.482,4.923,7.654,6.302,8.706,6.343L379.766,267.276z"
		/>
	<path d="M323.695,323.203c-0.894,0-1.778-0.068-2.649-0.209c-5.305-0.859-10.055-4.443-13.679-9.057
		c-3.118,1.104-6.616,1.646-10.341,1.569c-8.194-0.17-16.204-3.256-21.706-8.082c-3.697,3.142-7.514,5.503-10.292,6.5l-4.058-11.293
		c2.29-0.821,5.277-3.032,7.948-5.562c-1.183-6.101,0.289-13.45,2.443-16.977c2.54-4.152,6.083-4.324,7.485-4.209
		c3.384,0.287,5.998,2.682,7.771,7.115c0.936,2.336,1.564,6.195-0.734,11.309c-0.653,1.452-1.486,2.896-2.448,4.297
		c3.354,2.854,8.623,4.797,13.839,4.904c0.98,0.014,2.561-0.025,4.269-0.385c-0.108-0.332-0.213-0.664-0.312-0.994
		c-2.54-8.611-0.907-16.34,4.479-21.197c6.598-5.957,11.604-2.178,12.54-1.356c6.649,5.805,2.651,22.194-0.172,26.332
		c-0.267,0.389-0.545,0.768-0.837,1.135c1.939,2.299,4.065,3.834,5.724,4.104c2.072,0.338,5.238-0.75,8.303-2.801
		c-1.68-2.685-2.786-5.709-3.235-9.013c-1.06-7.795,1.819-14.539,7.163-16.785c1.701-0.711,7.674-2.479,13.27,4.726
		c4.297,5.535,4.296,12.86-0.003,20.104c-0.016,0.021-0.027,0.045-0.04,0.065c3.021,1.212,6.148,1.681,8.126,1.859l-1.092,11.949
		c-5.904-0.539-11.101-2.125-15.345-4.572C335.221,320.523,329.311,323.203,323.695,323.203z"/>
	<path d="M192,80.28l42,59c0,0,17,22,36,22s40.001,0,53.001,0s22-4,28-16l33.977-58c0,0,147,29,179,92
		c8.697,17.122,19.906,38.309,31.599,60.525V0H392.131c-3.464,14.466-13.395,45.353-16.13,50.28
		c-3.335,6-37.334,18.667-37.334,18.667s-21.334-14.5-28-15.333c-6.667-0.833-31.335-0.667-38.001,2s-18.666,19.333-22,17.333
		S226,57.614,212,44.947C200.978,34.975,192.024,13.109,188.712,0H0v200.85c4.263-10.293,8.621-19.949,13-28.569
		C45,109.28,192,80.28,192,80.28z M298,80.28c14.667,1.333,32.29,15.977,32.667,22.667c1.474,26.193-20,14.333-32.667,13
		s-34.859,18.693-36-13C261.736,95.588,283.333,78.947,298,80.28z"/>
	<g>
		<path d="M447.001,372.279c15.32-4.715,54.702,52.737,56.977,110.002c2.108,53.131-16.336,97.729-26.025,113h35.049
			c-0.368-3.019-0.559-5.726-0.559-8c0,0,14.559-148,28.045-165c0,0-63.512-95.074-61.512-128.538c0,0-9,75.538-87,71.538
			C391.977,365.279,421.001,380.279,447.001,372.279z"/>
		<path d="M99.639,580.281c0,3.926-0.56,9.135-1.64,15h45.549c-7.766-4.979-36.061-36.75-33.549-100
			c2.401-60.521,48.418-123.428,53.292-123.494C200,371.279,220,358.279,220,358.279c-78,4-87-71.536-87-71.536
			c2,33.463-61.513,128.538-61.513,128.538C84.977,432.281,99.639,580.281,99.639,580.281z"/>
	</g>
</g>
</svg>
