<?xml version="1.0" encoding="utf-8"?>
<!-- Generator: Adobe Illustrator 14.0.0, SVG Export Plug-In . SVG Version: 6.00 Build 43363)  -->
<!DOCTYPE svg PUBLIC "-//W3C//DTD SVG 1.1//EN" "http://www.w3.org/Graphics/SVG/1.1/DTD/svg11.dtd">
<svg version="1.1" id="Calque_1" xmlns="http://www.w3.org/2000/svg" xmlns:xlink="http://www.w3.org/1999/xlink" x="0px" y="0px"
	 width="850.394px" height="850.394px" viewBox="0 0 850.394 850.394" enable-background="new 0 0 850.394 850.394"
	 xml:space="preserve">
<rect x="127.557" y="127.557" width="595.28" height="594.233"/>
<path stroke="#FFFFFF" stroke-width="14.1732" stroke-linecap="round" stroke-linejoin="bevel" d="M945.557,382.837"/>
<path stroke="#FFFFFF" stroke-width="2.0189" stroke-linecap="round" stroke-linejoin="bevel" d="M-13.431,185.791"/>
<rect x="225.39" y="745.16" width="85.04" height="85.039"/>
<path fill="#FFFFFF" d="M681.974,440.096c0,0-16.011-34.763-199.379-3.457c-41.302,7.053-19.044,15.985-41.129,16.572l-31.031-1.158
	c-4.387,0.089-7.396,0.479-8.864-0.59c-3.277-2.389,3.896-9.121-29.927-14.895c-183.367-31.308-199.379,3.457-199.379,3.457
	c-25.521,51.043,11.525,236.766,117.554,294.711l136.304-0.069l0.002,0.069l138.296,0.072
	C670.449,676.861,707.495,491.141,681.974,440.096z"/>
<path fill="#FFFFFF" d="M502.057,130.377c-14.28-13.72-54.72,21.72-75.72,21.72v0.079c-21.417-1.778-60.1-34.996-74-21.641
	c0,0-169.28,60.72-231.28,178.72v122.001c0,0,93.602-36.001,139-36.001c45,0-9.102-169,114-169c45,0,47,15.451,44,36.451
	c0,0-28.857,55.549,10,55.549c2.871,0,2.871-0.247,2.871-0.247c27.487-2.363,7.094-53.664,7.094-53.664
	c-3-21-2.685-38.247,42.315-38.247c123.102,0,69,169,114,169c45.398,0,139,36,139,36v-122
	C671.337,191.097,502.057,130.377,502.057,130.377z"/>
<path fill="#FFFFFF" stroke="#FFFFFF" stroke-width="14.1732" stroke-linecap="round" stroke-linejoin="round" d="M483.057,300.708
	c35.481-4.896,57.843,36.779,56,34.585C511.942,302.986,483.057,300.708,483.057,300.708z"/>
<path fill="#FFFFFF" stroke="#FFFFFF" stroke-width="14.1732" stroke-linecap="round" stroke-linejoin="round" d="M431.988,355.289
	c-21.845-3.767-63.001,10-63.001,10c42-26,82-21,130,8C500.946,374.473,460.987,360.289,431.988,355.289z"/>
<path fill="#FFFFFF" stroke="#FFFFFF" stroke-width="14.1732" stroke-linecap="round" stroke-linejoin="round" d="M400.268,397.378
	c0,0,39-6,52-3S403.268,396.378,400.268,397.378z"/>
<path fill="#FFFFFF" stroke="#FFFFFF" stroke-width="14.1732" stroke-linecap="round" stroke-linejoin="round" d="M324.784,335.988
	c0,0,32-33,46-35S354.784,293.988,324.784,335.988z"/>
<path d="M401.31,449.306c0,0,11.861,44.801,12.726,60.801s-0.135,95.5,4.125,100c2.662,2.812,8.952,6,11.346,0
	s17.909-153.79,21.936-159.165S401.31,449.306,401.31,449.306z"/>
<g>
	<path fill="#FFFFFF" d="M283.756,775.511"/>
	<path fill="#FFFFFF" d="M260.23,777.777"/>
	<path fill="#FFFFFF" d="M251.458,773.677"/>
	<path d="M264.236,790.603c0,0,1.496,6.054,1.619,8.319c0.123,2.268-0.019,13.529,0.584,14.166c0.377,0.398,1.268,0.851,1.607,0
		c0.339-0.85,2.881-21.724,3.451-22.485C272.069,789.842,264.236,790.603,264.236,790.603z"/>
</g>
<path fill="#FFFFFF" d="M231.133,788.009c0,0,2.315-5.029,28.836-0.501c5.974,1.021,2.754,2.312,5.949,2.397l4.488-0.168
	c0.634,0.013,1.07,0.07,1.282-0.086c0.474-0.345-0.564-1.318,4.328-2.154c26.521-4.527,28.836,0.5,28.836,0.5
	c3.691,7.383-1.667,34.244-17.002,42.625l-19.714-0.01v0.01l-20.002,0.011C232.8,822.251,227.442,795.392,231.133,788.009z"/>
<path fill="#FFFFFF" d="M257.155,743.213c2.065-1.983,7.914,3.142,10.951,3.142v0.011c3.097-0.257,8.692-5.061,10.703-3.13
	c0,0,24.483,8.782,33.451,25.85v17.645c0,0-13.538-5.207-20.104-5.207c-6.509,0,1.316-24.442-16.488-24.442
	c-6.508,0-6.797,2.235-6.364,5.271c0,0,4.174,8.034-1.446,8.034c-0.415,0-0.415-0.035-0.415-0.035
	c-3.976-0.343-1.026-7.762-1.026-7.762c0.434-3.037,0.388-5.531-6.12-5.531c-17.805,0-9.98,24.441-16.488,24.441
	c-6.565,0-20.104,5.207-20.104,5.207v-17.645C232.671,751.995,257.155,743.213,257.155,743.213z"/>
<path fill="#FFFFFF" stroke="#FFFFFF" stroke-width="2.0499" stroke-linecap="round" stroke-linejoin="round" d="M259.903,767.849
	c-5.132-0.709-8.366,5.318-8.1,5.002C255.725,768.179,259.903,767.849,259.903,767.849z"/>
<path fill="#FFFFFF" stroke="#FFFFFF" stroke-width="2.0499" stroke-linecap="round" stroke-linejoin="round" d="M267.289,775.321
	c3.16-0.545,9.112,1.445,9.112,1.445c-6.075-3.76-11.859-3.037-18.802,1.158C257.315,778.095,263.095,776.044,267.289,775.321z"/>
<path fill="#FFFFFF" stroke="#FFFFFF" stroke-width="2.0499" stroke-linecap="round" stroke-linejoin="round" d="M271.876,781.829
	c0,0-5.641-0.867-7.521-0.434C262.475,781.829,271.442,781.685,271.876,781.829z"/>
<path fill="#FFFFFF" stroke="#FFFFFF" stroke-width="2.0499" stroke-linecap="round" stroke-linejoin="round" d="M282.793,772.95
	c0,0-4.628-4.771-6.653-5.061C274.116,767.599,278.455,766.876,282.793,772.95z"/>
<path d="M271.726,789.341c0,0-1.716,6.479-1.841,8.793s0.02,13.812-0.596,14.463c-0.385,0.407-1.295,0.868-1.641,0
	c-0.346-0.867-2.59-22.242-3.173-23.021C263.893,788.799,271.726,789.341,271.726,789.341z"/>
</svg>
