<?xml version="1.0" encoding="utf-8"?>
<!-- Generator: Adobe Illustrator 14.0.0, SVG Export Plug-In . SVG Version: 6.00 Build 43363)  -->
<!DOCTYPE svg PUBLIC "-//W3C//DTD SVG 1.1//EN" "http://www.w3.org/Graphics/SVG/1.1/DTD/svg11.dtd">
<svg version="1.1" id="Calque_1" xmlns="http://www.w3.org/2000/svg" xmlns:xlink="http://www.w3.org/1999/xlink" x="0px" y="0px"
	 width="595.276px" height="595.276px" viewBox="0 0 595.276 595.276" enable-background="new 0 0 595.276 595.276"
	 xml:space="preserve">
<path stroke="#FFFFFF" stroke-width="14.1732" stroke-linecap="round" stroke-linejoin="bevel" d="M817.998,255.278"/>
<path stroke="#FFFFFF" stroke-width="2.0189" stroke-linecap="round" stroke-linejoin="bevel" d="M-140.99,58.232"/>
<path fill="none" d="M162.26,607.177l136.304-0.069l0.002,0.069l138.296,0.072c6.968-3.809,13.63-8.182,20.004-13.019H142.349
	C148.695,599.04,155.326,603.388,162.26,607.177z"/>
<path fill="none" d="M554.415,312.537c0,0-16.011-34.763-199.379-3.457c-41.302,7.053-19.044,15.985-41.129,16.572l-31.031-1.158
	c-4.387,0.089-7.396,0.479-8.864-0.59c-3.277-2.389,3.896-9.121-29.927-14.895c-183.367-31.308-199.379,3.457-199.379,3.457
	c-23.852,47.705,6.955,213.038,97.643,281.765h314.517C547.481,525.46,578.259,360.227,554.415,312.537z"/>
<path d="M298.778,24.538c16.387,0,44.609-21.578,63.004-24.54H236.358c17.736,2.139,45.479,23.212,62.42,24.619V24.538z"/>
<path d="M224.778,2.975c1.738-1.67,3.864-2.611,6.295-2.978H-0.002v170.174C66.518,59.745,224.778,2.975,224.778,2.975z"/>
<path fill="none" d="M605.778,181.538c-3.222-6.132-6.737-12.107-10.5-17.929C526.637,57.393,374.498,2.818,374.498,2.818
	c-1.533-1.473-3.369-2.376-5.449-2.82c-2.176-0.465-4.619-0.426-7.267,0c-18.395,2.962-46.617,24.54-63.004,24.54v0.079
	c-16.941-1.406-44.684-22.48-62.42-24.619c-1.882-0.227-3.654-0.246-5.285,0c-2.431,0.366-4.557,1.308-6.295,2.978
	c0,0-158.26,56.77-224.78,167.197c-2.276,3.779-4.449,7.619-6.5,11.523v122.001c0,0,2.359-0.907,6.5-2.43
	c21.976-8.083,94.299-33.571,132.5-33.571c45,0-9.102-169,114-169c45,0,47,15.451,44,36.451c0,0-28.857,55.549,10,55.549
	c2.871,0,2.871-0.247,2.871-0.247c27.487-2.363,7.094-53.664,7.094-53.664c-3-21-2.685-38.247,42.315-38.247
	c123.102,0,69,169,114,169c36.13,0,102.788,22.8,128.5,32.11c6.596,2.388,10.5,3.89,10.5,3.89V181.538z"/>
<path d="M369.048-0.002c2.08,0.444,3.916,1.348,5.449,2.82c0,0,152.14,54.575,220.78,160.791V-0.002H369.048z"/>
<path fill="#FFFFFF" d="M273.648,269.678c-0.458,0.042-0.783,0.088-0.939,0.141C272.708,269.819,273.04,269.768,273.648,269.678z"/>
<g>
	<path fill="none" d="M273.648,269.678c-0.458,0.042-0.783,0.088-0.939,0.141C272.708,269.819,273.04,269.768,273.648,269.678z"/>
	<path fill="none" d="M324.708,266.819c-11.806-2.725-45.053,1.973-51.061,2.859C281.976,268.913,337.031,269.663,324.708,266.819z"
		/>
	<path fill="none" d="M197.225,208.429c0,0,32-33,46-35S227.225,166.429,197.225,208.429z"/>
	<path fill="none" d="M355.498,173.148c0,0,28.886,2.279,56,34.585C413.34,209.928,390.979,168.253,355.498,173.148z"/>
	<path fill="none" d="M371.428,245.73c-48-29-88-34-130-8c0,0,41.156-13.767,63.001-10
		C333.428,232.73,373.387,246.914,371.428,245.73z"/>
	<path d="M466.778,267.538c-45,0,9.102-169-114-169c-45,0-45.315,17.247-42.315,38.247c0,0,20.394,51.3-7.094,53.664
		c0,0,0,0.247-2.871,0.247c-38.857,0-10-55.549-10-55.549c3-21,1-36.451-44-36.451c-123.102,0-69,169-114,169
		c-38.201,0-110.524,25.488-132.5,33.571v292.965h142.352c-90.688-68.727-121.495-234.06-97.643-281.765
		c0,0,16.012-34.765,199.379-3.457c33.823,5.773,26.649,12.506,29.927,14.895c1.467,1.069,4.477,0.679,8.864,0.59l31.031,1.158
		c22.085-0.587-0.173-9.52,41.129-16.572c183.368-31.306,199.379,3.457,199.379,3.457c23.845,47.69-6.934,212.924-97.549,281.694
		h138.412V299.648C569.566,290.338,502.908,267.538,466.778,267.538z M197.225,208.429c16.731-52.634,66.904-40.257,52.904-38.257
		S197.225,208.429,197.225,208.429z M273.648,269.678c-0.608,0.09-0.939,0.141-0.939,0.141
		C272.865,269.767,273.19,269.72,273.648,269.678c6.008-0.886,49.698-18.374,63.721-3.7
		C347.298,276.37,281.976,268.913,273.648,269.678z M303.324,233.309c-21.845-3.767-61.896,4.421-61.896,4.421c42-26,82-21,130,8
		C373.387,246.914,332.323,238.309,303.324,233.309z M411.498,207.733c-27.114-32.306-56-34.585-56-34.585
		C404.041,158.63,413.34,209.928,411.498,207.733z"/>
</g>
<path d="M273.751,321.747c0,0,11.861,44.801,12.726,60.801s-0.135,95.5,4.125,100c2.662,2.812,8.952,6,11.346,0
	s17.909-153.79,21.936-159.165S273.751,321.747,273.751,321.747z"/>
</svg>
