<?xml version="1.0" encoding="UTF-8" standalone="no"?>
<!-- Generator: Adobe Illustrator 13.0.2, SVG Export Plug-In . SVG Version: 6.00 Build 14948)  -->

<svg
   xmlns:dc="http://purl.org/dc/elements/1.1/"
   xmlns:cc="http://creativecommons.org/ns#"
   xmlns:rdf="http://www.w3.org/1999/02/22-rdf-syntax-ns#"
   xmlns:svg="http://www.w3.org/2000/svg"
   xmlns="http://www.w3.org/2000/svg"
   xmlns:sodipodi="http://sodipodi.sourceforge.net/DTD/sodipodi-0.dtd"
   xmlns:inkscape="http://www.inkscape.org/namespaces/inkscape"
   version="1.0"
   id="Calque_2"
   x="0px"
   y="0px"
   width="589.971px"
   height="587.471px"
   viewBox="0 0 589.971 587.471"
   enable-background="new 0 0 589.971 587.471"
   xml:space="preserve"
   inkscape:version="0.91 r13725"
   sodipodi:docname="bouteille-étiquette-bouchon.svg"><metadata
     id="metadata29"><rdf:RDF><cc:Work
         rdf:about=""><dc:format>image/svg+xml</dc:format><dc:type
           rdf:resource="http://purl.org/dc/dcmitype/StillImage" /></cc:Work></rdf:RDF></metadata><defs
     id="defs27" /><sodipodi:namedview
     pagecolor="#ffffff"
     bordercolor="#666666"
     borderopacity="1"
     objecttolerance="10"
     gridtolerance="10"
     guidetolerance="10"
     inkscape:pageopacity="0"
     inkscape:pageshadow="2"
     inkscape:window-width="1600"
     inkscape:window-height="871"
     id="namedview25"
     showgrid="false"
     inkscape:zoom="0.56812063"
     inkscape:cx="-285.45181"
     inkscape:cy="235.05685"
     inkscape:window-x="0"
     inkscape:window-y="0"
     inkscape:window-maximized="1"
     inkscape:current-layer="Calque_2" /><path
     d="M0.895,370.895v215h330c0,0-40.554-78.399-53.554-101.399s-21.688-47.225-19-61c8-41,26.92-61.541,32.166-73.051  c7.233-15.87,5.734-24.566-1.166-36.949c-1.755-3.149-12.854-20.472-9.62-31.681c3.331-11.541,13.449-25.172,24.742-32.421  c11.852-7.608,27.823-13.067,40.656-3.28c14.019,10.691,21.754,39.766,48.214,39.766c12.436,0,88.816-10.008,101.089-0.292  c48,38,94.049,89.894,94.049,89.894L589.971,2l-19.076-0.105c0,0-1,105-37,154c-33.098,45.05-83.053,70.401-191.418,60.55  c-77.123-7.011-81.976,48-87.909,68.493c-1.781,6.151-18.673,101.957-121.673,119.957C75.304,414.959,0.895,370.895,0.895,370.895z"
     id="path3" /><polygon
     points="289.185,63.966 303.936,76.433 268.245,106.47 "
     id="polygon5" /><polygon
     points="164.726,66.289 182.801,59.786 205.82,109.927 "
     id="polygon7" /><polygon
     points="123.583,165.019 130.997,185.069 171.423,166.131 127.527,164.357 "
     id="polygon9" /><path
     d="M204.863,155.66c0,0,2.137-10.053,14.11-19.353s30.85-11.169,30.85-11.169c4.375,5.872,7.446,9.574,11.541,15.768  c-4.539-1.513-19.52,2.583-28.152,8.402c-15.828,10.671-17.505,23.916-17.505,23.916L204.863,155.66z"
     id="path11" /><path
     d="M 261.82227 146.60547 C 255.293 146.87819 242.08505 151.25594 235.1543 156.46094 C 218.9403 168.63794 219.6247 177.59647 222.0957 181.10547 C 238.5117 204.42447 249.82487 236.59319 254.42188 248.74219 C 254.62988 242.72219 265.02277 223.58233 276.63477 215.36133 C 293.13077 203.68333 304.95186 202.37127 311.38086 202.94727 C 307.38086 198.94727 269.57453 165.23527 265.64453 147.82227 C 265.43203 146.87977 263.99869 146.51456 261.82227 146.60547 z M 234.0625 171.89453 C 243.2295 177.72753 254.74609 191.53906 253.74609 200.53906 C 252.74609 209.53906 248.20109 207.17006 245.74609 200.53906 C 241.06309 187.88906 234.2793 186.93945 230.2793 182.93945 C 226.2793 178.93945 234.0625 171.89453 234.0625 171.89453 z "
     id="path13" /><path
     d="M292.841,371.995c-10,20-24,42-20,59s55,80,55,80s-34-56-32-82c1.352-17.577,13.778-30.109,15-46  C312.841,356.995,292.841,371.995,292.841,371.995z"
     id="path15" /><path
     d="M308.286,257.102c-10.306,5.889-19.637,14.807-21.789,29.149c-1.767,11.777,18.254,27.084,18.254,22.084  s-11.256-14.924-3.564-21.394C311.292,278.44,308.286,257.102,308.286,257.102z"
     id="path17" /><rect
     x="0.5"
     y="0.5"
     fill="none"
     stroke="#000000"
     width="586.471"
     height="586.471"
     id="rect21" /><path
     d="M587.594,429.744l-35.911-40.113c0,0-61.533,2.79-121.758,48.947s-80.347,103.739-80.347,103.739l29.316,45.011l209-0.434  L587.594,429.744z"
     id="path23" /></svg>