<?xml version="1.0" encoding="utf-8"?>
<!-- Generator: Adobe Illustrator 16.0.0, SVG Export Plug-In . SVG Version: 6.00 Build 0)  -->
<!DOCTYPE svg PUBLIC "-//W3C//DTD SVG 1.1//EN" "http://www.w3.org/Graphics/SVG/1.1/DTD/svg11.dtd">
<svg version="1.1" id="Calque_1" xmlns="http://www.w3.org/2000/svg" xmlns:xlink="http://www.w3.org/1999/xlink" x="0px" y="0px"
	 width="595.279px" height="595.281px" viewBox="0 0 595.279 595.281" enable-background="new 0 0 595.279 595.281"
	 xml:space="preserve">
<g>
	<circle cx="141.22" cy="370.062" r="29.438"/>
	<circle cx="458.295" cy="368.312" r="29.438"/>
	<path d="M328.261,366.91c13.116-145.771,129.434-131.376,129.434-131.376c-54.602-19.949-103.521,18.947-103.521,18.947
		c3.003-17.013,5.039-50.915,5.219-57.714c0.181-6.798,9.793-5.335,11.031-22.288c1.237-16.952-6.242-11.069-12.308-54.322
		c-6.062-43.253-37.966-31.812-38.676-31.66c-0.712,0.151-11.305,13.866-20.083,1.173c-8.779-12.693-42.261,3.686-44.104,27.515
		c-1.842,23.828-8.646,46.489-9.716,56.068c-1.071,9.578,15.562,12.175,10.253,23.694c-5.309,11.52-0.307,55.713-0.307,55.713
		c-47.354-35.194-97.394-19.182-97.394-19.182c106.083,3.002,128.101,94.073,123.739,161.413
		C270.179,531.708,83.787,557.667,0.446,460.384v135.359h594.387l-0.125-136.521C501.22,570.218,315.144,512.681,328.261,366.91z"/>
</g>
</svg>
