<?xml version="1.0" encoding="UTF-8" standalone="no"?>
<!-- Generator: Adobe Illustrator 16.0.0, SVG Export Plug-In . SVG Version: 6.00 Build 0)  -->

<svg
   xmlns:dc="http://purl.org/dc/elements/1.1/"
   xmlns:cc="http://creativecommons.org/ns#"
   xmlns:rdf="http://www.w3.org/1999/02/22-rdf-syntax-ns#"
   xmlns:svg="http://www.w3.org/2000/svg"
   xmlns="http://www.w3.org/2000/svg"
   xmlns:sodipodi="http://sodipodi.sourceforge.net/DTD/sodipodi-0.dtd"
   xmlns:inkscape="http://www.inkscape.org/namespaces/inkscape"
   version="1.1"
   id="Calque_1"
   x="0px"
   y="0px"
   width="595.28px"
   height="595.28px"
   viewBox="0 0 595.28 595.28"
   enable-background="new 0 0 595.28 595.28"
   xml:space="preserve"
   inkscape:version="0.91 r13725"
   sodipodi:docname="bukake.svg"><metadata
     id="metadata25"><rdf:RDF><cc:Work
         rdf:about=""><dc:format>image/svg+xml</dc:format><dc:type
           rdf:resource="http://purl.org/dc/dcmitype/StillImage" /></cc:Work></rdf:RDF></metadata><defs
     id="defs23" /><sodipodi:namedview
     pagecolor="#ffffff"
     bordercolor="#666666"
     borderopacity="1"
     objecttolerance="10"
     gridtolerance="10"
     guidetolerance="10"
     inkscape:pageopacity="0"
     inkscape:pageshadow="2"
     inkscape:window-width="1600"
     inkscape:window-height="871"
     id="namedview21"
     showgrid="false"
     inkscape:zoom="2.2426716"
     inkscape:cx="520.30965"
     inkscape:cy="125.56072"
     inkscape:window-x="0"
     inkscape:window-y="0"
     inkscape:window-maximized="1"
     inkscape:current-layer="Calque_1"
     inkscape:snap-page="true"
     inkscape:snap-global="true"
     inkscape:snap-bbox="true"
     inkscape:object-paths="true"
     inkscape:snap-intersection-paths="true"
     inkscape:snap-smooth-nodes="true"
     inkscape:snap-others="true"
     inkscape:snap-midpoints="false"
     inkscape:object-nodes="true" /><path
     d="M297.57,71.367c-41.912,0-75.522,9.796-102.61,26.582c7.17,5.161,14.635,7.332,17.563,7.332  c5.44,0,17.654-1.159,23.017-19.146c7.259,12.938,18.283,13.571,31.725,13.871c16.557,0.369,30.305-6.8,30.305-16.171  c-0.002,9.371,13.748,16.54,30.308,16.171c13.438-0.3,24.463-0.933,31.721-13.871c5.362,17.987,17.578,19.146,23.021,19.146  c2.927,0,10.389-2.175,17.552-7.337C373.084,81.16,339.476,71.366,297.57,71.367L297.57,71.367z"
     id="path3" /><path
     d="M448.944,181.724c-20.488-15.473-71.532-55.003-130.999-57.159c-6.909-0.249-38.332-0.396-40.527-0.242  c-82.458,5.826-117.65,41.231-136.615,58.152c-3.882,3.463-11.948,10.849-8.57,17.522c24.773,48.932,60.331,132.021,84.148,162.451  c28.71,36.684,67.346,56.782,82.834,56.782c16.163,0,50.411-9.648,86.302-56.782c25.125-32.997,65.145-127.367,77.98-161.573  C465.359,195.915,455.396,186.597,448.944,181.724z M249.96,239.649c-9.565-9.556-15.492-33.351-4.198-40.439  c11.289-7.085,27.045,2.893,33.503,14.771c20.715,38.104,21.362,84.688,21.968,180.044  C287.046,423.278,306.502,296.141,249.96,239.649z M316.176,160.2c3.979-7.318,17.55-12.179,24.506-7.812  c6.958,4.367,6.54,19.234,1.978,26.203c-29.339,44.801-26.127,134.495-34.869,116.47C308.162,236.306,303.412,183.679,316.176,160.2  z M343.916,335.75c-13.536,4.703-25.36,1.981-33.435,16.556c-4.346,7.845-1.506-24.669,8.831-37.297  c8.803-10.752,23.4-12.788,32.327-3.861C360.565,320.073,352.484,332.773,343.916,335.75z"
     id="path5" /><path
     d="M353.964,7.103c-33.907,9.349-56.396,28.844-56.396,28.844s-22.492-19.495-56.4-28.844  C135.799,55.891,87.322,197.469,87.322,197.469c5.908,16.265,12.833,33.072,20.895,49.532c10.624,0.803,21.895,2.39,31.487,4.788  c-10.467-16.58-19.025-34.902-26.078-54.32c28.264-77.811,80.505-138.231,183.942-138.231v-0.003  c103.434,0,155.678,60.424,183.94,138.234c-7.423,20.438-16.514,39.663-27.741,56.919c9.251-2.968,21.041-5.012,32.546-6.153  c8.322-16.852,15.441-34.095,21.496-50.766C507.809,197.469,459.334,55.891,353.964,7.103z"
     id="path7" /><path
     d="M156.68,281.568c-1.69-3.497-8.164,1.947-11.213-1.102c-3.05-3.049,1.627-9.305-1.104-11.212  c-20.567-10.435-69.872-19.268-94.071,4.932c-9.007,9.008-13.665,18.373-14.92,27.865c-0.215,6.983-0.582,13.621,0.45,17.32  c1.001,3.584,1.687,6.542-0.589,9.345c-1.469,1.811-4.432,0.214-6.732-3.289c-2.105-3.206-2.611-9.927-4.602-7.955  C19.17,322.162,10.385,330.929,0,341.307v250.408c4.82-2.656,9.358-6.012,13.444-10.099c23.353-23.353,2.479-58.34,0-84.562  c1.077-4.766,69.253-69.253,95.018-95.018c1.981-1.981-5.261-2.905-6.573-3.221c-2.124-0.51-7.438-5.347-4.671-8.114  c2.553-2.553,5.031-1.143,10.052,0.118c15.063,3.784,35.473-6.171,44.479-15.177C175.948,351.443,167.114,302.134,156.68,281.568z"
     id="path9" /><path
     d="M595.28,335.461c-7.791-7.781-14.238-14.21-18.049-17.988c-1.99-1.972-2.496,4.749-4.602,7.955  c-2.301,3.503-5.264,5.1-6.732,3.289c-2.275-2.803-1.59-5.761-0.59-9.345c1.033-3.699,0.666-10.337,0.451-17.32  c-1.256-9.492-5.914-18.857-14.92-27.865c-24.199-24.199-73.504-15.366-94.072-4.932c-2.73,1.907,1.947,8.163-1.104,11.212  c-3.049,3.049-9.521-2.396-11.213,1.102c-10.434,20.565-19.268,69.875,4.932,94.074c9.006,9.006,29.416,18.961,44.479,15.177  c5.021-1.261,7.5-2.671,10.053-0.118c2.768,2.768-2.547,7.604-4.672,8.114c-1.312,0.315-8.555,1.239-6.572,3.221  c25.764,25.765,90.133,85.626,95.018,95.018c5.569,10.708-23.354,61.21,0,84.562c2.388,2.388,4.934,4.518,7.594,6.417V335.461z"
     id="path11" /><path
     d="m 247.545,542.765 c 3.242,1.827 5.818,3.434 6.191,7.024 0.241,2.318 -2.983,3.285 -7.087,2.435 -3.755,-0.778 -8.866,-5.173 -8.878,-2.371 -0.036,8.301 -0.4939,25.99203 -0.4939,45.42703 l 120.0829,0 0,-45.42703 c 0,-2.802 -5.774,1.666 -6.925,2.371 -1.862,1.142 -9.041,1.479 -9.041,-2.435 0,-3.61 2.75,-4.366 7.191,-7.024 13.327,-7.976 20.72,-29.446 20.72,-42.183 0,-34.224 -41.113,-62.844 -63.034,-70.008 -3.667,-1.277 -4.396,7.15 -8.707,7.15 -4.312,0 -5.429,-7.73 -8.709,-7.148 -21.92,7.165 -63.03,35.783 -63.03,70.006 0,12.738 3.329,22.654 9.153,30.254 4.788,5.09 9.22,10.043 12.567,11.929 z"
     id="path13"
     inkscape:connector-curvature="0"
     sodipodi:nodetypes="ccccccscscscscscc" /></svg>