<?xml version="1.0" encoding="utf-8"?>
<!-- Generator: Adobe Illustrator 17.0.2, SVG Export Plug-In . SVG Version: 6.00 Build 0)  -->
<!DOCTYPE svg PUBLIC "-//W3C//DTD SVG 1.1//EN" "http://www.w3.org/Graphics/SVG/1.1/DTD/svg11.dtd">
<svg version="1.1" id="Calque_1" xmlns="http://www.w3.org/2000/svg" xmlns:xlink="http://www.w3.org/1999/xlink" x="0px" y="0px"
	 width="595.28px" height="595.28px" viewBox="0 0 595.28 595.28" enable-background="new 0 0 595.28 595.28" xml:space="preserve">
<g id="_x33_D">
</g>
<g>
	<path d="M499.14,469.14c-10-66-10.355-117.132-18.583-179.585C472.49,228.323,464.14,123.14,433.14,80.14s-100-66-190-41
		s-103,106-115,155s-22,173-34,226s-19,175.14-19,175.14h445C520.14,595.28,509.14,535.14,499.14,469.14z M394.14,293.14
		c-44.5,10-110,11.5-152.5,7.5s-93.5-20.5-93.5-20.5s2.768-20.664,6.067-52.306c2.507-24.047,3.933-51.694,3.933-51.694
		s34.661-16.5,83.161-27.5s87.339-6.5,133.339,4.5s66.167,35,66.167,35s1.298,17.287,3.298,37.787s8.035,47.547,8.035,47.547
		S438.64,283.14,394.14,293.14z"/>
	<path d="M427.307,207.64c-2,1.167-22.766,12.809-50.353,17.667c-29.564,5.206-46.647,4.872-48.814,4.833s-3.815-0.046-3.65,1.5
		c0.4,3.75,2.484,10.5,3.65,13.5s4.667,8.667,5.667,8.667s1.667-7.667,4-7.667c2.333,0,4.333,5.333,6,5.333c1.667,0,3.167-7,4.667-7
		s4.833,6.5,7.333,6.5s2.333-6.667,4-6.667c1.667,0,5.167,5.667,6.833,5.667s3.167-8.25,4.833-8.375c1.667-0.125,4,5.875,6,5.875
		s1.667-7.833,3.833-8.167c2.167-0.333,3.333,7,5.333,6.5s2.333-8.167,4-8.5c1.667-0.333,3.833,6.333,5.333,5.667
		c1.5-0.667,2.167-8.333,3.333-8.667c1.167-0.333,4,4.833,6.167,4.5c2.167-0.333,1.667-6.833,2.833-7.167
		c1.167-0.333,3.833,4.5,5.333,4.167c1.5-0.333,15-25.5,15.833-26.667C430.307,207.973,429.307,206.473,427.307,207.64z"/>
	<path d="M292.015,235.515c-0.75-1.625,2.125-6.125,1.125-7s-6.75,1-7.5,0s0.875-6.375,0-7.25s-5,1-6.125,0s2.375-6.25,1.375-7
		s-6.5,0.5-7.024-0.375s2.024-8.5,0.899-9.375s-6.75,3.125-7.75,1.5s1.125-8.125,0-9.125s-7.375,3.125-8.5,2.25s1.75-7.75,0-9
		s-9,3-10.5,1.75s-1-10.125-2.375-10.875s-7.375,7-9.25,6.875s-5-6.25-6.875-6.125s-1.875,7.5-3.125,7.875s-7-2.625-8.625-2.375
		s1.625,7.875,0,8.25s-6.625-3.625-8.25-2.625s-1.125,7.5-2.75,8.125s-6.125-4-7.25-3.5s-3.375,7.875-4.375,8.75
		s-7.375-2.375-8.25-1.875s-0.75,9.375-2.25,9.875s-6.375-4.25-7.5-4s-1.125,8.625-2,9s-6.321-3.424-7-3
		c-1,0.625-1.875,4.5-2.125,5.75s1.125,5.25,3.625,11.75s11.25,13.75,26.125,16s38.5,5.875,56.75,4.375s41.5-7.875,42.375-9.125
		s5.5-6.375,5.125-7.875S292.765,237.14,292.015,235.515z M198.64,237.14c-4.375-1.625-9.5-4.25-10-6.25s1-3.5,3-4.75
		s16-11.125,16.875-10.375c0.977,0.838-2.029,4.489-1.125,12.5c0.875,7.75,6.75,11.25,6.375,12S203.015,238.765,198.64,237.14z
		 M236.813,228.432c-4.291,5.572-9.753,3.205-11.509,0c-1.756-3.205-0.975-10.228,5.657-10.228
		C237.008,218.204,241.105,222.859,236.813,228.432z M274.515,235.89c-0.5,0.75-5.125,0.417-7.875,0.792s-15.625,4.333-15.875,3.083
		s4.75-4.75,4.75-12.75c0-7.25-4.6-10.254-3.125-11.291c1.125-0.791,4.875,3.416,7.375,5.791s6.125,7.125,7.25,8
		S275.015,235.14,274.515,235.89z"/>
</g>
</svg>
