<?xml version="1.0" encoding="utf-8"?>
<!-- Generator: Adobe Illustrator 17.0.2, SVG Export Plug-In . SVG Version: 6.00 Build 0)  -->
<!DOCTYPE svg PUBLIC "-//W3C//DTD SVG 1.1//EN" "http://www.w3.org/Graphics/SVG/1.1/DTD/svg11.dtd">
<svg version="1.1" id="Calque_1" xmlns="http://www.w3.org/2000/svg" xmlns:xlink="http://www.w3.org/1999/xlink" x="0px" y="0px"
	 width="595.28px" height="595.28px" viewBox="0 0 595.28 595.28" enable-background="new 0 0 595.28 595.28" xml:space="preserve">
<g>
	<path d="M334.966,424.429c-19.326,7.96-42.727,9.759-35.888,19.619c6.84,9.86,27.13,0.045,39.189-6.496
		c12.06-6.54,35.193-22.587,32.628-26.285C368.046,407.159,352.154,417.349,334.966,424.429z"/>
	<path d="M314.14,326.64c15.5,1.5,47.5,1.5,47.5-3c0-5-19.061-5.833-43-9.917c-21-3.583-45.308-16.083-45.308-4.083
		S298.64,325.14,314.14,326.64z"/>
	<path d="M323.323,367.7c-23.232,0.579-53.282-5.451-50.209,7.313c3.072,12.764,31.227,9.926,48.307,7.503
		c17.079-2.423,51.547-10.719,50.395-15.506C370.535,361.692,349.14,367.056,323.323,367.7z"/>
	<path d="M595.28,201.473V0H0v595.28h169.723l-2.583-67.14c0,0,35.667,14.499,78,13.165c46.315-1.459,81.504-11,81.504-11
		l5.669,64.975H595.28V332.807c-42.86,38-113.471,52-113.471,52s3.023-23.25,1.333-48.667c-1.751-26.333-9.417-47.333-9.417-47.333
		s34.415-4.667,65.748-29.333C570.807,234.807,595.28,201.473,595.28,201.473z M198.14,50.64c12,0,18,35,23,35
		s4.355-18.48-3.958-30.965c-6.625-9.951,25.375-5.117,43.875,8.383s26.805,25.167,34.083,48.583
		c5.75,18.5,1.596,32.38-0.335,36.413c-5.665,11.837-31.437,16.333-33.665,21.087c-3.75,8,21.5-1.5,33.25-7c0,0,1.25,7,1.808,19.511
		c0.513,11.497,4.608,51.156,1.442,57.489s-28.507,18.304-63.5,20.417c-49.667,3-76.333-3.417-79.667-7.751
		c-3.333-4.333-6.383-28.607-8.333-43.661c-2.889-22.299-4.25-36.923-4.25-36.923c14,6.167,31.421,5.836,36.754,5.836
		c5.333,0,6.807-4.244-4.86-5.911s-26.765-6.544-33.055-12.962c-6.09-6.214-9.59-22.713-9.59-34.38
		C131.14,112.14,138.807,50.64,198.14,50.64z M461.723,412.144c-5.089,13.392-27.78,17.461-39.165,19.833
		c0,0,3.583-21.504-3.081-34.504c-6.602-12.88,2.164,34.667-28.836,71.167s-64.497,49.967-126,53.921
		c-63.5,4.083-93.167-6.347-119-27.421c-29.835-24.338-25.417-61.165-25.417-61.165s19.905,17.128,48.417,17.665
		c9.001,0.17,7.25-2.5-3-5.75s-34.25-12.75-46-27.25s-30.167-41.167-26.895-79.072c0,0,14.728,9.572,35.868,12.047
		c8.997,1.053,15.026-0.642,2.678-5.309c-23.625-8.929-51.152-25.166-51.152-69.666s40.831-58.25,52.581-58.25
		c3.75,0,1.585,39.502,13.085,47.502s48.918,11.453,80.335,9.165c34.333-2.5,86.752-6.665,86.752-39.665
		c0-12.5-0.835-29.302-0.835-29.302c7.249-0.091,14.916,4.717,23.083,12.55c14.515,13.922,18.583,28.083,28.583,31.583
		s18.354,7.037,25.248,12.669c23.523,19.219,24.021,70.854,27.923,65.581c12.58-17-8.503-63.917-8.503-63.917
		c5.167-6.167,26.456-8.49,32.749-2.416C470.166,290.154,472.606,383.504,461.723,412.144z"/>
</g>
</svg>
