<?xml version="1.0" encoding="utf-8"?>
<!-- Generator: Adobe Illustrator 18.1.1, SVG Export Plug-In . SVG Version: 6.00 Build 0)  -->
<!DOCTYPE svg PUBLIC "-//W3C//DTD SVG 1.0//EN" "http://www.w3.org/TR/2001/REC-SVG-20010904/DTD/svg10.dtd">
<svg version="1.0" xmlns="http://www.w3.org/2000/svg" xmlns:xlink="http://www.w3.org/1999/xlink" x="0px" y="0px"
	 viewBox="0 0 595.3 595.3" enable-background="new 0 0 595.3 595.3" xml:space="preserve">
<g id="Calque_1" display="none">
	
		<image display="inline" overflow="visible" width="1616" height="1627" xlink:href="../scans/tag061 chantilly.jpg"  transform="matrix(0.36 0 0 0.36 -17.9165 0)">
	</image>
</g>
<g id="Calque_2">
	<path d="M135.9,0c0,104.8,53.1,138.3,100.8,154.5c8.1-22.8,29-32.6,60.4-32.6c13.3,0,25.3,3.6,32,8.3c23.8-3.1,37.3,2.1,39,14.7
		c27.7-17.5,93.5-31.7,91.3-144.9H135.9z"/>
	<g>
		<path d="M297.6,256.3l-12,24.7l-12.7-9.3l-3.3-23.3c0,0-6.7,8-6.7,8.7c-5.3-6-6-20.7-6-32.7s0-67.9,0-67.9
			c3.4-9.5,22.7-18.1,40.7-18.1"/>
		<path d="M297.6,256.3l12,24.7l12.7-9.3l3.3-23.3c0,0,6.7,8,6.7,8.7c5.3-6,6-20.7,6-32.7s0-67.9,0-67.9
			c-8.7-9.5-22.7-18.1-40.7-18.1"/>
	</g>
	<path d="M315.2,143.7c0,0,28.4,0,32.4,0s8,2.8,8,8.7c0,5.9,0,14.5,0,17.3c0,3.1-2.4,6-7.7,6s-26.3,0-26.3,0L315.2,143.7z"/>
	<path d="M309.6,281c0,16,0,52.7,0,68.2s3.9,53,21.9,71c-17-12.5-45.8-26-45.8-73.5c0-22,0-62.4,0-65.7
		c-11.8,11.8-24.4,25.5-24.4,46s0,6.7,0,31.7s1.8,50.5,57.3,74c-13,9.5-45.5-3.3-58.8-19.3c-16-1.3-48.2,10.6-48.2,33.3
		c0,11,5.2,21,12.2,28c5.5-11.5,27.3-20.7,47.3-20.7s37.4,4.1,52,3.8c15.9-0.3,29.5-9.6,29.5-28.1c0-28.5-17.7-40.2-17.7-72
		c0-9,0-5.2,0-27.7S321.9,291.4,309.6,281z"/>
	<path d="M367,424.7c2.7,19.7-8,50-39.5,50c-20.5,0-73.5-15.7-92,11.3c16.5,12,48,16.2,65.5,16.2s82.7-6.2,82.7-55.5
		C383.7,435.4,373.5,427.7,367,424.7z"/>
	<path d="M595.3,595.3c-43.7-81.6-122.6-128.9-192.6-141.8c-1.7,48.8-57.7,66-105.1,66l0,75.8"/>
	<path d="M0,595.3c43.7-81.6,122.6-128.9,192.6-141.8c1.7,48.8,57.7,66,105.1,66v75.8"/>
</g>
</svg>
