<?xml version="1.0" encoding="utf-8"?>
<!-- Generator: Adobe Illustrator 16.0.0, SVG Export Plug-In . SVG Version: 6.00 Build 0)  -->
<!DOCTYPE svg PUBLIC "-//W3C//DTD SVG 1.1//EN" "http://www.w3.org/Graphics/SVG/1.1/DTD/svg11.dtd">
<svg version="1.1" id="Calque_1" xmlns="http://www.w3.org/2000/svg" xmlns:xlink="http://www.w3.org/1999/xlink" x="0px" y="0px"
	 width="595.279px" height="595.281px" viewBox="0 0 595.279 595.281" enable-background="new 0 0 595.279 595.281"
	 xml:space="preserve">
<g>
	<g id="Calque_1_1_">
	</g>
	<g id="Calque_2">
		<path d="M279.847,135.543c-39.105,0-75.703,23.005-72.034,77.119c3.391,49.999,66.103,64.406,66.103,64.406
			s77.967,4.238,77.967-68.219C351.882,164.355,316.287,135.543,279.847,135.543z"/>
		<path d="M269.678,140.627V66.899c0,0-55.933-16.847-53.391-66.897H359.51c0,0-5.935,60.119-67.798,66.05v76.295"/>
		<path d="M273.915,277.067v44.916c0,0-32.402,11.922-24.775,16.158s22.114,15.152,42.919,16c20.805,0.849,44.081-11,44.081-11
			s-14.773-19.465-38.498-19.465v-53.39L273.915,277.067z"/>
		<path d="M0.002,434.691v160.587h216.202c0,0-16.864-36.013,10.254-64.824c18.146-19.279,50.263-24.575,50.263-24.575v-48.305
			c0,0-72.296-7.172-53.651-78.355c6.779,1.694,30.425,16.863,64.788,16.863c34.364,0,64.024-13.626,64.024-13.626
			s7.168,61.56-53,75.966v48.305c0,0,44.523,5.934,53,44.067c6.644,29.896-8.476,44.484-8.476,44.484h251.871V403.335
			c0,0-73.907-76.896-154.415-76.896c-42.372,0-103.389,45.306-139.829,45.306c-28.027,0-39.32-3.06-89.829-31.119
			c-68.645-38.135-133.051,7.238-169.49,45.373C8.43,420.83,0.002,434.691,0.002,434.691z"/>
	</g>
</g>
</svg>
