<?xml version="1.0" encoding="utf-8"?>
<!-- Generator: Adobe Illustrator 16.0.0, SVG Export Plug-In . SVG Version: 6.00 Build 0)  -->
<!DOCTYPE svg PUBLIC "-//W3C//DTD SVG 1.1//EN" "http://www.w3.org/Graphics/SVG/1.1/DTD/svg11.dtd">
<svg version="1.1" id="Calque_1" xmlns="http://www.w3.org/2000/svg" xmlns:xlink="http://www.w3.org/1999/xlink" x="0px" y="0px"
	 width="595.3px" height="595.3px" viewBox="0 0 595.3 595.3" style="enable-background:new 0 0 595.3 595.3;" xml:space="preserve"
	>
<path id="tag020_1_" d="M485.7-0.7c0,0,25,43.2,40,92.2c0.5,1.6,1,3.2,1.4,4.8c-31.6,2.5-155.5,12.1-227.8,12.1
	c-67.5,0-187.4-8.3-230.6-11.5c18.6-54.5,46.9-97.6,46.9-97.6H0.1v595.1h162.6c0,0-65-186.9-86-241.9c-13.2-34.6-22.5-72.5-25-115.4
	c12.6,3.8,69,21,103.4,36.6c33.9,15.4,125,59.7,148.1,71c0.7,16.6,1.3,32.4,1.3,42.9c0,30.1-5.9,206.9-5.9,206.9h26.8
	c0,0-7.6-183.9-7.6-207.9c0-8.8,0.4-25.3,1-43c26.4-12.9,112.9-55,145.7-69.9c23.4-10.6,57-22,80-29.3c-1.2,11.2-3.1,22.6-5.8,34.2
	c-17,72-92,315.7-92,315.7h147.9v-595H485.7z M459.5,253.3c-53.6,19.8-119,62-140.3,76.2c0.7-21,1.5-51.3,1.9-60.6h20.4
	c7,0,4.5-5.5,4.5-5.5l-20-66c-1.7-5.5,8.5-1.1,8.5-20.5c0-19.4-16.5-22.5-25.2-22.5s-25.2,3.1-25.2,22.5c0,19.4,10.2,15,8.5,20.5
	l-20,66c0,0-2.5,5.5,4.5,5.5h22.6c0.6,9.5,1.8,40.3,2.9,62.1c-18.6-12.5-86.8-57.1-142.4-77.6c-57.2-21.1-99.7-30.6-109.1-32.5
	c-0.4-20.5,0.7-42.2,3.7-65.3c1.4-11.3,3.7-22.5,6.5-33.5c30.2,2.2,136.2,9.4,243.8,9.4c121.6,0,220.4-9.1,229-9.9
	c7.8,30.9,13.6,66.4,11.9,104.7C526.2,231.2,495.8,239.9,459.5,253.3z"/>
</svg>
