<?xml version="1.0" encoding="utf-8"?>
<!-- Generator: Adobe Illustrator 15.0.0, SVG Export Plug-In . SVG Version: 6.00 Build 0)  -->
<!DOCTYPE svg PUBLIC "-//W3C//DTD SVG 1.1//EN" "http://www.w3.org/Graphics/SVG/1.1/DTD/svg11.dtd">
<svg version="1.1" id="Calque_1" xmlns="http://www.w3.org/2000/svg" xmlns:xlink="http://www.w3.org/1999/xlink" x="0px" y="0px"
	 width="595.279px" height="595.281px" viewBox="0 0 595.279 595.281" enable-background="new 0 0 595.279 595.281"
	 xml:space="preserve">
<g>
	<g id="Calque_1_1_">
	</g>
	<path fill="#1D1D1B" d="M346.999,423.002c26.793-15.239,50.902-29.477,77.334-45.334c10-6,31.195-26.055,13.488-32.985
		c-13.676-5.352-46.154,21.651-57.488,28.318c-11.854,6.974-64.223,40.001-74.109,33.385c-0.207-0.138,42.207-30.299,74.777-60.718
		c27.5-25.684,44.998-49.333,35.666-58c-9.334-8.667-35.043,19.458-65.666,45.333c-32.607,27.551-65.207,52.515-69.369,48.577
		c-2.818-2.668,51.838-61.334,58.191-69.466c5.15-6.592,28.598-37.327,6.225-39.27c-16.629-1.443-22.547,16.658-47.047,44.158
		s-32.848,32.597-50.117,51.318c-19.576,21.224-22.938,4.76-12.136-15.224c8.794-16.271,16.576-33.14,24.646-49.776
		c5.16-10.636,2.836-35.786-14.5-21.138c-13.199,11.151-21.881,33.352-30.583,47.814c-19.161,31.846-37.153,64.045-59.738,93.702
		c-8.095,10.63-17.45,20.155-27.415,29.025c-19.119-53.845-15.796-103.882-5.657-135.222c11-34,33.366-61.56,72.833-100.5
		c50.001-49.333,96.002-64,96.002-64s-68.002,17.667-120.834,65.5c-49.037,44.396-57,77-61,73s-44.428-26.471-48-129
		c-2.681-76.96,59.73-138.087,89.114-162.5H0v595.28h232.664c-12.549-8.558-30.573-25.903-48.556-48.154
		c37.66-19.433,75.485-38.476,113.486-57.305c30.871-15.297,62.646-26.873,94.542-39.801c10.246-4.152,44.865-13.02,37.531-27.02
		s-40.578,4.976-48.666,7.999c-16.686,6.236-34.662,9.154-52.635,10.409C310.921,442.628,342.989,425.283,346.999,423.002z"/>
	<path d="M369.921,241.212l-15.416-32.93c-2.195-4.688-0.174-10.269,4.514-12.464c4.689-2.195,10.27-0.174,12.463,4.515
		c0.24,0.514,0.443,1.088,0.584,1.617l9.145,35.192c0.838,3.221-1.096,6.51-4.316,7.347
		C374.038,245.231,371.128,243.793,369.921,241.212z"/>
	<path d="M401.419,238.477l10.609-42.15c1.273-5.056,6.402-8.122,11.459-6.85c5.055,1.272,8.121,6.402,6.85,11.458
		c-0.119,0.469-0.293,0.97-0.475,1.403L412.79,242.31c-1.307,3.057-4.842,4.477-7.898,3.171
		C402.13,244.301,400.704,241.299,401.419,238.477z"/>
	<path d="M429.048,255.698l33.232-21.518c4.32-2.797,10.09-1.563,12.887,2.757c2.799,4.32,1.562,10.089-2.756,12.887
		c-0.426,0.276-0.914,0.532-1.365,0.73l-36.334,15.723c-3.053,1.321-6.598-0.083-7.918-3.134
		C425.608,260.403,426.62,257.267,429.048,255.698z"/>
</g>
</svg>
