<?xml version="1.0" encoding="utf-8"?>
<!-- Generator: Adobe Illustrator 16.0.0, SVG Export Plug-In . SVG Version: 6.00 Build 0)  -->
<!DOCTYPE svg PUBLIC "-//W3C//DTD SVG 1.1//EN" "http://www.w3.org/Graphics/SVG/1.1/DTD/svg11.dtd">
<svg version="1.1" id="Calque_1" xmlns="http://www.w3.org/2000/svg" xmlns:xlink="http://www.w3.org/1999/xlink" x="0px" y="0px"
	 width="595.3px" height="595.3px" viewBox="0 0 595.3 595.3" style="enable-background:new 0 0 595.3 595.3;" xml:space="preserve"
	>
<path d="M202.3,552.9c-10.5-7.5-19-16-19-25.5s9-21,12.5-23c-3-4.5-20.5-9.5-22-25.5s12-25.5,15.5-28.5c-10.5-5.5-26.7-9.8-16-40.5
	c-11-2-19-4-25-15s7-26.5,7-26.5c-16.5,0.5-21-1.5-30-10s0.5-24.7,0.5-24.7c-9,1.7-43.5,12.7-36.5-28.8c-18,11.5-46.5,6-49-15.5
	c-18.5,8-29.1,8.3-40.1-5v310.3h202.1c0,0-12-4.3-12-19.8S202.3,552.9,202.3,552.9z M45.4,113.8c11.9-21.1,42.3-35.7,64.1,0
	c13.9-20.5,34.4-31.1,50.9-4c10.6-13.2,32.4-35,50.9,8.6c15.2-21.1,39-41.6,63.4,0c11.2-21.8,33-35,47.6,0
	c13.2-23.8,23.1-33.7,48.9,0C377.1,99.2,382,94,392.1,94c10.1,0,23.3,6.6,28.6,21.1c8.6-13.9,12.6-20.5,23.8-20.5
	c11.2,0,20.5,1.3,29.7,23.8c9.2-20.5,31.7-29.5,42.3,0c7.3-21.8,22.5-23.5,29.8-23.2c13.3,0.7,16.8,7.7,25.7,23.2
	c6.1-8.1,13.3-17,23-16.9V-0.6H0.8v87.3C0.8,86.7,45.4,80.3,45.4,113.8z M161.6,323.2C110.6,267.3,0,250.8,0,250.8s0,2.5,0,12.5
	c68.2,11.8,157.6,49.4,196.6,140c33.1,76.9,31,191.6,31,191.6h15c0,0,0.9-22-5-82.6C230.5,439,212.6,379.2,161.6,323.2z
	 M392.3,143.3c56,0,202.8,0,202.8,0s0-2,0-12.6c-17.1,0.1-103.5-0.8-157.5-0.1S254.3,128,170.3,128S0.6,128,0.6,128s0,8,0,15.3
	c16.5-0.7,205.7-1.6,205.7-1.6C258.9,143.1,392.3,143.3,392.3,143.3z M582.8,297.6c-8.3,3.9-22.8,3.8-34-4.7
	c2.5,25.4-26,30.4-41.1,17.9c1.1,34.2-28,23.3-38.6,20.6c4.1,5.5,9.9,21.3-0.8,30.2c-10.7,8.9-20.6,2.7-31.2,0
	c0,0,15.2,18.9,6.6,30.9c-5.1,7.1-17.3,11.7-31.2,12.4c0,0,18.5,20.4,14,30.9c-4.9,11.3-7.4,15.8-26.3,22.7
	c25.5,18.1,23.7,36.1-7.5,46c23.3,17.5,17.2,35.7-5.9,41.2c0,0,19.8,11.7,19.8,27.5c0,15.8-17.3,21.8-17.3,21.8h205.8V287.4
	C594.9,290.3,587.9,295.2,582.8,297.6z M594.9,263.8v-13c0,0-129.9,11.1-178.3,81.2c-72,104-68,263-68,263h13
	c0,0,10.5-127.5,36-200.1C424.9,317,501,271.7,594.9,263.8z M337.6,316.6c5.2-11.4,19.8-16.3,21.1-29.7c5.3-23.7,13.4-75-27-52.6
	c-12.1,6.7-24.7,20.3-39,21.6c-14.5,1.3-25.1-11.1-37.5-16c-19.6-7.9-33.1,20.2-13.5,28c22,8.8-17.4,59,1,80
	c9.2,9.2,26.7,10.5,27.4,26.8c0.6,14.8-6.5,24.8,6.4,36.6c8.5,7.9,49.5,74.3,49.5,29.1c0-33.9,30.7-49.9,16-84.4
	C336.7,343.6,331.6,329.8,337.6,316.6z M293.4,466.3c2.4-10.4-8.8-11.2-15.1-19.9c-6.4-8.8-16.7,1.6-14.5,25.5
	c2.2,23.9,13.4,27.9,21.7,37.4c5.2,6,13.5-6.4,8.3-16.7C288.5,482.2,291,476.7,293.4,466.3z"/>
</svg>
