<?xml version="1.0" encoding="UTF-8" standalone="no"?>
<!-- Generator: Adobe Illustrator 16.0.0, SVG Export Plug-In . SVG Version: 6.00 Build 0)  -->

<svg
   xmlns:dc="http://purl.org/dc/elements/1.1/"
   xmlns:cc="http://creativecommons.org/ns#"
   xmlns:rdf="http://www.w3.org/1999/02/22-rdf-syntax-ns#"
   xmlns:svg="http://www.w3.org/2000/svg"
   xmlns="http://www.w3.org/2000/svg"
   xmlns:sodipodi="http://sodipodi.sourceforge.net/DTD/sodipodi-0.dtd"
   xmlns:inkscape="http://www.inkscape.org/namespaces/inkscape"
   version="1.1"
   id="Calque_1"
   x="0px"
   y="0px"
   width="595.28px"
   height="595.28px"
   viewBox="0 0 595.28 595.28"
   enable-background="new 0 0 595.28 595.28"
   xml:space="preserve"
   inkscape:version="0.91 r13725"
   sodipodi:docname="cunni.svg"><metadata
     id="metadata25"><rdf:RDF><cc:Work
         rdf:about=""><dc:format>image/svg+xml</dc:format><dc:type
           rdf:resource="http://purl.org/dc/dcmitype/StillImage" /></cc:Work></rdf:RDF></metadata><defs
     id="defs23" /><sodipodi:namedview
     pagecolor="#ffffff"
     bordercolor="#666666"
     borderopacity="1"
     objecttolerance="10"
     gridtolerance="10"
     guidetolerance="10"
     inkscape:pageopacity="0"
     inkscape:pageshadow="2"
     inkscape:window-width="1600"
     inkscape:window-height="871"
     id="namedview21"
     showgrid="false"
     inkscape:zoom="1.1213358"
     inkscape:cx="140.15069"
     inkscape:cy="246.70915"
     inkscape:window-x="0"
     inkscape:window-y="0"
     inkscape:window-maximized="1"
     inkscape:current-layer="Calque_1" /><path
     d="M 268.70703 317.93555 C 237.94503 317.93555 207.70703 345.24655 207.70703 378.93555 C 207.70703 412.62455 290.23203 520.94691 299.20703 515.75391 C 308.18203 520.94691 389.36503 413.47555 390.70703 378.93555 C 392.01603 345.27155 363.39603 317.93555 329.70703 317.93555 C 318.59203 317.93555 305.98003 326.03223 299.20703 326.11523 C 292.00603 326.20323 279.82203 317.93555 268.70703 317.93555 z M 299.20703 335.37109 C 347.62303 335.37109 299.20703 449.67378 299.20703 444.67578 C 295.44303 447.38278 250.79103 335.37109 299.20703 335.37109 z "
     id="path3" /><path
     d="M306.294,92.207c-0.037,16.273-1,75.088-1,75.088c0,3.914-2.172,8.086-6.086,8.086s-6.887-5.59-7.086-8.086  c-1.479-18.491-0.469-57.432,0-73.899c0.186-6.565-5.625-6.616-7.408-6.564c-54.693,1.61-89.836,13.514-108.873,21.489  c-3.891,1.63-9.689,3.718-6.949,9.131c20.09,39.681,43.826,66.253,63.141,90.932c23.283,29.749,54.615,46.049,67.176,46.049  c13.107,0,37.072-7.824,66.178-46.049c20.375-26.76,54.1-63.918,64.51-91.657c1.51-4.023-5.705-8.041-11.803-10.451  c-19.027-7.519-52.287-17.499-100.514-19.247C311.976,86.824,306.308,86.263,306.294,92.207z"
     id="path5" /><path
     d="M300.208,588.077c-8.02-1.779-13.43-3.941-18.605-9.281c-2.943-3.036-10.471-16.881-3.016-21.332  c11.84-7.069,17.559,10.677,22.621,10.613c1.867-0.023,3.635-2.714,7.576-8.378c6.377-9.167,18.686,0.225,17.395,6.592  C323.356,580.198,307.825,588.077,300.208,588.077z"
     id="path7" /><g
     id="g9"><path
       d="M229.921,536.466c-18.775-15.104-62.07-55.878-93.617-109.674c-22.59-38.523-28.881-76.682-14.252-103.627   c10.506-19.349,26.877-30.699,53.807-32.609c4.365-0.31,8.258,2.113,8.953,6.553c0.682,4.338-5.318,6.066-7.457,6.259   c-20.787,1.87-34.924,11.602-43,26.478c-12.197,22.468-5.447,58.423,13.844,89.563c31.922,51.53,75.078,93.881,91.494,106.979   c4.9,3.91,5.129,9.179,2.684,12.267C240.743,540.717,233.907,539.672,229.921,536.466z"
       id="path11" /><path
       d="M357.722,537.272c-1.766-1.388-5.012-6.053-1.23-8.903c14.078-10.616,61.109-54.808,94.727-108.961   c20.867-33.614,25.033-67.091,12.844-89.563c-9.188-16.937-23.16-26.329-42.076-26.39c-2.441-0.008-9.139-1.307-9.398-5.496   c-0.322-5.211,2.885-7.717,6.418-7.713c26.58,0.029,46.764,13.405,57.359,32.918c14.631,26.945,8.279,65.068-14.252,103.628   c-33.578,57.469-76.869,95.702-92.652,108.81C365.081,539.238,359.562,538.718,357.722,537.272z"
       id="path13" /></g><path
     d="M487.792,109.646c0,0-43.48-56.991-137.996-100.754c-30.414,8.385-45.674,20.873-50.588,20.873  c-4.438,0-20.172-12.488-50.588-20.873c-94.514,43.763-141.26,96.335-137.996,100.754c15.373,20.809,60.35,56.486,67.023,53.27  c2.238-1.079-19.268-30.593-27.322-50.206c-2.018-4.912,1.273-8.081,2.557-8.982c7.008-4.924,50.312-31.081,145.762-31.081  c97.705,0,143.969,29.892,145.891,31.164l5.113,3.385l-2.684,5.515c-8.865,18.215-30.648,49.421-27.764,50.922  c2.781,0,6.098-1.89,8.084-2.873C455.831,146.632,473.911,127.361,487.792,109.646z"
     id="path17" /><path
     d="M595.28,193.084c-3.622,4.596-16.771,20.759-27.941,27.892c-22.762,14.533-52.326,12.456-87.871,3.692  c-39.109-9.647-74.359-6.909-107.76,8.36c-28.586,13.07-48.9,36.525-68.783,53.935c-2.434,2.13-5.412,1.902-7.416,0.006  c-7.418-7.021-40.217-42.871-68.803-55.941c-33.402-15.271-68.652-19.007-107.758-9.359c-35.549,8.764-65.111,11.842-87.873-2.692  c-13.098-8.362-30.1-27.148-30.1-27.148s-2.195,16.438,0,21.285c9.074,20.041,40.436,35.501,80.521,35.499  c12.135-0.001,25.684-1.622,40.803-5.351c80.842-19.937,127.916,22.069,165.742,55.817c2.209,1.971,2.967,2.807,5.201,4.601  c3.805,3.054,7.928,3.283,11.99-0.021c0.811-0.659,3.734-3.325,5.139-4.577c37.828-33.75,84.908-75.758,165.744-55.819  c62.803,15.485,99.091-6.603,119.164-27.783V193.084z"
     id="path19" /></svg>