<?xml version="1.0" encoding="utf-8"?>
<!-- Generator: Adobe Illustrator 16.0.0, SVG Export Plug-In . SVG Version: 6.00 Build 0)  -->
<!DOCTYPE svg PUBLIC "-//W3C//DTD SVG 1.1//EN" "http://www.w3.org/Graphics/SVG/1.1/DTD/svg11.dtd">
<svg version="1.1" id="Calque_1" xmlns="http://www.w3.org/2000/svg" xmlns:xlink="http://www.w3.org/1999/xlink" x="0px" y="0px"
	 width="595.28px" height="595.28px" viewBox="0 0 595.28 595.28" enable-background="new 0 0 595.28 595.28" xml:space="preserve">
<path d="M0.225,0c0,0,61.119,27.732,124.227,67.625c42.969,27.162,91.922-10.729,122.618-19.535
	c32.536-9.335,72.022-7.915,102.442,0c32.079,8.347,79.809,48.733,129.486,15.376C545.797,18.612,595.502,0,595.502,0H0.225z"/>
<path d="M297.812,78.9c5.076,1.127,8.501,2.495,11.777,5.875c1.863,1.922,6.627,10.686,1.908,13.503
	c-7.494,4.475-11.113-6.759-14.318-6.718c-1.182,0.015-2.301,1.718-4.795,5.303c-4.037,5.803-11.828-0.143-11.011-4.173
	C283.16,83.888,292.991,78.9,297.812,78.9z"/>
<path d="M201.408,141.059c1.118,0.879,3.173,3.831,0.779,5.636c-8.911,6.72-37.47,31.251-58.959,68.969
	c-14.493,25.438-13.846,62.466-6.13,76.69c5.815,10.721,11.66,16.666,23.633,16.704c1.546,0.005,5.785,0.827,5.949,3.479
	c0.204,3.299-1.826,4.885-4.062,4.882c-16.824-0.018-32.6-8.484-39.307-20.836c-9.261-17.055-6.796-56.685,10.021-85.593
	c24.574-42.243,50.655-60.576,60.646-68.873C196.75,139.814,200.244,140.144,201.408,141.059z"/>
<path d="M116.752,588.544c39.47,8.026,75.355,3.911,108.757-11.359c27.978-12.792,59.18-27.889,68.279-35.437
	c2.291-1.553,4.681-0.94,6.736,0.495c8.444,5.898,40.217,22.871,68.803,35.941c33.401,15.271,69.155,18.709,108.757,11.359
	c58.806-10.913,116.974-83.159,116.974-83.159v88.896H-0.222v-79.896C-0.222,515.385,54.89,575.964,116.752,588.544z"/>
<circle cx="297.418" cy="438.038" r="64.111"/>
<path d="M330.611,334.743c-7.378,0-14.704-1.811-21.167-3.41c-4.385-1.084-8.525-2.107-11.058-2.107l-0.107,0.001
	c-2.271,0.026-6.281,0.999-10.526,2.028c-6.744,1.635-14.39,3.488-21.984,3.488c-38.186,0-65.901-30.387-65.901-72.255
	c0-98.27,73.45-142.774,95.751-142.774c0.916,0,1.787,0.072,2.609,0.216c0.735-0.118,1.509-0.179,2.316-0.179
	c11.865,0,36.221,13.21,56.441,35.316c18.515,20.241,40.584,55.309,40.584,107.421C397.569,302.33,367.531,334.743,330.611,334.743z
	 M298.387,317.397c4.338,0,9.33,1.235,14.616,2.542c5.643,1.395,12.036,2.977,17.608,2.977c28.744,0,55.131-28.762,55.131-60.428
	c0-88.34-80.514-132.277-87.552-132.277c-7.473,0-86.496,40.344-86.496,132.277c0,33.812,24.003,60.428,54.074,60.428
	c5.823,0,12.553-1.633,18.491-3.071c5.306-1.286,9.889-2.397,13.842-2.444L298.387,317.397z"/>
<path d="M298.718,300.969c-35.408,0-63.111-28.703-63.111-64.111c0-35.407,35.291-68.111,63.111-68.111
	c28.748,0,63.111,32.704,63.111,68.111C361.829,272.266,334.125,300.969,298.718,300.969z"/>
<path d="M396.027,141.059c-1.118,0.879-3.173,3.831-0.779,5.636c8.911,6.72,37.47,31.251,58.959,68.969
	c14.493,25.438,13.846,62.466,6.13,76.69c-5.815,10.721-11.66,16.666-23.633,16.704c-1.546,0.005-5.785,0.827-5.949,3.479
	c-0.204,3.299,1.826,4.885,4.062,4.882c16.824-0.018,32.6-8.484,39.307-20.836c9.261-17.055,6.796-56.685-10.021-85.593
	c-24.574-42.243-50.655-60.576-60.646-68.873C400.686,139.814,397.191,140.144,396.027,141.059z"/>
</svg>
