<?xml version="1.0" encoding="utf-8"?>
<!-- Generator: Adobe Illustrator 17.0.2, SVG Export Plug-In . SVG Version: 6.00 Build 0)  -->
<!DOCTYPE svg PUBLIC "-//W3C//DTD SVG 1.1//EN" "http://www.w3.org/Graphics/SVG/1.1/DTD/svg11.dtd">
<svg version="1.1" id="swimmingpool" xmlns="http://www.w3.org/2000/svg" xmlns:xlink="http://www.w3.org/1999/xlink" x="0px"
	 y="0px" width="595.28px" height="595.28px" viewBox="0 0 595.28 595.28" enable-background="new 0 0 595.28 595.28"
	 xml:space="preserve">
<g>
	<path d="M294.557,476.585c-7.5,0-43.417-63.5-144.417-63.5C74.64,413.085,0,472.333,0,472.333V595.28h595.28V466.585
		c0,0-57.14-50.5-155.14-50.5S302.057,476.585,294.557,476.585z"/>
	<path d="M339.139,183.222c-27-9.5-40.333-29.581-46.333-29.581s-24.166,28.499-55.735,38.06c0,0-3.514,8.769-3.514,21.436
		c0,12.666,15.496,23.669,15.496,41.669c0,18-13.58,26.667-13.58,48.667s17.58,44.667,17.58,62s-11.775,29.984-10.913,43.664
		c33.5,11.503,45.334,37.003,52.667,37.003s24.833-24.5,52.333-34c0-18.7-15.331-32.084-15.331-52.084s12.331-36.583,12.331-57.916
		s-13.749-35.334-13.749-48.001c0-12.667,13.748-28,13.748-42S339.139,183.222,339.139,183.222z"/>
	<path d="M0,0v140.195c0,0,59.14,48,140.14,48c112,0,144.583-66.083,152.083-66.083s46.917,56.583,149.917,56.583
		c112,0,153.14-51.579,153.14-51.579V0H0z"/>
</g>
</svg>
