<?xml version="1.0" encoding="utf-8"?>
<!-- Generator: Adobe Illustrator 15.0.0, SVG Export Plug-In . SVG Version: 6.00 Build 0)  -->
<!DOCTYPE svg PUBLIC "-//W3C//DTD SVG 1.1//EN" "http://www.w3.org/Graphics/SVG/1.1/DTD/svg11.dtd">
<svg version="1.1" id="Layer_1" xmlns="http://www.w3.org/2000/svg" xmlns:xlink="http://www.w3.org/1999/xlink" x="0px" y="0px"
	 width="595.28px" height="595.28px" viewBox="0 0 595.28 595.28" enable-background="new 0 0 595.28 595.28" xml:space="preserve">
<g>
	<path fill-rule="evenodd" clip-rule="evenodd" d="M595.28,395.6V595.28H296.92l-27.73-34.09
		c-35.02-7.671-66.83-25.801-90.17-57.631C101.33,397.58,91.15,296.4,145.46,231.9c49.35-58.61,104.04-42.5,166.1-26.78
		c-27.09-27.09-68.89-29.67-68.89-29.67c87.88-78.12,209.37,16.93,251.29,58.86c27.55,27.55,53.26,65.7,59.449,109.82L595.28,395.6z
		"/>
	<path fill-rule="evenodd" clip-rule="evenodd" d="M193.921,172.304c-27.073-30.281-53.781-34.362-90.197-29.423
		c-43.158,5.853-91.954-26.716-73.061-76.327C61.528-14.492,205.061,52.368,193.921,172.304z"/>
</g>
</svg>
