<?xml version="1.0" encoding="utf-8"?>
<!-- Generator: Adobe Illustrator 18.1.1, SVG Export Plug-In . SVG Version: 6.00 Build 0)  -->
<!DOCTYPE svg PUBLIC "-//W3C//DTD SVG 1.0//EN" "http://www.w3.org/TR/2001/REC-SVG-20010904/DTD/svg10.dtd">
<svg version="1.0" xmlns="http://www.w3.org/2000/svg" xmlns:xlink="http://www.w3.org/1999/xlink" x="0px" y="0px"
	 viewBox="0 0 595.3 595.3" enable-background="new 0 0 595.3 595.3" xml:space="preserve">
<g id="Calque_1" display="none">
	
		<image display="inline" overflow="visible" width="1616" height="1627" xlink:href="../scans/tag058 fellation.jpg"  transform="matrix(0.36 0 0 0.36 6.76 4.78)">
	</image>
</g>
<g id="Calque_2">
	<path d="M595.3,230.7c0,0-200.2,0-213.6,0c-23.9,0-104.9,51.9-104.9,80.2c0,28.3,74.9,77.3,104.9,77.3s213.6,0,213.6,0V230.7z"/>
	<path d="M380.5,189.5c25.5-19.5,39-34.5,27-47.9S376,99.5,376,99.5s-13,11.8-25.1,23.6c-18.2,17.8-55.9,27.4-90.4-8.6
		c-34.5-36-12.2-51-3.2-45c9,6,18.3,23.4,30.3,32.4c12,9,33.8,16.6,48.8,1.6c7.5-7.5,31.4-34.4,52-58C409.1,21.8,374.8,0,374.8,0H0
		v595.3h137.2c0,0,46.9-41.3,70.9-41.3c24,0,64.8,17.6,101.4,15c26.1-1.8,43.2-21.9,56.7-39.9c13.5-18,30.9-53.1,30.9-77.1
		c0-24-55.5-49.5-76.5-64.5c-21-15-63-43.5-64.5-75C254.6,281,355,209,380.5,189.5z M126.7,380.1c-20.4-10.4-86.4-46.2-84.9-76.9
		S68.3,247,85.5,237c15.6-9.1,25.4,7.5,16.7,21.8c-10.8,17.6-15.5,29.3-14.9,38.5c1.3,19.6,36.2,49.8,52.2,66.9
		C149.6,375.1,139.7,386.7,126.7,380.1z"/>
</g>
</svg>
