<?xml version="1.0" encoding="utf-8"?>
<!-- Generator: Adobe Illustrator 17.0.2, SVG Export Plug-In . SVG Version: 6.00 Build 0)  -->
<!DOCTYPE svg PUBLIC "-//W3C//DTD SVG 1.1//EN" "http://www.w3.org/Graphics/SVG/1.1/DTD/svg11.dtd">
<svg version="1.1" id="Calque_1" xmlns="http://www.w3.org/2000/svg" xmlns:xlink="http://www.w3.org/1999/xlink" x="0px" y="0px"
	 width="595.28px" height="595.28px" viewBox="0 0 595.28 595.28" enable-background="new 0 0 595.28 595.28" xml:space="preserve">
<g id="_x33_D">
</g>
<path d="M356.88,0c0,0,30.493,27.473,55.16,58.807c10.824,13.75,23.766,35.916,36.084,45.081
	c11.283,8.395,33.323,15.999,43.185,24.252c6.843,5.727-16.268,28.923-51.269,18.499c-39.731-11.833-70.981-50.999-76-47.165
	c-4.934,3.768,53.144,129.979,76.478,183.312c23.333,53.333,38.871,76.604,21.772,85.937c-18.194,9.93-34.215-18.565-54.15-55.916
	c-20.132-37.722-55.856-98.932-58.682-97.165c-5.333,3.333-2.27,43.662-32.084,43.832c-29.167,0.167-21.701-35.922-29.333-36.667
	c-6.833-0.667,1.4,39.68-33.358,38.787c-30.642-0.787-20.642-37.454-28.642-40.12c-4.63-1.543-18.558,41.866-31.319,83.523
	c-9.402,30.693-18.192,63.483-34.928,58.057c-15.154-4.913-8.571-31.165-1.071-62.665c11.012-46.249,20.633-97.98,20.648-107.211
	c0.021-13.371-9.33-42.371-8.664-99.037C171.373,37.475,184.04,0,184.04,0H0v471.14c0,0,44.14,41,127.14,41c152,0,154-83,162-83
	s18,83,166,83c94-3,140.14-47,140.14-47V0H356.88z"/>
</svg>
