<?xml version="1.0" encoding="utf-8"?>
<!-- Generator: Adobe Illustrator 15.0.0, SVG Export Plug-In . SVG Version: 6.00 Build 0)  -->
<!DOCTYPE svg PUBLIC "-//W3C//DTD SVG 1.1//EN" "http://www.w3.org/Graphics/SVG/1.1/DTD/svg11.dtd">
<svg version="1.1" id="Calque_1" xmlns="http://www.w3.org/2000/svg" xmlns:xlink="http://www.w3.org/1999/xlink" x="0px" y="0px"
	 width="595.279px" height="595.281px" viewBox="0 0 595.279 595.281" enable-background="new 0 0 595.279 595.281"
	 xml:space="preserve">
<g>
	<path fill="#1D1D1B" d="M298.333,425.668c0,0,26-48,2-48S298.333,425.668,298.333,425.668z"/>
	<path fill="#1D1D1B" d="M344.931,93.828c0,0,31.629-44.493,7.806-47.403C328.915,43.515,344.931,93.828,344.931,93.828z"/>
	<path fill="#1D1D1B" d="M369.654,218.313c0,0,45.121-30.725,23.796-41.733C372.123,165.571,369.654,218.313,369.654,218.313z"/>
	<path fill="#1D1D1B" d="M214.213,280.774c0,0-13.549-52.881-31.153-36.57C165.453,260.516,214.213,280.774,214.213,280.774z"/>
	<path fill="#1D1D1B" d="M295.23,358.08c0,0,8.172-53.975-14.404-45.832C258.249,320.392,295.23,358.08,295.23,358.08z"/>
	<path fill="#1D1D1B" d="M428.131,201.13c0,0,52.152-16.129,34.998-32.912C445.972,151.433,428.131,201.13,428.131,201.13z"/>
	<path fill="#1D1D1B" d="M243.536,157.788c0,0,2.661-54.525-18.974-44.137C202.927,124.04,243.536,157.788,243.536,157.788z"/>
	<path fill="#1D1D1B" d="M285.23,194.079c0,0,8.172-53.975-14.404-45.832C248.249,156.392,285.23,194.079,285.23,194.079z"/>
	<path fill="#1D1D1B" d="M321.129,308.206c0,0,45.682-55.33,13.65-61.047C302.746,241.442,321.129,308.206,321.129,308.206z"/>
	<path fill="#1D1D1B" d="M370.343,271.332c0,0,60.35-25.509,33.547-43.956C377.086,208.929,370.343,271.332,370.343,271.332z"/>
	<path fill="#1D1D1B" d="M291.44,281.741c0,0,30.222-66.592-2.221-64.091C256.778,220.153,291.44,281.741,291.44,281.741z"/>
	<path fill="#1D1D1B" d="M324.251,232.126c0,0,50.339-53.045,18.863-61.292C311.637,162.589,324.251,232.126,324.251,232.126z"/>
	<path fill="#1D1D1B" d="M255.684,233.055c0,0-2.516-65.139-29.187-46.499C199.828,205.194,255.684,233.055,255.684,233.055z"/>
	<path fill="#1D1D1B" d="M313.369,161.925c0,0,31.68-56.972-0.793-54.895C280.104,109.108,313.369,161.925,313.369,161.925z"/>
	<path fill="#1D1D1B" d="M260.259,300.22c0,0,2.736-58.091-23.056-42.176C211.41,273.96,260.259,300.22,260.259,300.22z"/>
	<path fill="#1D1D1B" d="M320.838,402.59c0,0,52.605-14.587,35.951-31.867C340.134,353.44,320.838,402.59,320.838,402.59z"/>
	<path fill="#1D1D1B" d="M185.65,189.009c0,0-20.249-50.696-35.605-32.254C134.686,175.2,185.65,189.009,185.65,189.009z"/>
	<path fill="#1D1D1B" d="M315.28,359.272c0,0,57.327-14.672,32.805-35.142C323.561,303.659,315.28,359.272,315.28,359.272z"/>
	<path fill="#1D1D1B" d="M366.674,315.622c0,0,49.353-9.832,29.447-28.342C376.215,268.77,366.674,315.622,366.674,315.622z"/>
	<path fill="#1D1D1B" d="M258.161,95.386c0,0,6.563-51.825-13.49-44.979C224.616,57.252,258.161,95.386,258.161,95.386z"/>
	<path fill="#1D1D1B" d="M357.031,160.651c0,0,38.781-32.068,12.479-38.92C343.205,114.88,357.031,160.651,357.031,160.651z"/>
	<path fill="#1D1D1B" d="M279.189,402.106c0,0-24.08-48.993-37.976-29.426C227.315,392.249,279.189,402.106,279.189,402.106z"/>
	<path fill="#1D1D1B" d="M262.671,348.946c0,0-30.895-53.833-44.79-34.266C203.983,334.249,262.671,348.946,262.671,348.946z"/>
	<path fill="#1D1D1B" d="M595.279,292.001c0,0-48.28-33-83.28-24s-121,116-141,133s-41,13-50,19
		c-7.404,4.937-15.344,28.914-23.339,29.124s-16.152-24.266-24.439-29.79c-9-6-30-2-50-19s-106-124-141-133
		c-31.962-8.219-74.991,18.583-82.222,23.299v198.47c22.573-7.276,46.008-25.768,49.222-25.768c4,0,38,58,60,84
		c18.157,21.459,43.116,40.183,57.657,47.945h103.08c20.893-8.711,25.673-26.398,27.041-26.276
		c1.411,0.125,8.562,18.22,30.614,26.276h97.935c14.201-7.105,40.521-26.503,59.451-48.874c22-26,56-84,60-84
		c3.264,0,27.388,19.08,50.281,26.105V292.014L595.279,292.001z"/>
</g>
</svg>
