<?xml version="1.0" encoding="utf-8"?>
<!-- Generator: Adobe Illustrator 15.0.0, SVG Export Plug-In . SVG Version: 6.00 Build 0)  -->
<!DOCTYPE svg PUBLIC "-//W3C//DTD SVG 1.1//EN" "http://www.w3.org/Graphics/SVG/1.1/DTD/svg11.dtd">
<svg version="1.1" id="Layer_1" xmlns="http://www.w3.org/2000/svg" xmlns:xlink="http://www.w3.org/1999/xlink" x="0px" y="0px"
	 width="595.28px" height="595.28px" viewBox="0 0 595.28 595.28" enable-background="new 0 0 595.28 595.28" xml:space="preserve">
<g>
	<path fill-rule="evenodd" clip-rule="evenodd" d="M431.89,461.445c0,96.71-133.939,75.38-133.939,27.38
		c0,48-133.95,69.33-133.95-27.38c0-50.62,41.48-64.95,79.06-72.39c25.08-4.961,42.37-24.551,54.891-47.23
		c12.51,22.68,29.8,42.27,54.88,47.23C390.41,396.495,431.89,410.825,431.89,461.445z"/>
	<path fill-rule="evenodd" clip-rule="evenodd" d="M310.765,167.811c-52.998-20.821-91.796-37.667-80.675-77.943
		c11.18-40.489,49.38-52.84,67.86-52.84c18.47,0,56.72,12.34,67.85,52.84c12.66,45.96-8.84,35.98-8.84,47.96v52
		c-6.96,28-26.886,88.666-59.01,124.199c-33.196-35.533-52.208-96.199-59.01-124.199v-40.923
		C238.94,148.905,268.7,172.203,310.765,167.811z"/>
	<path fill-rule="evenodd" clip-rule="evenodd" d="M595.539,539.325c-27.781-24.585-151.039-138-179.039-157.5
		s-52.96,4.526-80.46-22.974c-27.663-27.663-6.22-50.124,4.293-73.692C363.026,234.285,381.5,170.172,385,125.672
		s12.279-74.314,31.279-74.314S437,67.828,437,67.828s6.17-3.228,13.958,1.965c7.409,4.94,5.625,13.549,5.625,13.549
		s7.034-2.099,12.688,2.388c6.959,5.523,6.315,14.051,6.315,14.051s6.366,2.881,10.101,11.777
		c4.378,10.428-2.692,45.286-2.692,67.891c0,26.881,0.006,78.768,2.673,96.768s99.077,72.348,109.872,77.682
		C595.539,381.319,595.539,428.229,595.539,539.325z"/>
	<path fill-rule="evenodd" clip-rule="evenodd" d="M0.352,539.325c27.781-24.585,151.039-138,179.039-157.5
		s52.96,4.526,80.46-22.974c27.663-27.663,6.22-50.124-4.293-73.692c-22.693-50.875-41.167-114.987-44.667-159.487
		s-12.279-74.314-31.279-74.314s-20.721,16.469-20.721,16.469s-6.17-3.228-13.958,1.965c-7.409,4.94-5.625,13.549-5.625,13.549
		s-7.034-2.099-12.688,2.388c-6.959,5.523-6.315,14.051-6.315,14.051s-6.366,2.881-10.101,11.777
		c-4.378,10.428,2.692,45.286,2.692,67.891c0,26.881-0.006,78.768-2.673,96.768S11.146,348.563,0.352,353.897
		C0.352,381.319,0.352,428.229,0.352,539.325z"/>
</g>
</svg>
