<?xml version="1.0" encoding="utf-8"?>
<!-- Generator: Adobe Illustrator 16.0.0, SVG Export Plug-In . SVG Version: 6.00 Build 0)  -->
<!DOCTYPE svg PUBLIC "-//W3C//DTD SVG 1.1//EN" "http://www.w3.org/Graphics/SVG/1.1/DTD/svg11.dtd">
<svg version="1.1" id="Calque_3" xmlns="http://www.w3.org/2000/svg" xmlns:xlink="http://www.w3.org/1999/xlink" x="0px" y="0px"
	 width="595.279px" height="595.279px" viewBox="0 0 595.279 595.279" enable-background="new 0 0 595.279 595.279"
	 xml:space="preserve">
<g>
	<path d="M525.654,142.995c-15.641-25.361-30.94-29.896-45.122-36.613c-14.181-6.715-26.248-5.738-26.248-5.738
		s-19.215,3.647-35.089,1.847c-15.873-1.801-20.788-3.493-24.076-3.525c-3.288-0.032-15.957,6.418-15.957,6.418
		c-10.995,3.727-29.238,19.988-38.064,25.929c-8.825,5.94-19.383,20.632-19.383,20.632l-14.919,12.457l-12.635,3.164
		c-1.643-0.017-11.462-4.498-11.462-4.498l-10.357-5.582l-20.611-21.575l-30.415-27.699l-22.353-11.729
		c-5.393-8.82-51.923-13.662-51.923-13.662l-16.465,2.578l-26.451,15.083L90.31,111.852l-7.128,0.478l-4.987,5.43l-2.236,4.363
		l-9.954,9.218l-0.055,5.479l14.302-5.339l36.706,0.909c20.251,2.392,26.206,10.124,26.206,10.124l-31.771-1.41l-19.737,0.9
		l-20.907,8.563l-18.137,5.3l-1.718,7.655l7.139-1.575l14.822-2.593l22.472-0.328c17.588-5.307,19.182-0.358,19.182-0.358
		l-0.026,2.74l-14.875,8.073l-15.461,11.903c7.667,0.624,19.22-4.194,19.22-4.194l20.893-6.918l29.03,1.382
		c0,0,7.674-0.473,16.389,5.093c8.712,5.567,31.688,9.627,31.688,9.627l9.836,2.838l-2.229,3.813l-16.96-2.907l-14.208-3.976
		l-60.273-0.595l-25.199-0.796l-3.303,1.611l2.169,2.214c14.269-2.051,35.545,7.475,35.545,7.475l17.487,5.104l46.021,1.001
		l15.89,0.157l-0.569,2.187l-19.737,0.901l-19.199,2.003l-19.221,4.194l-26.871,1.927l-11.566,5.914c0,0-6.047,2.132-13.235,8.637
		c-7.189,6.505-8.372,15.262-11.181,22.358S72.94,261.83,72.94,261.83l-0.049,4.932L87.8,255.4l14.375-13.01l21.493-12.393
		l16.508-6.961l13.69,1.232l-20.41,13.5l-12.711,10.833l-6.172,14.736l-5.609,13.096l-2.843,10.383l12.732-13.025l6.141-11.448
		l16.024-13.542c0,0,9.938-7.573,28.622-12.869c18.684-5.297,16.008-11.897,26.994-14.529c10.988-2.633,18.209-12.424,18.209-12.424
		l-0.603,5.473l-6.196,16.927l-7.295,17.464l-8.575,36.083c0,0-10.606,19.622-18.879,25.02c-8.272,5.398-21.27,45.274-21.27,45.274
		l-6.177,15.283l-0.093,9.316l7.79-11.981l3.934-9.824l10.583-17.432c0,0,7.812-14.169,14.495-25.063
		c6.684-10.895,26.056-30.431,26.056-30.431l20.521-25.006l18.168-8.587l7.708-3.759l0.516,3.292l-20.993,17.33l-5.023,9.267
		l-7.285,16.367c0,0-6.771,19.662-13.422,27.268c-6.652,7.605-16.573,13.536-16.573,13.536l-12.7,9.739l-7.214,9.244l8.251-3.207
		l6.086-5.968l15.418-7.521c0,0,14.919-12.455,8.257-3.755c-6.662,8.703-10.53,11.952-10.53,11.952l-10.524,11.404l-14.923,13.003
		l-9.461,14.705l-1.219,12.59l-2.404,21.349c0,0,6.591-1.579,5.018-8.718c-1.573-7.14,10.62-21.266,12.318-26.729
		c1.698-5.464,16.057-16.831,16.057-16.831l8.838-7.037l1.075,2.204c-2.108,4.113-2.529,13.01-2.675,17.685
		c1.603-5.046,9.729-10.492,9.729-10.492l5.006-7.622l6.126-9.804l9.391-7.58l10.522-11.402l11.621-11.396
		c0.971,12.615-6.265,24.051-6.265,24.051c-7.823,15.266-7.161,3.766-16.67,23.397c-9.509,19.635-20.108,38.71-20.108,38.71
		l-5.674,19.672l5.859,17.047l2.063,13.171l4.919,1.146c0,0,1.754-10.942,1.962-32.314c0.212-21.368,9.668-35.523,9.668-35.523
		l23.927-37.027l2.165,2.761l-15.579,23.958l-10.617,20.718l-3.455,16.954l4.145,24.154l10.77,19.284l10.808,15.451l5.345,13.752
		l11.637-13.037l11.173-21.809l15.596-25.603l6.836-26.236l0.859-31.774l-0.906-19.189l-2.021-17.556l3.477-19.146
		c0,0-0.348-20.279-0.595-50.969l9.014,30.776l4.111,27.441l11.27,24.222l9.096,22.557l0.939,15.902l-1.786,14.229
		c0,0-7.862,19.103-10.626,21.814c-2.769,2.713-6.75,17.47-0.642,9.31c6.11-8.161,14.457-21.229,14.457-21.229l3.962-12.565
		l4.143-31.194l1.847,35.091l-14.083,38.769l-2.771,3.26l-13.389,23.979l-6.673,9.799l-13.849,15.206l-13.834,13.564
		c0,0-3.32,3.254-2.256,6.554c1.064,3.299,6,2.799,6,2.799l11.632-12.489l13.844-14.659l15.499-15.739l3.9-6.536l12.232-17.965
		l18.276-19.548l2.315-12.581l5.793-31.727l-3.098-19.21l-5.302-18.135l-9.146-17.079c0,0-18.278-35.799-9.083-23.652
		c9.196,12.146,24.887,32.576,24.887,32.576l-4.765-17.033c0,0-9.045-27.49-11.708-35.187c-2.665-7.699,1.795-15.327,1.795-15.327
		l4.61-22.97l3.292-0.515c0,0,3.084,20.854,2.965,32.908c-0.119,12.056,14.476,32.475,14.476,32.475l16.25,19.341l8.461,9.709
		c-0.398-0.317-0.926,0.233,2.829,12.321c4.779,15.39,7.33,34.597,7.33,34.597l1.366-27.387l-4.135-25.248l-22.652-36.939
		l22.712,30.911l4.79,14.294c-0.597,4.926,3.674,16.476,3.674,16.476l3.71,12.643l2.084,10.979
		c3.335-4.898,3.423-13.665,3.423-13.665l-8.416-35.704l-1.998-19.745l-9.05-26.942l-3.603-23.598l-4.13-25.797l-9.142-17.626
		l-8.048-17.615c0,0-7.091-3.358-16.275-16.601c-9.186-13.241-19.563-16.631-19.563-16.631l16.985,0.167l12.545,6.151l9.791,7.22
		l5.952,7.73l5.954,7.73l4.87,6.077l7.597,7.746l11.409,9.977l15.803,8.923l-8.644-12.689l-8.121-9.943l-3.202-8.799l-4.871-6.077
		l0.059-6.026l-9.232-8.312l-11.902-15.461l13.61,8.903l10.323,8.871l10.244,17.088l8.132,8.848l8.08,14.327l7.979,24.19
		l-2.475-26.875l-6.43-14.859l-13.505-19.862l-0.493-5.485l-6.521-5.543l-11.361-14.909l0.581-3.281l10.309,10.513l10.851,11.068
		l10.308,10.513c4.774,15.938,10.151,26.403,10.151,26.403l5.28,20.328l5.35,13.204l0.694-14.789l2.901-16.411l-2.566-17.561
		l-5.764-26.907l-9.179-13.791l8.152,6.656l8.638,13.238l6.903,22.534l3.467,37.298l-0.818,27.392l-11.212,25.644l-10.139,27.849
		l-0.722,17.527l-1.235,14.236l3.879-4.346l2.251-6.005l24.102-54.561l7.354-23.492l2.012-37.243l-6.733-39.522l-7.45-22.541
		c0,0-11.313-19.839-18.888-29.778c-7.572-9.938-19.044-13.888-19.044-13.888l22.468,0.222l18.499,13.333l9.68,18.727l6.282,29.654
		l5.032,45.533l2.464,27.971l4.905,2.789l1.201-66.296l11.758,30.255c0,0,0.36,19.185,3.599,24.148
		c3.812,5.841,8.132,8.848,8.132,8.848l-3.654,37.228l13.484-33.843l1.861-21.901l0.889-34.515
		C542.288,178.779,547.212,177.95,525.654,142.995z M180.757,108.909c0,0-32.282-4.977-39.143-3.949
		c-6.861,1.029-19.222,4.196-19.222,4.196l-16.472,3.125l-7.67-0.074l6.067-4.05l21.99-7.183l17.018-2.847
		c0,0,24.138-2.775,36.967,2.283c12.827,5.059,23.994,11.745,23.994,11.745L180.757,108.909z M233.698,186.148l-3.897,6.264
		l-7.747,7.595l-1.917-0.019L233.698,186.148z M260.913,204.775c-6.067,4.05-19.846,12.133-19.846,12.133l-11.343,11.123
		c0,0-8.648,15.807-10.863,17.977c-2.212,2.17-6.337,3.499-6.337,3.499l4.77-11.187l9.498-18.539c0,0,15.539-19.848,26.528-22.753
		l10.171-3.461l20.008-0.625C283.499,192.941,266.983,200.725,260.913,204.775z M538.399,239.842
		c-2.993-1.947-4.015-9.63-4.015-9.63l-1.27-10.149c0,0-1.511-13.439-3.595-24.42s-9.011-31.051-9.011-31.051l-2.642-9.891
		l-3.5-6.335l-5.118-8.819l7.057,6.919c6.241,6.09,14.016,23.428,14.016,23.428l6.366,21.159l2.777,24.141
		C539.465,215.193,541.395,241.789,538.399,239.842z"/>
	<path d="M201.637,380.918c0.186,2.035,0.176,0.745,0.259-2.014C201.68,379.588,201.578,380.264,201.637,380.918z"/>
</g>
</svg>
