<?xml version="1.0" encoding="utf-8"?>
<!-- Generator: Adobe Illustrator 16.0.0, SVG Export Plug-In . SVG Version: 6.00 Build 0)  -->
<!DOCTYPE svg PUBLIC "-//W3C//DTD SVG 1.1//EN" "http://www.w3.org/Graphics/SVG/1.1/DTD/svg11.dtd">
<svg version="1.1" id="Calque_3" xmlns="http://www.w3.org/2000/svg" xmlns:xlink="http://www.w3.org/1999/xlink" x="0px" y="0px"
	 width="595.28px" height="595.28px" viewBox="0 0 595.28 595.28" enable-background="new 0 0 595.28 595.28" xml:space="preserve">
<path d="M240.058,96.663l1.334-12l-1.334-15.333c0,0,11.334-8,17.334-4s-1.333,20,4,20.667s12.666,1.333,12.666,1.333
	s0.495,26.337,5.162,27.67s15.667,5.667,19-1s-5.593-21.181-2.5-29c1.857-4.697,2.163-12.164,16-11.333
	c3.826,0.229,2.5,8.833,2.5,8.833s11.837,0.164,15.837,1.497s12.666,13.333,12.666,13.333s6.001-18.667,15.334-18.667l5.333,1.333
	c0,0,3.333,8,8,9.333s10.667-6.667,10.667-6.667l13.333-2l14,31.333c0,0-0.001,3.333,3.333,2s12-16,12-16s11.334-4,16.667-3.333
	s10-7.333,10-7.333s15.999,9.333,23.333,15.333l0.667,30c0,0,20.001-4,28.667-8s11,4,13,8l-1,13.333c0,0,2.332,3.333,5.666,7.333
	c0,0-12.334,38-29,60l-8,6l6.667,14.667l-12,14c0,0-3.333,11.333,0.667,20l-5.334,12c0,0,0,10,0.667,12l-18.667-1.333l-17.333-10
	c0,0,3.667,28.666,5.667,36.666l-12.334,14.667l12,15.333l-6,14.667l-24.666-2c0,0-4.666-2.667-4,3.333s13.333,36.667,13.333,36.667
	s-0.667,11.334-6.667,16.667l-24.666-12.667l4,18.667c0,0,4.667,8-6,14s-20,15.333-20,15.333s-4,5.999,12,23.333l11.332,22.667
	l-13.334,12l-14.666-21.334c0,0-11.668,1.333-20.334-10l-13.666,30l-16,38.667l-16-7.333l0.666-5.334c0,0-1.332-5.333-10.666-5.333
	l-7.334-33.333c0,0-7.332-5.334-10.666-3.334s-6-8-6-8l-7.334,2.667l-20-8l-0.666-30.667l-2.667-18l-4,4.667
	c0,0-18.667-2.667-24-6.667l8.667-26l2-28.666l-11.334,3.333l-7.333,0.667l-1.333-31.334l-15.334,28l-7.333,1.334l-9.333-4.667
	l19.333-48.667l-22.667,24.667l-18-5.333c0,0,4-6.668,2-11.334s-13.333-8-13.333-8s-1.999-13.333,2.668-24
	s5.334-32.667,5.334-32.667l-18,20l-14.667-9.333l-1.333-24c0,0,2.666-32-2.667-29.333s-11.333,9.333-11.333,9.333l-4.667-5.333
	c0,0-15.999-34-23.999-76.667l6-6.667c0,0,6.667-2,2.667-10s-10-17.333-10-17.333s0.666-4.667,7.333-11.333s23.334,6,23.334,6l12,4
	l9.333-10l1.333-15.333c0,0-2.666-6,9.334-10s19.332,16,26.666,16.667L168.387,97c0,0,9.333-14,14.666-14s23.005,6.996,23.005,6.996
	l12.667,6h9.333"/>
</svg>
