<?xml version="1.0" encoding="utf-8"?>
<!-- Generator: Adobe Illustrator 16.0.0, SVG Export Plug-In . SVG Version: 6.00 Build 0)  -->
<!DOCTYPE svg PUBLIC "-//W3C//DTD SVG 1.1//EN" "http://www.w3.org/Graphics/SVG/1.1/DTD/svg11.dtd">
<svg version="1.1" id="Calque_3" xmlns="http://www.w3.org/2000/svg" xmlns:xlink="http://www.w3.org/1999/xlink" x="0px" y="0px"
	 width="595.279px" height="595.279px" viewBox="0 0 595.279 595.279" enable-background="new 0 0 595.279 595.279"
	 xml:space="preserve">
<path d="M503.943,133.801l4.108,2.739c0,0,8.561,12.327,13.012,17.12c4.45,4.794,11.982,29.447,13.695,36.979
	c1.712,7.532,0.343,16.435,0.343,16.435l-1.027,17.804l-1.027,9.245l-4.108,12.326l-6.163,21.229l-8.561,24.652l-4.109,14.724
	c0,0-5.821,22.941-6.163,29.788l-2.055,0.343L500.86,325.2l-1.027-17.463l-0.342-10.271c0,0,11.3-36.979,14.038-49.305
	c2.739-12.326,2.398-29.104,2.398-29.104l-0.685-14.723l-1.369-14.725l-2.397-18.832l-4.793-11.984l-3.767-8.903L503.943,133.801z"
	/>
<path d="M460.802,238.918h3.768l6.163,3.423c0,0,4.442,2.909,7.19,4.794l3.423,7.875l2.396,11.641v21.571
	c0,0-1.711,12.328-3.424,19.86c-1.712,7.532-6.505,18.146-6.505,18.146l-3.081,10.957l-3.767,10.271l-1.027,4.794l-1.027,4.108
	l-2.055,0.685l-1.369-10.614l0.685-15.75l3.424-20.201c0,0,6.163-27.05,5.137-29.447v-14.38l-3.082-11.641
	C467.651,255.01,459.433,240.972,460.802,238.918z"/>
<path d="M449.075,152.118c0,0,16.435-1.284,19.517-3.595c3.081-2.311,6.933,7.19,6.933,7.19l3.339,5.393l7.704,12.583l6.677,16.949
	c0,0,6.934,16.948,7.96,39.033c1.027,22.084,1.798,16.948,2.312,18.232l-2.312,1.284l-4.622-6.42c0,0-2.054-12.326-4.622-15.665
	s-11.042-22.341-11.042-22.341s-5.394-16.691-9.245-22.598c-1.969-3.019-12.069-18.232-12.069-18.232L449.075,152.118z"/>
<path d="M372.293,141.59l-7.447-7.447l-0.257-3.338l4.879-3.081l16.179-6.677c0,0,24.652-10.786,39.546-9.245
	c14.895,1.541,36.209,7.704,43.656,12.327l11.812,9.501l12.326,12.069l5.649,6.677c0,0,3.081,7.447,3.081,9.245
	c0,1.797-9.758-6.934-9.758-6.934s-12.069-13.354-23.625-16.949c-11.557-3.595-31.843-8.217-31.843-8.217l-20.801,0.514
	c0,0-16.691,0.77-25.166,5.393C385.413,138.214,372.293,141.59,372.293,141.59z"/>
<path d="M312.202,163.931l-5.393-12.84l2.825-6.163c0,0,19.26-17.462,27.22-20.287c7.961-2.825,29.019-17.462,31.586-18.746
	c2.568-1.284,9.759-5.393,9.759-5.393s23.368-10.015,29.274-9.501s24.396,0.257,24.396,0.257l7.704,5.649v2.825h-1.798
	c0,0-3.338-1.541-5.136-2.054c-1.501-0.429-15.664,0-20.544,1.541c-1.765,0.558-30.559,15.408-32.869,17.976
	c-2.312,2.568-36.979,21.571-36.979,21.571L324.785,155.2C324.785,155.2,317.081,161.62,312.202,163.931z"/>
<path d="M332.49,168.553l6.163,13.097l12.326-4.366l14.381-7.19l21.827-9.245c0,0,20.287-5.906,22.599-4.879
	c2.311,1.027,30.815,1.797,38.776,11.556l4.622,3.338l1.541-1.541l-6.163-6.677l-8.218-10.785l-19.003-9.245l-18.489-3.082
	C402.852,139.535,369.468,140.819,332.49,168.553z"/>
<path d="M371.78,173.176l-0.771,13.097v3.338l13.867,0.514c0,0,18.746-2.311,26.193-2.568c7.446-0.257,20.286,3.852,20.286,3.852
	l8.218,3.595l5.649,2.825l9.245,11.299c0,0,9.244,14.894,13.097,19.26c3.852,4.365,8.987,10.785,8.987,10.785l10.016,11.299
	l2.567-1.027l-3.852-5.136l-4.622-6.42c0,0-18.746-32.1-20.544-39.29c-1.798-7.19-11.299-18.232-18.746-23.368
	c-7.447-5.136-24.139-8.475-24.139-8.475l-27.478,0.771L371.78,173.176z"/>
<path d="M396.175,204.761l1.541-2.568l13.61-5.393l6.163-0.257c0,0,12.84,13.867,15.407,15.665
	c2.568,1.797,15.922,16.178,21.828,39.547l4.879,25.679l-0.257,20.801c0,0-5.645,21.425-11.299,39.547
	c-5.649,18.104-5.136,16.435-5.136,16.435l-0.771-14.124c0,0,5.136-13.354,4.365-20.286c-0.771-6.934,3.596-32.87-2.824-43.399
	s-21.314-34.667-21.314-34.667l-9.502-17.719L396.175,204.761z"/>
<path d="M399.428,432.282l-5.393,4.622l-1.798-3.081l4.366-4.88l5.649-6.419c0,0,5.372-6.941,6.677-10.015
	c1.885-4.446,3.852-18.489,6.677-22.598c2.824-4.109,7.446-33.641,7.446-33.641l12.07-4.365l2.824,0.77l-1.798,10.272
	c0,0-2.311,5.906-4.365,15.921c-2.055,10.016-2.055,21.314-13.867,35.695l-7.961,6.934"/>
<path d="M406.19,315.698l8.218,3.082l4.879,3.852l4.88,1.798l1.026,6.42l-4.365,9.501l-13.61,23.626l-5.393,12.583l-4.108,24.652
	c0,0-1.027,6.42-0.257,10.271c0.771,3.853-1.798,7.961-2.568,10.016l-1.798-1.284l-1.283-8.988c0,0-5.906-25.68-2.825-41.087
	c3.082-15.408,11.556-25.937,12.326-30.56C402.081,334.957,407.474,322.888,406.19,315.698z"/>
<path d="M320.421,193.377c0,0-2.74,10.272-5.479,15.066c0,0,26.364,2.396,36.979,6.163c10.614,3.767,25.681,9.245,40.403,36.979
	c14.723,27.734,7.874,26.022,13.01,35.952c0,0,0,7.532,21.571,26.365l-4.451-15.75c0,0-16.093-29.447-17.12-36.294
	s-10.612-46.223-20.2-56.153C375.546,195.775,356.716,190.981,320.421,193.377z"/>
<path d="M328.639,224.534l17.462-2.739c0,0,13.695,11.299,17.462,15.065s20.543,30.13,22.94,38.691s6.163,59.235,6.163,59.235
	s-2.738,4.451-3.766-4.109s-5.822-48.963-17.806-56.153C359.113,267.334,328.639,224.534,328.639,224.534z"/>
<path d="M298.507,211.523l18.831,5.136c0,0-0.943,16.413,1.027,23.967c2.055,7.875,10.711,14.065,20.887,25.68
	c15.917,18.167,32.226,28.306,27.734,55.81l-0.686,3.082c0,0-7.875-25.338-25.337-31.843c-17.463-6.505-41.753-29.252-43.826-46.908
	C296.118,237.769,298.507,211.523,298.507,211.523z"/>
<path d="M355.687,370.74l7.874-16.093c0,0,10.271,8.218,14.039,25.68c3.767,17.462,1.026,34.582,1.026,34.582
	s-1.712,11.643,4.109,30.815c0,0-15.407-18.831-15.75-25.68c-0.343-6.848,3.08-21.57-0.343-28.761
	C363.219,384.094,355.687,370.74,355.687,370.74z"/>
<path d="M318.694,312.588c0,0,4.968-13.022,5.273-16.164c0.306-3.141,24.065,19.143,25.15,25.218
	c1.085,6.076,6.672,26.435,0.455,46.163c-6.217,19.73-2.915,38.3-6.912,39.478c0,0-2.726-25.191-6.848-39.178
	c-1.796-6.096,2.561-21.14-0.797-31.981C330.67,322.089,318.694,312.588,318.694,312.588z"/>
<path d="M318.366,415.595l12.669-10.272c0,0,6.847,13.011,7.189,23.626c0.344,10.614-7.875,28.761-13.353,38.69
	c-5.479,9.93-11.983,24.994-17.119,35.267l-1.713,1.028l1.027-8.902c0,0,14.037-32.527,11.641-43.484
	C316.313,440.59,317.339,417.99,318.366,415.595z"/>
<path d="M309.124,363.209l10.271-12.669c0,0,4.108,16.093,3.082,23.283c-1.027,7.189-12.327,33.212-14.039,42.456
	c-1.711,9.245-3.767,25.338-3.081,27.393c0.685,2.054-4.108,3.08-3.766,0.342c0.342-2.738-2.741-26.364-2.397-29.104
	c0.343-2.739,7.533-22.256,7.875-28.419S309.124,363.209,309.124,363.209z"/>
<path d="M284.956,423.197c0,0,2.266-18.724-9.885-0.997l-1.934,3.303l1.626,16.923c0,0,2.116,35.483,13.402,61.965l2.257,2.208
	l2.29-19.066c0,0,1.078-17.933-0.15-23.687C290.408,453.749,281.867,438.776,284.956,423.197z"/>
<path d="M301.933,300.55c0,0-9.93,17.121-11.299,17.463s7.534,7.531-7.532,57.18l-1.37,11.642c0,0,1.37,16.436,4.793,21.913
	l1.37,0.686c0,0,3.766-20.887,9.245-34.24c5.479-13.354,10.271-28.761,10.271-35.608C307.41,332.736,312.546,305.345,301.933,300.55
	z"/>
<path d="M288.237,252.615c0,0,7.533,6.163,10.272,19.174c2.739,13.012-4.452,15.408-8.902,22.255c0,0-16.092,20.885-19.859,41.773
	c-3.767,20.887-3.767,34.582-6.163,39.718l-2.396,6.849c0,0,1.369-13.697-0.685-15.751c-2.054-2.055-6.505-31.5-3.424-44.512
	c3.082-13.011,21.912-36.979,23.282-44.168C281.732,270.762,283.443,251.931,288.237,252.615z"/>
<path d="M250.574,399.159l14.723-13.01h2.397l-2.74,30.472c0,0-8.56,11.3-7.19,28.42c1.369,17.12,5.136,31.157,5.136,40.06
	l-1.712,4.451l-2.738-4.451c0,0-13.697-33.212-14.039-48.619C244.069,421.073,250.574,410.115,250.574,399.159z"/>
<path d="M241.33,352.252l2.738-1.711c0,0,7.534,5.82,8.561,11.299c1.027,5.478-6.847,17.12-13.354,30.815
	c-6.506,13.695-11.642,18.489-7.533,42.457c0,0,2.397,14.723,0.685,20.543c-1.712,5.821-5.478,0-5.478,0l-11.642-28.761
	C215.307,426.895,203.667,414.91,241.33,352.252z"/>
<path d="M303.989,192.694l3.424,0.342c0,0,4.451-11.984,3.424-18.147s-10.956-12.326-24.995-29.446s-54.098-49.305-87.311-44.854
	l1.711,2.054c0,0,20.887,2.738,39.718,18.832c18.832,16.093,38.006,33.212,45.196,46.565
	C292.347,181.393,300.221,193.378,303.989,192.694z"/>
<path d="M168.742,197.488c0,0,27.735-12.668,48.963-25.68c21.228-13.011,61.972,10.957,70.533,17.462l-3.423,12.668
	c0,0-2.74,6.505-7.875,0c-5.136-6.505-36.294-25.68-44.169-20.886S197.504,198.515,168.742,197.488z"/>
<path d="M273.859,220.086l10.615,9.93c0,0,3.766,4.109-1.37,11.641s-24.31,23.625-33.212,35.952
	c-8.903,12.326-21.57,25.338-27.049,38.691c0,0-7.19,11.3-17.462,17.805c0,0-12.327,5.136-3.425-1.712
	c8.903-6.849,14.382-23.968,15.751-34.239c1.369-10.272,16.777-28.762,29.104-37.664
	C259.136,251.587,266.325,226.593,273.859,220.086z"/>
<path d="M248.585,292.522l6.659,10.624c0,0,3.281,2.91-4.491,14.172c-7.771,11.261-24.202,30.996-25.251,38.143
	c-1.048,7.146-3.616,30.67-17.289,43.348c0,0-1.165,2.681-4.259,2.868c-3.096,0.186,7.626-21.896,7.475-45.903
	C211.28,331.767,235.4,315.849,248.585,292.522z"/>
<path d="M195.449,341.638c0,0,13.696-2.739,9.588,14.723l-10.272,24.995l-5.136,19.517c0,0-10.958,30.472-18.832,32.869h-1.711
	c0,0,11.095-25.88,11.983-38.006c1.027-14.037,3.082-20.886,3.082-20.886l2.74-10.957
	C186.89,363.893,188.943,346.432,195.449,341.638z"/>
<path d="M221.747,242.467c0,0,2.61-11.597,10.737-6.654l7.121,3.898l-2.641,13.307c0,0-10.566,15.901-21.068,28.379
	c-10.503,12.478-13.722,19.954-17.276,27.081c-3.555,7.127-12.359,20.319-12.359,20.319l-29.22,24.804l-4.817,1.282
	c0,0,22.767-27.663,24.312-37.223c1.544-9.562,1.016-23.401,22.802-48.211C207.03,260.688,209.368,263.813,221.747,242.467z"/>
<path d="M161.206,291.307l9.93,9.931l-12.326,14.38c0,0-10.271,4.45-15.75,17.119s-14.724,28.418-19.859,29.788l-3.082-1.027
	l5.821-28.761C125.94,332.737,132.445,305.688,161.206,291.307z"/>
<path d="M255.708,204.68l1.369,17.462l-26.707,3.082l-27.734,18.147l-15.408,17.462c0,0-14.723,17.462-20.543,17.462
	c-5.821,0,10.615-11.984,16.093-26.707s22.255-28.761,22.255-28.761l16.778-12.668L255.708,204.68z"/>
<path d="M166.685,240.632l6.505,8.56c0,0-1.37,4.793-10.271,13.011c-8.902,8.217-15.065,20.886-24.995,29.103
	c-9.93,8.218-26.022,13.695-26.022,13.695s19.174-17.462,26.022-26.707S151.278,248.849,166.685,240.632z"/>
<path d="M200.24,203.653l1.027,9.93c0,0-2.397,6.164-8.902,7.875c-6.505,1.712-30.473,6.163-36.294,14.723
	c-5.821,8.56-27.734,21.571-41.772,22.598l-1.369-2.054c0,0,20.202-14.723,25.68-25.68S183.463,206.051,200.24,203.653z"/>
<path d="M160.522,198.175c0,0,2.053,8.218-3.767,12.668c-5.82,4.451-34.924,4.109-46.223,14.723s-17.119,26.365-22.94,26.707
	l-3.082,0.342c0,0,7.875-18.832,8.903-25.337c1.027-6.506,14.038-18.489,26.364-22.598S160.522,198.175,160.522,198.175z"/>
<path d="M221.809,150.926c0,0-2.396,1.712-3.424,11.984l-14.38,2.054c0,0-29.447,12.668-71.561,32.528c0,0-1.711,2.396-7.533,1.027
	l-1.37-2.74c0,0,17.805-10.271,28.419-20.543C162.574,164.964,184.145,146.475,221.809,150.926z"/>
<path d="M129.02,170.784l8.902,4.108c0,0-4.108,8.903-21.228,17.12c-17.12,8.218-31.5,17.462-36.637,22.598
	c-5.136,5.136-23.967,28.076-24.995,34.239l-2.739,1.027c0,0-0.685-23.967,14.723-41.43c15.408-17.462,39.718-24.311,39.718-24.311
	L129.02,170.784z"/>
<path d="M239.612,153.323c0,0,12.327-1.712,12.669-3.767c0.342-2.054-1.712-7.532-1.712-7.532s-4.17-0.956-5.478-1.37
	c-9.379-2.962-24.917-15.84-33.555-20.543c-11.308-6.158-34.582-13.354-49.647-13.695c-15.066-0.342-47.936,14.039-47.936,14.039
	l9.93,2.396c0,0,23.968-8.217,47.25,0.686C194.415,132.438,239.612,153.323,239.612,153.323z"/>
<path d="M181.405,139.627l0.684,7.532c0,0-4.109,3.767-9.587,3.767s-14.382-0.342-81.833,31.158l-4.451,0.685v-3.082
	c0,0,16.435-11.641,23.625-18.489C117.034,154.349,152.302,132.094,181.405,139.627z"/>
<path d="M137.578,127.643l-0.342,3.767c0,0-3.767,5.136-6.163,8.903c0,0-15.75,4.109-23.967,10.272
	c-8.217,6.163-28.762,21.571-36.294,27.392l-3.082,0.342c0,0-2.739-1.027,2.397-4.109c5.136-3.082,19.517-28.419,23.967-31.5
	S119.43,125.589,137.578,127.643z"/>
</svg>
