<?xml version="1.0" encoding="utf-8"?>
<!-- Generator: Adobe Illustrator 15.0.0, SVG Export Plug-In . SVG Version: 6.00 Build 0)  -->
<!DOCTYPE svg PUBLIC "-//W3C//DTD SVG 1.1//EN" "http://www.w3.org/Graphics/SVG/1.1/DTD/svg11.dtd">
<svg version="1.1" id="Layer_1" xmlns="http://www.w3.org/2000/svg" xmlns:xlink="http://www.w3.org/1999/xlink" x="0px" y="0px"
	 width="595.28px" height="595.28px" viewBox="0 0 595.28 595.28" enable-background="new 0 0 595.28 595.28" xml:space="preserve">
<g>
	<defs>
		<rect id="SVGID_1_" width="595.28" height="595.28"/>
	</defs>
	<clipPath id="SVGID_2_">
		<use xlink:href="#SVGID_1_"  overflow="visible"/>
	</clipPath>
	<path clip-path="url(#SVGID_2_)" d="M367.948,0c-100.495,40.987-167.665,112.357-194.99,210.727
		c-7.5,26.998-5.034,46.802-32.999,59.997c-19.667,9.28-57.626,34.276-76.496,58.415c-11.276,14.425,4.428,14.872,14.999,9
		c26.999-14.999,82.335-40.499,145.289-40.499c70.546,0,112.069,26.556,144.197,43.309c15.047,7.846,20.999,3,10.499-11.999
		c-10.499-15-48.944-41.654-68.894-51.645C277,261,264,260,277.953,220.978c7.507-20.996,56.997-104.994,157.492-104.994
		c20.999,0,58.497,4.499,58.497,4.499c-26.999,70.497,16.499,146.993,101.338,131.994V0H367.948z"/>
	<path clip-path="url(#SVGID_2_)" d="M477.525,129.176c-31.025,78.324,15.103,142.8,117.755,142.8v41.999
		c-110.338,37.498-243.06-58.656-139.564-185.139L477.525,129.176z"/>
	<path clip-path="url(#SVGID_2_)" d="M294.667,440.194c-18.5,35.248-21.505,70.496,0.994,70.496"/>
	<path clip-path="url(#SVGID_2_)" d="M294.667,440.194c18.5,35.248,21.505,70.496-0.994,70.496"/>
	<path clip-path="url(#SVGID_2_)" d="M222.456,464.71c-24.133,45.981-28.053,91.962,1.296,91.962"/>
	<path clip-path="url(#SVGID_2_)" d="M222.456,464.71c24.133,45.981,28.053,91.962-1.296,91.962"/>
	<path clip-path="url(#SVGID_2_)" d="M150.456,440.194c-18.5,35.248-21.505,70.496,0.994,70.496"/>
	<path clip-path="url(#SVGID_2_)" d="M150.456,440.194c18.5,35.248,21.505,70.496-0.994,70.496"/>
	<path clip-path="url(#SVGID_2_)" d="M366.498,359.494c-53-31.672-93.781-41.994-144.043-41.994
		c-50.262,0-91.043,10.322-144.043,41.994c-4.624,2.763-5.225,9.208-1.229,12.82c56.728,51.282,120.979,52.653,145.272,52.653
		c24.293,0,88.544-1.371,145.272-52.653C371.724,368.702,371.122,362.257,366.498,359.494 M114.891,371.667
		c-9.757,0-17.667-3.134-17.667-7s7.91-7,17.667-7c9.757,0,17.667,3.134,17.667,7S124.648,371.667,114.891,371.667 M148.492,395.051
		c-8.468,0-15.333-2.72-15.333-6.075s6.865-6.075,15.333-6.075c8.468,0,15.333,2.72,15.333,6.075S156.96,395.051,148.492,395.051
		 M169.115,351.666c-9.757,0-17.666-3.134-17.666-7s7.909-7,17.666-7s17.667,3.134,17.667,7S178.872,351.666,169.115,351.666
		 M203.035,412.007c-8.468,0-15.333-2.72-15.333-6.076c0-3.354,6.865-6.074,15.333-6.074c8.468,0,15.333,2.72,15.333,6.074
		C218.368,409.287,211.503,412.007,203.035,412.007 M203.255,381.668c-9.757,0-17.666-3.134-17.666-7s7.909-7,17.666-7
		s17.667,3.134,17.667,7S213.012,381.668,203.255,381.668 M213.252,342.751c0-3.866,7.909-7,17.666-7c9.757,0,17.667,3.134,17.667,7
		s-7.91,7-17.667,7C221.161,349.751,213.252,346.617,213.252,342.751 M259.333,408.766c-8.468,0-15.333-2.72-15.333-6.075
		s6.865-6.075,15.333-6.075c8.468,0,15.333,2.72,15.333,6.075S267.801,408.766,259.333,408.766 M259.333,382.333
		c-9.757,0-17.667-3.133-17.667-7c0-3.865,7.91-7,17.667-7c9.757,0,17.667,3.135,17.667,7C277,379.2,269.09,382.333,259.333,382.333
		 M277,348.333c0-3.865,7.909-7,17.666-7c9.756,0,17.667,3.135,17.667,7c0,3.867-7.91,7-17.667,7
		C284.909,355.333,277,352.2,277,348.333 M312.333,388.409c-8.468,0-15.333-2.72-15.333-6.076c0-3.354,6.865-6.075,15.333-6.075
		c8.469,0,15.333,2.721,15.333,6.075C327.666,385.689,320.802,388.409,312.333,388.409"/>
</g>
</svg>
