<?xml version="1.0" encoding="utf-8"?>
<!-- Generator: Adobe Illustrator 15.0.0, SVG Export Plug-In . SVG Version: 6.00 Build 0)  -->
<!DOCTYPE svg PUBLIC "-//W3C//DTD SVG 1.1//EN" "http://www.w3.org/Graphics/SVG/1.1/DTD/svg11.dtd">
<svg version="1.1" id="Calque_1" xmlns="http://www.w3.org/2000/svg" xmlns:xlink="http://www.w3.org/1999/xlink" x="0px" y="0px"
	 width="595.28px" height="595.28px" viewBox="0 0 595.28 595.28" enable-background="new 0 0 595.28 595.28" xml:space="preserve">
<g>
	<polygon points="278.906,141.866 276.675,265.73 237.617,262.383 235.386,301.439 273.776,300.377 273.776,363.367 316.927,367.83 
		319.902,302.36 355.117,302.856 356.109,264.667 319.902,264.667 325.854,143.15 	"/>
	<path d="M333.308,122.393c-6.649,0-12.319-5.076-12.932-11.827c-0.648-7.15,4.623-13.472,11.773-14.121
		c9.688-0.878,19.454-2.238,29.025-4.041c7.064-1.329,13.853,3.313,15.182,10.369s-3.313,13.853-10.369,15.182
		c-10.384,1.956-20.979,3.431-31.49,4.384C334.099,122.375,333.701,122.393,333.308,122.393z M272.295,122.071
		c-0.453,0-0.91-0.023-1.37-0.072l1.354-12.929l-1.398,12.925c-10.538-1.066-21.061-2.634-31.339-4.667
		c-7.043-1.393-11.624-8.232-10.23-15.275c1.393-7.043,8.232-11.627,15.275-10.23c9.479,1.875,19.184,3.321,28.847,4.298l0.2,0.021
		c7.141,0.748,12.323,7.143,11.575,14.284C284.509,117.104,278.867,122.071,272.295,122.071z M422.225,101.259
		c-5.187,0-10.086-3.125-12.101-8.242c-2.63-6.681,0.654-14.229,7.336-16.858c9.047-3.561,18.062-7.599,26.793-12.002
		c6.412-3.233,14.229-0.655,17.461,5.755c3.233,6.411,0.656,14.228-5.754,17.461c-9.442,4.761-19.191,9.127-28.979,12.979
		C425.419,100.967,423.808,101.259,422.225,101.259z M183.598,100.067c-1.633,0-3.294-0.31-4.9-0.964
		c-9.763-3.977-19.465-8.479-28.837-13.38c-6.362-3.328-8.822-11.183-5.495-17.544c3.327-6.362,11.184-8.822,17.544-5.495
		c8.645,4.521,17.592,8.673,26.596,12.34c6.649,2.708,9.844,10.294,7.135,16.944C193.587,97.011,188.727,100.067,183.598,100.067z
		 M501.942,56.486c-3.941,0-7.835-1.785-10.391-5.175c-4.322-5.733-3.178-13.884,2.555-18.207
		c7.783-5.868,15.424-12.168,22.709-18.726c5.336-4.803,13.555-4.372,18.359,0.965c4.804,5.336,4.371,13.556-0.965,18.359
		c-7.843,7.06-16.069,13.843-24.451,20.163C507.415,55.632,504.667,56.486,501.942,56.486z M104.66,53.989
		c-2.818,0-5.656-0.912-8.041-2.792c-8.25-6.506-16.326-13.49-24.001-20.757c-5.213-4.937-5.438-13.165-0.502-18.378
		c4.937-5.214,13.164-5.438,18.378-0.502c7.109,6.731,14.586,13.198,22.224,19.221c5.638,4.445,6.604,12.619,2.159,18.257
		C112.312,52.291,108.504,53.989,104.66,53.989z"/>
	<path fill="#1D1D1B" d="M591,313c-246-16-268,188-290,186c-21.041-1.913-54.897-173.947-301-181.952V595.28h595.28V313.459L591,313
		z"/>
</g>
</svg>
