<?xml version="1.0" encoding="utf-8"?>
<!-- Generator: Adobe Illustrator 18.1.1, SVG Export Plug-In . SVG Version: 6.00 Build 0)  -->
<!DOCTYPE svg PUBLIC "-//W3C//DTD SVG 1.0//EN" "http://www.w3.org/TR/2001/REC-SVG-20010904/DTD/svg10.dtd">
<svg version="1.0" xmlns="http://www.w3.org/2000/svg" xmlns:xlink="http://www.w3.org/1999/xlink" x="0px" y="0px"
	 viewBox="0 0 595.3 595.3" enable-background="new 0 0 595.3 595.3" xml:space="preserve">
<g id="Calque_1" display="none">
	
		<image display="inline" overflow="visible" width="1616" height="1627" xlink:href="../scans/tag079 gros.jpg"  transform="matrix(0.36 0 0 0.36 6.76 -7.4365)">
	</image>
</g>
<g id="Calque_2">
	<path d="M573,236.2c0,20-24.4,30.5-54.5,30.5c-30.1,0-54.5-10.5-54.5-30.5s24.4-30.5,54.5-30.5C548.6,205.7,573,216.1,573,236.2z"
		/>
	<path d="M138,230.2c0,20-24.4,30.5-54.5,30.5S29,250.2,29,230.2s24.4-30.5,54.5-30.5S138,210.1,138,230.2z"/>
	<path d="M335.5,538.6c0,10.3-12.6,15.7-28,15.7s-28-5.4-28-15.7c0-10.3,12.6-15.7,28-15.7S335.5,528.3,335.5,538.6z"/>
	<path d="M496,15c4.4,37.8,44.6,88,99.3,85c0.7,0,1.3,29,0,30C546,125,473,92,496,15z"/>
	<path d="M319,223c145,28,162,114.5,276.3,80v32C457.1,352,431,280.3,319,223z"/>
	<path d="M595.3,485c-14.3,38.5-36.8,60.7-67.3,77c34.5,2,58-12,67.3-23.4C599,537.6,595.3,485,595.3,485z"/>
	<path d="M234,432c41.1-29.8,104-36,151-17s86,23,133.5,17c-38.5,28-100.6,29.1-145.6,7.3C328.2,417.6,280,412,234,432z"/>
	<path d="M41,528c63,34.2,131,60.6,171,67.3h-74C91,582,53,550,41,528z"/>
	<path d="M0,399.6c103,11,271-62,329-39c-103.5,5.4-206,75-329,68V399.6z"/>
	<path d="M0,309c56,0.5,178-22.3,238-61.5c-66,70.8-165,86.8-238,88.8V309z"/>
	<path d="M0,154.3c41-9,79.1-40.9,83.5-98.3C87,127,67,165,0,180"/>
	<path d="M0,84c16,0,37-21,41-43c-1,42-7,58.5-41,70"/>
</g>
</svg>
