<?xml version="1.0" encoding="UTF-8" standalone="no"?>
<!-- Generator: Adobe Illustrator 16.0.0, SVG Export Plug-In . SVG Version: 6.00 Build 0)  -->

<svg
   xmlns:dc="http://purl.org/dc/elements/1.1/"
   xmlns:cc="http://creativecommons.org/ns#"
   xmlns:rdf="http://www.w3.org/1999/02/22-rdf-syntax-ns#"
   xmlns:svg="http://www.w3.org/2000/svg"
   xmlns="http://www.w3.org/2000/svg"
   xmlns:sodipodi="http://sodipodi.sourceforge.net/DTD/sodipodi-0.dtd"
   xmlns:inkscape="http://www.inkscape.org/namespaces/inkscape"
   version="1.1"
   id="Calque_4"
   x="0px"
   y="0px"
   width="595.279px"
   height="595.281px"
   viewBox="0 0 595.279 595.281"
   enable-background="new 0 0 595.279 595.281"
   xml:space="preserve"
   inkscape:version="0.91 r13725"
   sodipodi:docname="micropeÌnis.svg"><metadata
     id="metadata21"><rdf:RDF><cc:Work
         rdf:about=""><dc:format>image/svg+xml</dc:format><dc:type
           rdf:resource="http://purl.org/dc/dcmitype/StillImage" /></cc:Work></rdf:RDF></metadata><defs
     id="defs19" /><sodipodi:namedview
     pagecolor="#ffffff"
     bordercolor="#666666"
     borderopacity="1"
     objecttolerance="10"
     gridtolerance="10"
     guidetolerance="10"
     inkscape:pageopacity="0"
     inkscape:pageshadow="2"
     inkscape:window-width="1600"
     inkscape:window-height="871"
     id="namedview17"
     showgrid="false"
     inkscape:snap-page="true"
     inkscape:zoom="0.56066697"
     inkscape:cx="1.8438216"
     inkscape:cy="356.38699"
     inkscape:window-x="0"
     inkscape:window-y="0"
     inkscape:window-maximized="1"
     inkscape:current-layer="Calque_4" /><path
     d="M 105.35007,252.00775 C 94.931859,283.80361 78.453209,308.27035 79.925499,338.32104 81.397789,368.37173 92.719,407.356 128.722,436.021 c 0,0 26.452,28.585 40.419,51.452 3.422,5.604 13.333,18.282 16.667,107.808 l -60.07,0 c 0,0 6.32819,-52.94227 -0.33781,-85.60927 -6.924,-33.929 -13.1933,-46.40683 -30.269538,-60.72011 -34.511285,-28.92733 -51.99938,-80.04093 -42.738241,-123.6804 9.261138,-43.63946 52.957659,-73.26347 52.957659,-73.26347 z"
     id="path3"
     inkscape:connector-curvature="0"
     sodipodi:nodetypes="czcccccszc" /><path
     d="m 75.140625,0 c 2,99.86 38.042605,120.00533 42.099605,172.73633 4.5,58.497 4.217,53.46309 0,71.99609 -13.59727,47.79377 -30.205861,66.51674 -21.60115,111.02268 8.60472,44.50595 20.44128,58.93966 42.24698,76.5991 20.14532,18.00167 50.11854,57.6057 53.5905,78.45244 3.47196,20.84674 5.66407,84.47461 5.66406,84.47461 l 140.58985,0 c 0,0 3.06037,-87.41742 4.23437,-131.48242 l -0.0293,-0.63867 c 0.016,-0.005 0.0309,-0.0106 0.0469,-0.0156 -0.006,0.221 -0.0116,0.4323 -0.0176,0.6543 1.863,0.392 3.74263,0.76065 5.64063,1.09765 37.98721,6.75332 68.18416,-0.95549 90.96484,-12.86328 l 103.57031,143.24805 53.13868,0 0,-87.14063 -105.81055,-98.19921 c 21.41449,-24.98266 43.42885,-63.6244 34.94727,-115.45313 -11.531,-70.469 -48.68775,-101.2185 -80.71875,-120.4375 -32.031,-19.219 -57.09587,-19.45681 -74.25042,-18.77285 -17.15454,0.68395 -29.75901,3.7608 -40.02801,7.14581 l -7.35634,22.7872 c -30.20363,7.23912 -52.2591,24.86691 -69,46.4375 -19.24007,24.79076 -27.67676,49.74375 -33.39771,79.56863 -3.83297,-12.60263 -3.8615,-32.41697 1.99879,-55.67652 5.86029,-23.25955 18.50477,-41.44677 40.8872,-59.61086 15.7844,-12.80957 35.55012,-24.07016 61.34612,-32.5759 l 4.83162,-41.61356 0,-121.74023 z M 396.23828,177.57227 c 3.115,0.787 6.26178,1.73376 9.42578,2.88476 0,0 38.43825,12.8125 62.78125,43.5625 24.343,30.75 39.718,65.34425 25.625,119.15625 -14.094,53.812 -52.53125,74.31395 -73.03125,82.00195 -3.351,1.257 -7.15179,2.61397 -11.34179,3.91797 -8.194,-101.964 -25.20905,-109.3879 -24.72833,-145.21822 0.48072,-35.83032 5.80838,-49.73068 8.17364,-63.73686 2.36526,-14.00618 3.1807,-31.43035 3.0957,-42.56835 z"
     id="polyline5"
     inkscape:connector-curvature="0"
     sodipodi:nodetypes="cccsczcccccccccccccszccsczsccccccsccczzc" /><path
     fill="none"
     d="M524.416,294.489c-11.531-70.469-48.688-101.219-80.719-120.438s-85.844-19.219-85.844-19.219  c-85.844,19.219-123,55.094-139.657,108.906s3.844,101.219,16.656,128.125c12.812,26.907,55.094,62.782,112.75,73.032  s97.375-12.812,120.438-33.312C491.104,411.083,535.948,364.958,524.416,294.489z M494.07,343.176  c-14.094,53.812-52.531,74.313-73.031,82.001s-57.657,19.219-99.938-1.281c0,0-37.156-8.969-61.5-48.688  c-24.344-39.719-14.094-42.281-17.938-75.594c0,0,0-55.094,52.531-98.656c0,0,31.648-18.881,42.281-21.781  c14.094-3.844,41.001-8.969,69.188,1.281c0,0,38.438,12.812,62.781,43.562S508.163,289.364,494.07,343.176z"
     id="path7" /><path
     d="M135.14,425.14"
     id="path13" /><path
     d="m 378.228,306.013 c 0,0 29.74171,-4.16988 30.32234,7.66492 0.21312,4.34404 -7.5949,7.29779 -16.41034,18.46208"
     id="path15"
     inkscape:connector-curvature="0"
     sodipodi:nodetypes="csc" /></svg>