<?xml version="1.0" encoding="UTF-8" standalone="no"?>
<!-- Generator: Adobe Illustrator 16.0.0, SVG Export Plug-In . SVG Version: 6.00 Build 0)  -->

<svg
   xmlns:dc="http://purl.org/dc/elements/1.1/"
   xmlns:cc="http://creativecommons.org/ns#"
   xmlns:rdf="http://www.w3.org/1999/02/22-rdf-syntax-ns#"
   xmlns:svg="http://www.w3.org/2000/svg"
   xmlns="http://www.w3.org/2000/svg"
   xmlns:sodipodi="http://sodipodi.sourceforge.net/DTD/sodipodi-0.dtd"
   xmlns:inkscape="http://www.inkscape.org/namespaces/inkscape"
   version="1.1"
   id="Calque_1"
   x="0px"
   y="0px"
   width="595.28px"
   height="595.28px"
   viewBox="0 0 595.28 595.28"
   enable-background="new 0 0 595.28 595.28"
   xml:space="preserve"
   inkscape:version="0.91 r13725"
   sodipodi:docname="mordre.svg"><metadata
     id="metadata23"><rdf:RDF><cc:Work
         rdf:about=""><dc:format>image/svg+xml</dc:format><dc:type
           rdf:resource="http://purl.org/dc/dcmitype/StillImage" /></cc:Work></rdf:RDF></metadata><defs
     id="defs21" /><sodipodi:namedview
     pagecolor="#ffffff"
     bordercolor="#666666"
     borderopacity="1"
     objecttolerance="10"
     gridtolerance="10"
     guidetolerance="10"
     inkscape:pageopacity="0"
     inkscape:pageshadow="2"
     inkscape:window-width="1600"
     inkscape:window-height="871"
     id="namedview19"
     showgrid="false"
     inkscape:zoom="1.1213358"
     inkscape:cx="399.68343"
     inkscape:cy="194.81453"
     inkscape:window-x="0"
     inkscape:window-y="0"
     inkscape:window-maximized="1"
     inkscape:current-layer="Calque_1" /><path
     d="M297.395,204.906c44.186,0,79.017,11.041,106.63,29.749c11.026-6.405,22.022-11.422,32.944-15.04  c-22.214-26.61-44.896-34.302-83.213-46.807c-37.234,0-56.361,8.826-56.361,8.826s-17.589-8.826-56.359-8.826  c-35.518,7.681-61,20.198-83.213,46.808c10.921,3.617,21.916,8.635,32.943,15.04C218.379,215.947,253.21,204.906,297.395,204.906z"
     id="path3" /><path
     d="M297.395,481.188c-43.238,0-77.521-10.571-104.846-28.556c-10.739,6.54-22.353,11.398-34.492,14.471  c34.445,36.208,79.84,57.888,139.338,44.98c59.497,12.907,104.893-8.772,139.339-44.98c-12.14-3.073-23.753-7.932-34.492-14.471  C374.916,470.617,340.634,481.188,297.395,481.188z"
     id="path5" /><path
     d="M297.395,219.39c-36.991,0-66.656,8.646-90.563,23.462c6.328,4.555,12.917,6.47,15.501,6.47  c4.801,0,15.581-1.022,20.314-16.898c6.407,11.419,16.137,11.979,28,12.243c14.613,0.326,26.748-6.001,26.748-14.272  c-0.002,8.271,12.135,14.598,26.75,14.272c11.861-0.265,21.591-0.824,27.997-12.243c4.733,15.876,15.515,16.898,20.317,16.898  c2.584,0,9.169-1.919,15.492-6.474C364.044,228.034,334.38,219.39,297.395,219.39L297.395,219.39z"
     id="path7" /><path
     d="M298.163,466.694c0.262,0,0.514,0.01,0.776,0.01c36.493,0,65.845-8.428,89.584-22.881  c-5.492-3.448-9.986-5.957-13.483-6.988c-4.969,0.459-12.937,3.834-19.127,14.607c-2.061-6.691-10.215-8.403-18.74-7.552  c-13.757,1.376-18.368,6.255-18.916,11.867c0-6.535-10.047-8.955-20.094-8.943c-10.047-0.012-20.093,2.408-20.093,8.943  c-0.549-5.612-5.16-10.491-18.916-11.867c-8.522-0.852-16.682,0.86-18.742,7.552c-6.708-11.677-15.515-14.671-20.314-14.671  c-0.047,0-0.098,0.005-0.146,0.007c-3.369,0.948-7.677,3.3-12.938,6.575c23.876,14.746,53.479,23.351,90.375,23.351  C297.649,466.704,297.902,466.694,298.163,466.694z"
     id="path9" /><g
     id="g11"><path
       d="M230.881,92.081c7.229,11.096,25.95-11.176,42.753-10.978c11.579,0.137,6.721-9.222-13.36-10.021   C238.896,70.231,224.417,82.163,230.881,92.081z"
       id="path13" /><path
       d="M365.445,92.081c-7.229,11.096-25.953-11.176-42.754-10.978c-11.577,0.137-6.719-9.222,13.36-10.021   C357.43,70.231,371.908,82.163,365.445,92.081z"
       id="path15" /></g><path
     d="m 400.177,253.55 c -3.591,2.398 -16.163,7.588 -13.925,8.898 26.76148,16.88258 36.294,62.755 36.294,62.755 0,0 -21.42861,-45.8989 -47.24861,-62.1519 -5.435,-3.421 -47.45239,-6.4591 -46.10439,-4.4621 7.194,10.661 -9.55604,49.9361 -9.55604,49.9361 0,0 7.74881,-41.46116 3.09613,-51.69393 -1.236,-2.5 -17.90709,-3.28517 -25.42709,-3.28217 -7.689,0.003 -28.871,2.26 -29.705,3.852 -4.544,8.673 6.196,38.247 6.196,38.247 0,0 -16.29642,-28.28875 -13.96145,-36.7477 1.003,-3.444 -27.69755,5.6007 -46.70855,3.9377 -1.829,-0.16 -3.981,1.825 -6.111,3.378 -28.492,20.782 -36.006,58.795 -36.006,58.795 0,0 -6.55994,-37.72695 29.91234,-66.94397 3.682,-1.716 -0.78334,-1.81703 -6.30734,-5.51703 C 87.477,180.778 8,267.364 8,345.462 8,433.761 114.449,487.1 188.332,438.75 c 15.05,-9.846 24.421,-16.107 33.801,-16.432 15.716,-0.544 28.928,9.533 75.172,9.486 l 0,0.002 0.09,0 0.091,0 0,-0.002 c 46.243,0.047 59.457,-10.03 75.172,-9.486 9.38,0.324 18.752,6.586 33.801,16.432 73.885,48.35 180.332,-4.989 180.332,-93.288 C 586.79,267.364 507.408,181.918 400.177,253.55 Z"
     id="path17"
     inkscape:connector-curvature="0"
     sodipodi:nodetypes="cccccccscccsccccsccccccccccc" /></svg>