<?xml version="1.0" encoding="utf-8"?>
<!-- Generator: Adobe Illustrator 17.0.2, SVG Export Plug-In . SVG Version: 6.00 Build 0)  -->
<!DOCTYPE svg PUBLIC "-//W3C//DTD SVG 1.1//EN" "http://www.w3.org/Graphics/SVG/1.1/DTD/svg11.dtd">
<svg version="1.1" id="pedalpumping" xmlns="http://www.w3.org/2000/svg" xmlns:xlink="http://www.w3.org/1999/xlink" x="0px"
	 y="0px" width="595.28px" height="595.28px" viewBox="0 0 595.28 595.28" enable-background="new 0 0 595.28 595.28"
	 xml:space="preserve">
<g>
	<path d="M340,238.666c48.5-5.5,90.144-34.151,158-45.083c60-9.667,97.278,1.083,97.278,1.083V38C555,64.5,513.893,115.698,458,144
		c-62.85,31.825-109.168,55.748-146.665,65.583C280.835,217.583,306.038,242.517,340,238.666z"/>
	<path d="M486.333,212.501c-48.6,11.615-114.667,43.333-154,43.333s-55.669-20.694-55.669-37.719
		c0-17.975,34.955-16.476,34.643-20.975c-0.417-6-25.417-1.167-69.974-7.558C193.835,182.769,188.667,172.667,175,178
		s-27.258,20.676-19,47.084c8,25.583,49.333,59.165,80,82.165S302.667,328,352,321.333c0,0,72.333-19.499,115.333-31.499
		s82.832-21.664,82.832,18.336c0,33.496-34.951,78.493-61.165,112.664c-24.166,31.5-64.25,77.665-64.5,80.165s11.75,15,16.75,15.25
		s154.028-131.5,154.028-131.5l0.002-172.416C595.28,212.333,539.333,199.835,486.333,212.501z"/>
	<path d="M342.674,342.363c-2.667-0.667-19.59,0.891-45.822,0.891c-51.898,0-71.939-23.504-116.605-62.504
		s-38.075-50.741-40.749-51.008c-3.334-0.333-22.457,8.045-39.415,18.592c-13.666,8.5-1.943,26.139,12.667,36
		c14.61,9.861,74.582,52.916,93.916,67.249S235.084,379,243.417,397c8.334,18,24.752,65.334,33.085,88.334s24.916,25.667,37.916,22
		s50.854-26.057,68.748-35.336c17.609-9.131,13-19.334,6-38.667C382.166,413.998,345.341,343.03,342.674,342.363z"/>
	<path d="M279.526,513.059c-6.366-3.389-11.278-10.974-16.528-24.724s-23.25-64.5-32-82.5s-14.029-26.226-25.75-36.75
		c-15.5-13.917-100.5-75.25-111.25-83.75s-10.233-15.37-10.917-17c-0.923-2.201-5,5.582-4.999,22.665
		c0,14.335-1,17.169,12.333,27.835c13.333,10.666,58.819,36.14,83.75,59.333c23.749,22.093,38.998,72.667,46.998,96.334
		c8,23.666,18.916,39.333,27.666,42.208s41.003,2.376,41.503,1.292C290.941,516.682,284.693,515.809,279.526,513.059z"/>
	<path d="M118.356,353.307c-6.689-3.542-42.357-3.721-58.69-6.721S34,340.252,24.333,330.919s-24.331-38-24.331-38L0,352.498
		c16.718,18.819,27.5,24.754,51.5,27.504s106.411,11.084,111.161,11.449s5-0.282,0-5.282S133.827,361.5,118.356,353.307z"/>
</g>
</svg>
