<?xml version="1.0" encoding="utf-8"?>
<!-- Generator: Adobe Illustrator 16.0.0, SVG Export Plug-In . SVG Version: 6.00 Build 0)  -->
<!DOCTYPE svg PUBLIC "-//W3C//DTD SVG 1.1//EN" "http://www.w3.org/Graphics/SVG/1.1/DTD/svg11.dtd">
<svg version="1.1" id="Calque_1" xmlns="http://www.w3.org/2000/svg" xmlns:xlink="http://www.w3.org/1999/xlink" x="0px" y="0px"
	 width="595.28px" height="595.28px" viewBox="0 0 595.28 595.28" enable-background="new 0 0 595.28 595.28" xml:space="preserve">
<path d="M189.775,111.283l1.859,2.442c4.063-1.298,8.333-1.964,12.706-1.964c5.742,0,11.285,1.143,16.372,3.297
	c-3.786-8.869-9.277-17.184-16.514-24.42c-3.629-3.628-7.533-6.811-11.636-9.572c-1.373,2.331-2.57,4.697-3.521,7.028
	C185.127,97.695,185.373,105.498,189.775,111.283z"/>
<path d="M117.362,188.025l-2.459-1.872c-3.082-2.345-6.6-3.486-10.749-3.486c-6.184,0-13.077,2.503-19.474,6.265
	c2.763,4.106,5.947,8.014,9.579,11.646c7.253,7.253,15.589,12.753,24.48,16.541C114.862,207.973,114.31,197.615,117.362,188.025z"/>
<polygon points="282.057,278.42 282.214,278.301 282.172,278.269 "/>
<polygon points="281.892,278.546 281.927,278.592 282.057,278.42 "/>
<path d="M189.248,61.854c-10.246,18.276-24.18,40.079-10.613,57.906c0,0,3.972,5.346,5.377,7.063c4.3,5.254,7.591,3.336,9.315,2.673
	c12.728-4.897,26.022-3.46,34.159,7.231c7.938,10.429,6.156,25.564,0.358,36.906c-2.511,4.911-1.805,8.188-0.352,10.323
	c12.116,17.798,26.69,37.054,41.381,54.666c6.937,8.316,8.795,10.83,13.006,10.314c2.708-0.331,5.632-0.422,8.495,0.486
	c1.398,0.444,3.703,0.027,3.225-4.36c-2.374-21.756-7.287-57.539-10.382-76.932c-0.754-4.726-2.329-9.085-8.692-17.053
	c-17.745-22.22-53.812-70.011-68.887-90.514C203.204,57.251,196.58,48.776,189.248,61.854z"/>
<path d="M300.938,194.746c3.73,28.965,10.34,78.149,14.061,104.189c0.348,2.433,3.874,9.134,5.954,7.824
	c14.999-9.444,29.661-6.936,38.96,5.286c7.73,10.155,5.564,24.206,0.04,31.223c-1.53,1.943-7.311,6.07-5.324,7.739
	c40.848,34.321,131.668,111.654,167.343,142.152c1.413,1.208,3.753,1.931,7.201,1.87c1.417-0.024,7.018-0.142,4.512-3.434
	c-38.484-50.557-184.016-242.145-231.08-303.627C301.543,186.584,300.248,189.396,300.938,194.746z"/>
<path d="M500.66,522.916c-14.619-17.011-59.69-70.267-59.69-70.267s-59.799-69.386-80.939-95.28
	c-4.121-5.048-5.402-8.361-8.054-5.349c-8.981,10.206-25.171,12.75-36.311,4.271c-12.218-9.297-14.285-32.153-14.922-44.476
	c-0.197-3.811-13.378-15.263-15.911-13.928c-6.656,3.508-18.967,3.366-25.19-1.369c-4.614-3.513-7.853-10.42-7.416-16.302
	c0.543-7.323-0.935-7.451-4.639-10.674c-14.252-12.402-44.981-35.645-65.608-49.934c-2.272-1.575-21.977,17.432-41.631,3.254
	c-10.373-7.482-13.518-21.145-8.976-32.466c0.91-2.269,3.963-6.357-1.017-10.077c-1.755-1.311-6.974-5.308-6.974-5.308
	c-20.417-15.535-46.659,3.214-64.182,16.78c-4.201,3.252,1.988,7.27,3.92,8.652c26.646,19.063,71.167,54.849,95.064,72.901
	c3.007,2.271,11.523,8.353,12.506,8.415c2.743,0.174,8.716-2.276,10.993,0c1.843,1.843,2.289,4.348,2.168,6.764
	c-0.274,5.494,2.411,6.383,4.146,7.721c75.2,58.048,295.264,224.735,295.264,224.735s13.884,10.562,16.261,11.633
	C501.57,533.536,502.124,524.619,500.66,522.916z"/>
<path d="M345.871,321.715c4.324,4.09,1.631,14.903-2,18.535c-0.903,0.902-1.911,1.637-2.984,2.203
	c-4.682,2.471-11.611,2.736-15.551-1.203c-2.421-2.422-3.631-6.595-3.631-9.768s2.21-7.346,4.631-9.768
	C331.178,316.873,340.896,317.009,345.871,321.715z"/>
<path d="M215.346,145.207c-2.948-3.197-16.918-4.471-19.343-2.626c0,0-9.33,4.004-8.879,6.756c1.21,7.375-2.478,19.729-8.956,26.208
	c-6.313,6.312-16.168,9.833-25.223,7.979c-2.727-0.559-18.278,13.854-4.118,28.2c2.683,2.718,7.226,3.639,11.487,3.639
	c4.643,0,8.729-1.368,10.523-4.23c1.755-2.8,4.991-9.842,8.479-10.142c4.862-0.418,10.795,9.032,15.301,11.123
	c4.467,2.073,11.97-2.922,15.582-6.535c3.613-3.613,6.23-12.461,3.535-16.583c-2.511-3.839-10.918-9.198-10.122-13.3
	C205.168,167.677,229.334,160.378,215.346,145.207z"/>
<path d="M118.291,114.669c7.312-7.076,17.044-8.623,27.938-7.158c3.318,0.446,13.189,3.507,12.783,0.27
	c-1.345-10.72-0.345-21.068,4.103-28.261c2.823-4.567,5.971-8.028,3.611-9.649c-17.966-12.351-57.802-10.85-80.467,13.767
	c-24.928,27.074-21.928,56.123-12.763,79.488c0.862,2.199,18.078-8.459,28.657-8.459c2.827,0,8.848,2.046,10.243-0.301
	C113.809,151.993,101.711,130.713,118.291,114.669z"/>
<g>
	<path d="M126.191,122.569c-4.993,4.062-6.074,16.927-4.058,23.039c2.755,8.349,5.506,12.486,10.057,17.037
		c4.552,4.552,11.747,7.702,18.039,9.059c7.772,1.676,16.487,1.493,21.039-3.059c9.394-9.394,4.602-28.884-5.001-40.076
		C158.119,119.071,137.335,113.505,126.191,122.569z"/>
</g>
<path d="M270,542.063c-94.422,33.845-208.004,17.314-270-1.353v23.334c69.996,24.666,186.279,27.614,267.539,6.603
	c38.459-9.944,99.84-33.416,156.365-75.683c-7.861-6.415-17.229-14.181-25.434-20.325C361.426,502.24,318.108,524.819,270,542.063z"
	/>
<path d="M438.1,440.824c4.408,5.453,13.271,14.708,21.955,23.604c2.517-2.407,5.009-4.859,7.474-7.356
	c-12.052-9.188-20.991-16.022-26.435-19.228C440.101,438.841,439.105,439.837,438.1,440.824z"/>
<path d="M520.899,26.379c13.421,54.687,26.647,125.799,11.784,229.812c-7.542,52.777-27.132,99.747-56.514,140.479
	c6.575,7.68,14.699,17.479,21.449,25.533c29.909-39.932,52.171-88.937,59.04-148.493C576.994,97.405,507.238-29.289,520.899,26.379z
	"/>
</svg>
