<?xml version="1.0" encoding="utf-8"?>
<!-- Generator: Adobe Illustrator 16.0.0, SVG Export Plug-In . SVG Version: 6.00 Build 0)  -->
<!DOCTYPE svg PUBLIC "-//W3C//DTD SVG 1.1//EN" "http://www.w3.org/Graphics/SVG/1.1/DTD/svg11.dtd">
<svg version="1.1" id="Calque_2" xmlns="http://www.w3.org/2000/svg" xmlns:xlink="http://www.w3.org/1999/xlink" x="0px" y="0px"
	 width="595.28px" height="595.28px" viewBox="0 0 595.28 595.28" enable-background="new 0 0 595.28 595.28" xml:space="preserve">
<path d="M547.666,543.332c0,0,22.666-9.332,25.333-7.666c0,0,19.001,54.947,20.334,59.614h-28.334l-4-13.948l-5.666-15.333
	L547.666,543.332z"/>
<path d="M398.332,408.828l12.334-3.666l12-5l6.333,11l6.667,22l19.333,55l9.667,27l4.333,16l6.667,18.666c0,0,3.333,7.333,6.333,13
	c2.867,5.416-2.667,6.667-2.667,6.667l-22,8l-6-13l-7.666-19.667l-9.667-29.333l-11.667-34.333l-6-16.334l-4-13l-13.666-37
	L398.332,408.828z"/>
<polygon points="557.002,289.662 571.669,294.996 581.335,298.996 580.335,302.329 565.002,339.329 549.669,382.329 
	534.335,421.329 528.669,437.996 522.335,452.996 518.335,466.996 508.002,463.329 493.002,458.329 501.002,435.329 
	515.335,398.662 528.335,362.662 540.002,332.996 "/>
<polygon points="303.334,496.326 309.334,495.992 328.001,502.659 328.001,507.659 324.334,517.659 311.334,555.992 298.334,595.28 
	272.668,595.28 276.001,582.659 283.668,561.992 291.001,538.992 299.668,509.992 "/>
<polygon points="324.998,460.825 330.998,459.825 349.998,455.825 348.665,440.492 343.332,412.159 336.665,374.825 
	329.665,338.492 323.332,302.158 318.998,278.826 307.998,279.826 301.665,281.826 292.998,281.492 293.332,289.826 
	300.665,324.825 305.998,353.825 311.998,386.159 317.332,419.159 "/>
<polygon points="458.499,171.326 471.166,172.659 486.499,175.326 485.166,181.659 479.833,215.659 470.833,270.659 
	464.499,311.992 458.833,340.325 457.166,353.659 444.499,354.659 431.499,353.659 429.833,352.659 433.833,323.992 
	441.833,272.992 448.166,233.659 454.166,199.326 "/>
<polygon points="513.333,144.325 518.999,148.992 529.999,156.325 533.666,159.659 549.333,141.992 561.999,125.992 
	580.666,103.992 595.28,86.992 595.28,47.325 590.333,51.992 584.333,58.992 572.999,73.325 555.999,91.992 538.999,114.659 
	532.666,121.325 "/>
<path d="M405.998,0h29.667l-1.334,12.657l-2.333,19.333l-3.333,30.333l-3.667,27l-3.333,31l-2,15.333c0,0-1.334,2.333-3.334,2.333
	l-15-2.667l-10.333-0.667l0.667-10.333l3-24l5-41l2.666-24.667L405.998,0z"/>
<path d="M273.999,115.825l5.333-3l12-10l6.334-1.667l1.666,4.667l17,27.667l7,12.667l14.334,24.333l11.333,19.333l12.333,21
	l8.667,15.667l7.333,12.333l6,12l2.334,4.333c0,0-2,2.334-4.667,3.667s-14.667,6.667-14.667,6.667l-4,3.333l-3-4.333l-8.333-12.667
	l-14.667-26.333l-15-26.333l-14-22.333l-5-12.333l-9.333-14.333l-6.667-10.667L273.999,115.825z"/>
<path d="M240.573,375.903l18,11l4.667,1.333l1.667,2.334l-2,2l-3.333,6.666l-12.667,24l-14,25l-9.333,15.334l-5.667,12l-5,7.666
	l-6,13.334l-7.333,9l-5,12.666l-8,14.667l-4.667,8.333l-4.667,8h-4.667l-8-5.666l-9.667-5.334c0,0-3-0.666-1-4.333
	s7.333-14,7.333-14l14-26l10.333-16l15.333-29l6.333-10.333l6.667-15.667l12-18.333L240.573,375.903z"/>
<polygon points="62.666,519.324 67.999,542.324 73.333,573.991 76.333,587.324 76.999,595.28 50.332,595.28 49.332,583.991 
	45.666,570.658 42.666,552.991 36.666,530.658 36.999,525.658 47.999,522.658 "/>
<path d="M0,441.323v29.667l6.331,2l5.667,4.666c0,0,2.333-0.332,4-2.666l4.333-9.667l3-6.667l1.333-4.666c0,0-3-3-4.667-2.667
	l-9-4.333L0,441.323z"/>
<path d="M38.332,323.325l9-2.667l8-4l6,1l2.667,10.333l9.333,28.334l10.333,34l9,26.666l4.333,17l7.667,19.667l4,13l1.667,9.667
	l4.667,10.333c0,0-0.667,1.667-3,3s-8.667,3.667-8.667,3.667l-6.667,3l-5.333,0.333l-2.667-8l-3.333-12l-6.667-19.333l-7-25.667
	l-3.333-9l-5-20l-7.333-18.333l-6.333-22.334l-7.333-21.333L38.332,323.325z"/>
<polygon points="132.067,376.059 140.067,381.059 145.067,384.059 149.4,384.059 155.067,372.726 164.733,356.726 175.067,338.392 
	179.067,329.059 185.733,317.726 195.4,300.392 203.4,283.392 212.733,268.059 220.067,256.392 224.733,248.726 227.733,241.059 
	229.733,236.726 233.733,230.059 232.733,227.059 225.4,222.726 215.4,216.059 215.067,218.059 210.733,223.726 203.4,239.059 
	186.4,268.059 180.067,282.392 168.067,300.726 161.067,315.059 158.4,322.726 150.4,333.726 143.4,346.059 135.4,361.059 
	128.4,371.059 129.4,374.059 "/>
<polygon points="156.333,189.491 169.666,193.157 178.666,197.491 183,197.157 185.666,189.491 186.333,182.824 191.333,171.157 
	198.333,147.491 205,127.824 212.666,100.824 220.333,74.824 225.332,63.157 227.666,53.157 231.666,40.491 234.666,31.491 
	236.332,28.157 235.666,23.824 229.666,21.491 218.999,18.824 211.666,15.824 207.999,17.157 207.332,22.157 200.332,45.491 
	192.999,66.157 192.666,71.491 185.999,89.824 182.666,99.491 179.999,113.491 171.332,140.491 158.332,180.157 "/>
<polygon points="71.665,0 99.665,0 103.665,13.658 109.998,30.991 115.998,49.658 121.331,63.324 123.998,72.991 127.331,78.324 
	125.665,82.324 116.665,85.658 103.331,91.658 99.998,83.658 91.665,57.991 83.331,39.324 79.331,24.658 "/>
<polygon points="25.665,56.657 36.999,55.991 50.665,55.324 53.332,81.324 55.332,99.324 58.999,130.991 61.999,169.991 
	65.999,197.991 65.999,210.991 68.332,225.991 66.999,230.657 57.332,230.991 45.332,232.991 42.999,231.657 40.332,204.991 
	34.665,139.657 29.999,98.657 "/>
</svg>
