<?xml version="1.0" encoding="utf-8"?>
<!-- Generator: Adobe Illustrator 15.0.0, SVG Export Plug-In . SVG Version: 6.00 Build 0)  -->
<!DOCTYPE svg PUBLIC "-//W3C//DTD SVG 1.1//EN" "http://www.w3.org/Graphics/SVG/1.1/DTD/svg11.dtd">
<svg version="1.1" id="Calque_1" xmlns="http://www.w3.org/2000/svg" xmlns:xlink="http://www.w3.org/1999/xlink" x="0px" y="0px"
	 width="595.279px" height="595.281px" viewBox="0 0 595.279 595.281" enable-background="new 0 0 595.279 595.281"
	 xml:space="preserve">
<g>
	<path fill="none" d="M235.454,106.104l-6,77l347.603-183H445.954l-0.332,17.667l-11.668,5l-0.332-18l-5.627-4.667H276.24
		l-102.786,57L235.454,106.104z M380.288,13.104l14.666,12l-0.332,17.667l-11.668,5l-0.332-18l-13.668-11.334L380.288,13.104z
		 M325.788,42.604l14.666,12l-0.332,17.667l-11.668,5l-0.332-18l-13.668-11.334L325.788,42.604z M267.788,71.104l14.666,12
		l-0.333,17.667l-11.667,5l-0.333-18l-13.667-11.334L267.788,71.104z"/>
	<path fill="none" d="M319.788,252.77c8.08,27.473,6,83.334,6,83.334s15.332-16.334,29-23.334c13.666-7,30.666-7.333,30.666-7.333
		s-5-22-9.666-48.667c-4.668-26.666-18-53-50.334-62.333c-32.333-9.333-63.666,21-63.666,21S309.788,218.77,319.788,252.77z"/>
	<path fill="none" d="M371.122,322.438c-22,6.667-40,14.667-48.666,52c-8.668,37.333-20.668,77.999-6,126.666
		c8.143,27.019,21.83,65.332,32.398,94.074h189.215c-37.238-70.564-96.01-201.206-107.613-226.073
		C416.456,339.104,393.122,315.771,371.122,322.438z M383.12,489.104c-28,9.333-32-7.333-36.666-42.667s4-86.666,25.334-93.333
		c21.332-6.667,33.332,12.667,35.332,20s22.668,64.667,25.334,76C435.122,460.437,411.12,479.771,383.12,489.104z"/>
	<path fill="none" d="M298.233,420.655c-1-21.454-5.632-73.824-18.779-90.052c-24.162-29.825-49.318-16.322-60.193-7.918
		c2.379-0.193,5.075,1.014,8.693,1.918c8,2,5,48,4,83.5s-15,32.5-23,31.5c-7.915-0.989-25.121-6.384-29.844-12.31
		c-0.407,5.794-17.469,103.653-32.856,167.884h137.163C290.319,548.607,299.079,477.408,298.233,420.655z"/>
	<polygon fill="none" points="217.454,189.104 222.454,110.104 162.454,63.104 157.454,140.104 	"/>
	<path fill="none" d="M213.121,246.437c0,0,23.082,25.873-12,67.334c-7.08,8.367-20.992,103.095-21.946,112.633
		c-0.002,0.013-0.003,0.031-0.006,0.044c2.505-7.647,26.573-81.05,31.785-93.844c1.31-3.214,2.505-5.456,3.676-6.992
		c9.325-17.989,46.074-37.222,66.324-16.008c19.81,20.754,24.935,44.171,27.132,55.153c0.67-1.062,1.033-1.653,1.033-1.653
		s28.758-133.813-47.333-136.667C208.454,224.437,213.121,246.437,213.121,246.437z"/>
	<polygon points="270.454,105.771 282.121,100.771 282.454,83.104 267.788,71.104 256.454,76.437 270.121,87.771 	"/>
	<polygon points="328.454,77.271 340.122,72.271 340.454,54.604 325.788,42.604 314.454,47.937 328.122,59.271 	"/>
	<polygon points="382.954,47.771 394.622,42.771 394.954,25.104 380.288,13.104 368.954,18.437 382.622,29.771 	"/>
	<path d="M371.788,353.104c-21.334,6.667-30,57.999-25.334,93.333s8.666,52,36.666,42.667s52.002-28.667,49.334-40
		c-2.666-11.333-23.334-68.667-25.334-76S393.12,346.437,371.788,353.104z"/>
	<polygon points="433.954,22.771 445.622,17.771 445.954,0.104 427.995,0.104 433.622,4.771 	"/>
	<path d="M179.111,427.294c4.723,5.926,21.929,11.32,29.844,12.31c8,1,22,4,23-31.5s4-81.5-4-83.5
		c-3.618-0.904-6.314-2.111-8.693-1.918c10.875-8.404,36.031-21.907,60.193,7.918c13.146,16.228,17.779,68.598,18.779,90.052
		c0.846,56.753-7.915,127.952-14.816,174.522h65.437c-10.568-28.742-24.256-67.056-32.398-94.074
		c-14.668-48.667-2.668-89.333,6-126.666c8.666-37.333,26.666-45.333,48.666-52s45.334,16.667,59.334,46.667
		c11.604,24.867,70.375,155.509,107.613,226.073h57.756V0.104h-18.768l-347.603,183l6-77l-62-49l102.786-57H-0.546v595.074h146.8
		C161.642,530.947,178.703,433.088,179.111,427.294z M325.454,194.437c32.334,9.333,45.666,35.667,50.334,62.333
		c4.666,26.667,9.666,48.667,9.666,48.667s-17,0.333-30.666,7.333c-13.668,7-29,23.334-29,23.334s2.08-55.861-6-83.334
		c-10-34-58-37.333-58-37.333S293.121,185.104,325.454,194.437z M261.787,226.437c76.09,2.854,47.333,136.667,47.333,136.667
		s-0.363,0.591-1.033,1.653c-2.197-10.982-7.322-34.399-27.132-55.153c-20.25-21.214-56.999-1.981-66.324,16.008
		c-1.17,1.536-2.366,3.778-3.676,6.992c-5.212,12.794-29.28,86.196-31.785,93.844c0.002-0.013,0.003-0.031,0.006-0.044
		c0.954-9.538,14.866-104.266,21.946-112.633c35.082-41.461,12-67.334,12-67.334S208.454,224.437,261.787,226.437z M222.454,110.104
		l-5,79l-60-49l5-77L222.454,110.104z"/>
</g>
</svg>
