<?xml version="1.0" encoding="utf-8"?>
<!-- Generator: Adobe Illustrator 17.0.2, SVG Export Plug-In . SVG Version: 6.00 Build 0)  -->
<!DOCTYPE svg PUBLIC "-//W3C//DTD SVG 1.1//EN" "http://www.w3.org/Graphics/SVG/1.1/DTD/svg11.dtd">
<svg version="1.1" xmlns="http://www.w3.org/2000/svg" xmlns:xlink="http://www.w3.org/1999/xlink" x="0px" y="0px"
	 width="595.28px" height="595.28px" viewBox="0 0 595.28 595.28" enable-background="new 0 0 595.28 595.28" xml:space="preserve">
<g id="Calque_2" display="none">
	
		<image display="inline" overflow="visible" width="602" height="591" xlink:href="../PICTOPORNO/masquedechien.png"  transform="matrix(0.9877 0 0 0.9877 0 11.5639)">
	</image>
</g>
<g id="Calque_1">
	<g>
		<path d="M176.807,532.807c-15.091-30.786-27.333-73.333-39.753-78.583c-6.642-2.807-34.913,5.249-72.913,31.249
			C28.888,509.593,0,554.807,0,554.807v40.473h243.473C222.807,586.807,193.473,566.807,176.807,532.807z"/>
		<path d="M551.473,456.14c-27.333-28.667-68.667-44-80.667-38.667c-12,5.333-21.73,51.14-29.501,84.667
			c-8.499,36.667-29.832,74.667-73.832,93.14h227.107v-80.473C594.581,514.807,578.807,484.807,551.473,456.14z"/>
		<path d="M419.473,484.14c9.333-41.333,32-96,52-147.333c20-51.333,19.333-90.667,19.333-90.667s62.667-41.333,55.333-103.333
			s-34.667-116.667-46-116c-11.333,0.667-50,79.333-56.667,79.333c-6.667,0-55.333-84.686-154.667-84.686
			S140.14,87.473,130.14,87.473s-45.937-66-60-66c-18,0-43.333,64.667-43.333,122c0,57.333,64.667,96,64.667,96
			c2,25.333,11.333,92.667,38,142c26.667,49.333,51.333,104.667,62.667,135.333c11.333,30.667,50,68,120.667,68
			S410.14,525.473,419.473,484.14z M86.205,185.58c-6.297,12.815-16.33,6.484-27.902-11.754
			c-17.352-27.347-10.433-91.26,1.631-88.166c5.033,1.29-4.282,28.441,4.206,53.273C73.771,167.108,92.494,172.779,86.205,185.58z
			 M444.14,275.807c0,23.333-28.333,69.667-86,69.667c-28.667,0-41.667-16.333-41.667-42.051c0-31.615,32-62.282,80.333-62.282
			C427.807,241.14,444.14,255.473,444.14,275.807z M342.897,436.836c-0.365,12.995-18.321,28.997-47.309,28.184
			s-49.06-16.383-48.667-30.377c0.393-13.995,26.216-15.771,47.576-15.171C325.353,420.337,343.262,423.841,342.897,436.836z
			 M315.139,48.769c51.037,9.19,117.034,70.188,99.923,77.559c-7.138,3.075-33.705-26.382-71.891-40.777
			C299.843,69.217,276.14,74.14,270.257,61.84C262.467,45.553,281.102,42.64,315.139,48.769z M135.807,264.473
			c0-23.667,31-33.667,48-33.667c49.667,0,89.667,23.667,89.667,63c0,22.667-18,45-41,45
			C186.807,338.807,135.807,309.473,135.807,264.473z M337.392,538.067c-28.333,0-38.902-22.14-43.534-22.14
			s-12.632,23.807-36.632,23.807c-30.75,0-43.667-22.7-43.667-25.808c0-3.108,11-9.024,12.667-8.024s10.25,14.916,28.667,14.916
			c19.583,0,25.751-27.165,28.084-29.499c2.427-2.427,19.583-3,21.749,0s9.5,29.499,32.833,29.499c17.333,0,20-15.451,23.667-17.059
			c3.667-1.608,14.249,7.392,14.249,9.059S365.725,538.067,337.392,538.067z"/>
		<path d="M337.473,313.473c0,5.099,10.333,9.667,14,9c3.667-0.667,10.333-19.667,30.333-28.667s41-2.333,43.667-3
			c2.667-0.667,4.333-9.751,3.333-12.751s-31.667-9.249-55.667-0.916S337.473,309.807,337.473,313.473z"/>
		<path d="M246.39,307.14c1.25-3.718-12.5-27.75-32.5-41s-57.25-11.5-58.75-9.5s-1.012,14.718,1.417,16.336
			c3,1.997,20.829-2.342,42.829,7.658s26.92,32.006,30.754,33.506C233.167,315.324,245.381,310.143,246.39,307.14z"/>
	</g>
</g>
</svg>
