<?xml version="1.0" encoding="utf-8"?>
<!-- Generator: Adobe Illustrator 17.0.0, SVG Export Plug-In . SVG Version: 6.00 Build 0)  -->
<!DOCTYPE svg PUBLIC "-//W3C//DTD SVG 1.1//EN" "http://www.w3.org/Graphics/SVG/1.1/DTD/svg11.dtd">
<svg version="1.1" id="Calque_1" xmlns="http://www.w3.org/2000/svg" xmlns:xlink="http://www.w3.org/1999/xlink" x="0px" y="0px"
	 width="595.28px" height="595.28px" viewBox="0 0 595.28 595.28" enable-background="new 0 0 595.28 595.28" xml:space="preserve">
<g>
	<ellipse fill="#1D1D1B" cx="246.75" cy="478.039" rx="9.807" ry="11.361"/>
	<ellipse fill="#1D1D1B" cx="286.67" cy="475.864" rx="10.526" ry="10.538"/>
	<ellipse fill="#1D1D1B" cx="286.67" cy="438.42" rx="10.526" ry="10.538"/>
	<path fill="#1D1D1B" d="M0.002,0v595.28H90.18c-10.077-15.125-22.548-60.231-26.633-82.209
		c-4.085-21.978-12.992-69.892-12.992-69.892s87.939,49.92,152.887,59.745c8.119,15.435,14.073,28.488,25.751,42.724
		c14.453,13.442,15.612,21.676,34.115,21.019s40.834-19.068,50.749-30.215c9.915-11.147,18.97-19.463,26.037-33.249
		c93.166-10.735,98.162-13.892,168.106-42.309c-15.925,66.937-19.359,75.146-43.854,134.386h130.933V0H0.002z M196.469,93.021
		c58.376-44.255,75.327-73.81,75.327-73.81c4.094-6.565,6.03-6.674,12.332,2.696c20.332,26.625,85.457,69.064,93.326,74.147
		c13.946,9.008,12.818,11.779-13.666,3.033c-17.712-5.849-43.663-7.078-80.327-6.404s-54.528,7.326-84.507,10.912
		C191.229,104.52,168.977,113.863,196.469,93.021z M333.588,463.728c-1.292-0.542-2.714-0.844-4.208-0.844
		c-5.917,0-10.713,4.708-10.713,10.516c0,5.675,4.584,10.288,10.314,10.496c-1.245,2.889-2.717,5.666-4.4,8.307
		c-1.686-1.149-3.721-1.821-5.914-1.821c-5.813,0-10.526,4.718-10.526,10.538c0,2.512,0.881,4.815,2.346,6.626
		c-5.893,4.496-12.649,7.898-19.966,9.861c-2.439-2.673-5.837-4.336-9.601-4.336c-4.48,0-8.437,2.359-10.878,5.972
		c-6.492-0.522-12.267-1.512-17.405-2.912c0.25-0.888,0.394-1.819,0.394-2.786c0-5.756-4.736-10.421-10.578-10.421
		c-3.6,0-6.775,1.775-8.685,4.482c-8.183-5.954-13.387-13.768-16.675-22.665c3.393-1.528,5.833-5.696,5.833-10.613
		c0-6.21-3.886-11.244-8.679-11.244c-0.615,0-1.215,0.086-1.794,0.243c-0.271-2.678-0.467-5.39-0.604-8.123
		c-0.593-11.885,2.409-24.491,8.307-35.234c0.614,0.208,1.253,0.331,1.915,0.331c4.321,0,7.825-4.718,7.825-10.538
		c0-0.945-0.101-1.857-0.274-2.728c3.397-3.505,7.223-6.512,11.436-8.839c1.661,4.424,5.843,7.57,10.753,7.57
		c6.366,0,11.527-5.28,11.527-11.793c0-0.362-0.022-0.718-0.053-1.071c2.711,0.1,5.502,0.449,8.37,1.071
		c5.484,1.19,10.658,2.675,15.513,4.448c-0.318,0.973-0.497,2.011-0.497,3.094c0,5.377,4.248,9.736,9.489,9.736
		c3.379,0,6.338-1.818,8.019-4.547c6.112,3.902,11.372,8.517,15.686,13.863c-5.567,1.034-9.724,5.061-9.724,9.882
		c0,5.604,5.612,10.147,12.535,10.147c2.671,0,5.142-0.682,7.175-1.834c2.1,6.129,3.377,12.854,3.735,20.209
		C333.667,460.435,333.653,462.086,333.588,463.728z M508.828,412.544c-52.2,32.692-121.142,44.83-164.908,52.783
		c1.991-24.234-10.838-117.255-44.81-119.629c-15.719,1.421-15.398,9.767-22.02,14.502c-6.77-3.96-7.627-16.54-14.802-14.512
		c-20.028-0.746-52.575,35.341-59.733,119.396c-40.156-2.433-102.644-36.9-155.773-71.31c-1.145-35.476,1.432-67.905,11.74-101.493
		c173.301-81.663,297.193-79.281,454.294-2.316C512.816,289.964,521.839,386.448,508.828,412.544z"/>
	<ellipse fill="#1D1D1B" cx="244.184" cy="430.248" rx="10.409" ry="10.147"/>
	<path fill="#1D1D1B" d="M272.431,281.277c-7.364-0.9-19.337,3.481-23.793,14.186c-3.609,8.672,0.085,23.098,4.694,24.544
		c4.221,1.324,17.97-3.392,22.722-13.966C280.806,295.467,281.333,282.364,272.431,281.277z"/>
	<path fill="#1D1D1B" d="M296.774,281.277c-8.902,1.088-8.375,14.19-3.623,24.764c4.752,10.574,18.501,15.29,22.722,13.966
		c4.608-1.445,8.303-15.872,4.694-24.544C316.111,284.758,304.138,280.377,296.774,281.277z"/>
</g>
</svg>
