<?xml version="1.0" encoding="utf-8"?>
<!-- Generator: Adobe Illustrator 16.0.0, SVG Export Plug-In . SVG Version: 6.00 Build 0)  -->
<!DOCTYPE svg PUBLIC "-//W3C//DTD SVG 1.1//EN" "http://www.w3.org/Graphics/SVG/1.1/DTD/svg11.dtd">
<svg version="1.1" id="Calque_1" xmlns="http://www.w3.org/2000/svg" xmlns:xlink="http://www.w3.org/1999/xlink" x="0px" y="0px"
	 width="595.28px" height="595.28px" viewBox="0 0 595.28 595.28" enable-background="new 0 0 595.28 595.28" xml:space="preserve">
<path fill-rule="evenodd" clip-rule="evenodd" d="M504.499,257.001l91.604,52.769V-3H495.557l19.528,247.191l-17.882-10.638
	L475.265-3H311.139v234.28l-8.955,4.755l-7.979-5.123L294.758-3H143.055L121.08,226.271l-17.133,8.575L123.118-3H-0.822v314.788
	L100.216,255.7l97.337,54.89l75.625-39.31c0,0-51.981,124.305-235.49,58.152c0,0,143.49,94.848,240.457-24.23
	c0,0-14.874,218.978-40.186,289.079h19.252c6.697-45.448,43.769-298.12,44.585-328.095c0,0,46.208,278.809,55.862,328.095h19.125
	c-8.812-44.313-56.311-284.466-52.169-292.333c0,0,95.563,121.332,227.783,14.728c0,0-127.22,83.604-218.817-41.934l65.409,37.877
	L504.499,257.001z"/>
</svg>
