<?xml version="1.0" encoding="utf-8"?>
<!-- Generator: Adobe Illustrator 17.0.2, SVG Export Plug-In . SVG Version: 6.00 Build 0)  -->
<!DOCTYPE svg PUBLIC "-//W3C//DTD SVG 1.1//EN" "http://www.w3.org/Graphics/SVG/1.1/DTD/svg11.dtd">
<svg version="1.1" id="Calque_1" xmlns="http://www.w3.org/2000/svg" xmlns:xlink="http://www.w3.org/1999/xlink" x="0px" y="0px"
	 width="595.28px" height="595.28px" viewBox="0 0 595.28 595.28" enable-background="new 0 0 595.28 595.28" xml:space="preserve">
<g id="_x33_D">
</g>
<path d="M0,0v595.28h595.28V0H0z M63.807,349.683c-24.189,0-34.966-15.393-34.966-35.624c0-20.231,0-159.215,0-179.446
	c0-20.231,10.777-35.624,34.966-35.624c24.189,0,167.497,0,191.686,0c24.19,0,34.966,15.393,34.966,35.624
	c0,12.115,0,66.814,0,113.097c14.086,14.449,34.063,30.562,58.843,39.135c8.406,2.908,9.352,6.366,1.776,8.705
	c-6.618,2.043-49.155,8.588-89.302-7.98c-0.492-0.159-0.979-0.353-1.456-0.608c-3.739-1.598-7.452-3.403-11.111-5.432
	c-44.087-19.32-55.455,4.947-31.784,42.499c6.148,9.753,12.717,18.378,18.869,25.654C189.364,349.683,84.21,349.683,63.807,349.683z
	 M566.439,460.666c0,20.231-10.777,35.624-34.966,35.624s-167.497,0-191.686,0c-24.189,0-34.966-15.393-34.966-35.624
	c0-10.388,0-52.087,0-92.941c-37.492-17.294-61.168-49.621-64.28-55.512c-3.703-7.011-0.701-8.546,7.411-4.899
	c49.644,22.318,106.667,10.505,106.767,10.484l0.002-0.001c60.086-12.396,61.419-27.657,24.419-41.408
	c-18.551-6.895-36.04-16.97-51.631-29.218c3.627-1.026,7.713-1.575,12.278-1.575c24.189,0,167.497,0,191.686,0
	c24.189,0,34.966,15.393,34.966,35.624C566.439,301.451,566.439,440.435,566.439,460.666z"/>
</svg>
