<?xml version="1.0" encoding="utf-8"?>
<!-- Generator: Adobe Illustrator 15.0.0, SVG Export Plug-In . SVG Version: 6.00 Build 0)  -->
<!DOCTYPE svg PUBLIC "-//W3C//DTD SVG 1.1//EN" "http://www.w3.org/Graphics/SVG/1.1/DTD/svg11.dtd">
<svg version="1.1" id="Layer_1" xmlns="http://www.w3.org/2000/svg" xmlns:xlink="http://www.w3.org/1999/xlink" x="0px" y="0px"
	 width="595.28px" height="595.28px" viewBox="0 0 595.28 595.28" enable-background="new 0 0 595.28 595.28" xml:space="preserve">
<g>
	<polygon points="328,216.32 336.5,236.99 320.83,239.82 313.5,214.15 302,242.15 289.17,234.65 300.109,214.2 277.17,218.82 
		274.553,189.43 311.471,197.586 346.17,188.706 346.17,222.08 	"/>
	<path d="M533,0c3.25,20.62,24.25,65.38,27.57,100.85C496,145.33,421.33,156.57,310.5,156.57c-91.83,0-185.49-27.14-250.5-61.57
		c4.33-26.33,19.57-69.5,31.57-95H0v595.281h67.67C31.67,485.67,7,336.33,32.33,210.33c94,2.67,201.34,64.67,249.34,128
		C292.331,378.5,243,545,243,595.281h109.33C345.67,523,333,397.25,336.33,355.67c5.18-13.18,14.15-27.76,22.42-35.1
		c11.369,11.371,28.76,54.01,32.5,70.68c3.82,17-1.73,30.27,13.5,45.5c12.75,12.75,36.34,33.48,58.34,26.82
		c20.23-6.129,31.439-48.5,29.199-70.27c-2.379-23.17-8.029-10.24-12.779-30.24S453.07,279.23,436.25,255
		c26.76-21.42,95.209-46.96,140.75-54.5c23,143.75-54,322.5-68.5,394.781h86.779V0H533z M320.85,328.82
		c-4.41,4.41-17.67,5.541-23.209,0C252.77,256,125.67,197.67,37.13,187.73c5.37-36.48,8.62-50.31,18.51-77.49
		C121.5,150.5,220,178.76,312.971,178.76c100.779,0,169.279-9.09,253.279-52.91c4.049,11.9,7.52,32.89,7.52,50.15
		C474.5,201.75,396.299,244.79,320.85,328.82z"/>
</g>
</svg>
