<?xml version="1.0" encoding="utf-8"?>
<!-- Generator: Adobe Illustrator 16.0.0, SVG Export Plug-In . SVG Version: 6.00 Build 0)  -->
<!DOCTYPE svg PUBLIC "-//W3C//DTD SVG 1.1//EN" "http://www.w3.org/Graphics/SVG/1.1/DTD/svg11.dtd">
<svg version="1.1" id="Calque_1" xmlns="http://www.w3.org/2000/svg" xmlns:xlink="http://www.w3.org/1999/xlink" x="0px" y="0px"
	 width="595.28px" height="595.28px" viewBox="0 0 595.28 595.28" enable-background="new 0 0 595.28 595.28" xml:space="preserve">
<g>
	<path d="M275.379,152.559c0,0-89.141-140.302-109.562-151.021H-1.04l0.436,594.206h225.972c0,0-5.353-180.562,2.338-195.244
		c0,0-7.128,2.527-20.052,14.589s-52.324,6.445-76.485,0.423s-23.899-0.104-27.815-19.37
		c-3.914-19.266-24.129-106.945-7.376-137.802s12.132-22.782,37.608-9.485c25.478,13.297,31.229,10.857,44.854,1.244l-19.516-31.412
		c0,0-70.156,32.35-107.947-33.488c-27.58-48.047,0.88-102.629,38.65-114.004c0,0-56.094,55.746-18.828,104.305
		c37.266,48.558,80.977,15.981,93.454,16.816l30.351,46.198c0,0,19.11-21.169,32.452-7.433s34.035,39.07,30.854,2.736
		C254.729,197.483,250.361,185.967,275.379,152.559z"/>
	<path d="M192.493-0.326c0,0,85.705,113.478,95.804,138.811c0,0,58.534,13.13,74.816,35.731c0,0,14.282,48.102,18.282,50.102
		c0,0-80.836,30.514-95.168,45.757c0,0,2.256,25.124,15.573,17.877c13.317-7.248,88.385-50.237,91.878-44.025
		s7.853,14.619,7.853,14.619l-70.183,45.171c0,0,10.659,18.861,20.361,11.846s58.85-44.958,64.167-39.72
		s12.559,13.965,12.559,13.965s-52.04,37.179-52.04,42.595s23.444,7.723,24.669,6.823s41.245-35.831,44.788-36.619
		c0,0,13.605,11.424,10.066,15.96s-23.899,24.173-19.023,28.252s12.953,8.095,19.219,1.467s16.373-25.461,22.827-21.464
		s100.304,9.911,117.379,18.954v-32.957c0,0-136.228-205.974-131.576-313.28L192.493-0.326z"/>
	<path d="M250.085,407.311c0,0,91.723,181.358,101.267,188.433H596.32V432.764c0,0-108.941,61.605-181.6,61.663
		s-121.749-26.41-134.204-47.843C268.062,425.151,279.441,421.47,250.085,407.311z"/>
	<path d="M137.827,368.336c0,0-21.264,20.873,26.819,28.511s36.038-29.488,9.728-33.259
		C148.062,359.817,137.827,368.336,137.827,368.336z"/>
	<path d="M318.607,454.41c-3.693-4.856-3.804-21.426,22.992-8.176s7.419,22.274-0.647,18.639S322.341,459.319,318.607,454.41z"/>
	<path d="M430.979,476.765c-6.512,0.431-11.863-7.163-6.057-17.222s47.832-23.21,63.319-12.968s-9.18,23.346-36.513,27.294
		C451.729,473.869,436.947,476.37,430.979,476.765z"/>
	<path d="M229.062,292.152c0,0,34.432,80.884,58.519,101.165c27.315,23,69.995,8.666,55.905-48.75c0,0-13.09,59.215-62.935,5.333
		C239.616,305.649,229.062,292.152,229.062,292.152z"/>
</g>
</svg>
