<?xml version="1.0" encoding="UTF-8" standalone="no"?>
<!-- Generator: Adobe Illustrator 16.0.0, SVG Export Plug-In . SVG Version: 6.00 Build 0)  -->

<svg
   xmlns:dc="http://purl.org/dc/elements/1.1/"
   xmlns:cc="http://creativecommons.org/ns#"
   xmlns:rdf="http://www.w3.org/1999/02/22-rdf-syntax-ns#"
   xmlns:svg="http://www.w3.org/2000/svg"
   xmlns="http://www.w3.org/2000/svg"
   xmlns:sodipodi="http://sodipodi.sourceforge.net/DTD/sodipodi-0.dtd"
   xmlns:inkscape="http://www.inkscape.org/namespaces/inkscape"
   version="1.1"
   id="Calque_2"
   x="0px"
   y="0px"
   width="595.279px"
   height="595.281px"
   viewBox="0 0 595.279 595.281"
   enable-background="new 0 0 595.279 595.281"
   xml:space="preserve"
   inkscape:version="0.91 r13725"
   sodipodi:docname="sneaker_destroy.svg"><metadata
     id="metadata27"><rdf:RDF><cc:Work
         rdf:about=""><dc:format>image/svg+xml</dc:format><dc:type
           rdf:resource="http://purl.org/dc/dcmitype/StillImage" /></cc:Work></rdf:RDF></metadata><defs
     id="defs25" /><sodipodi:namedview
     pagecolor="#ffffff"
     bordercolor="#666666"
     borderopacity="1"
     objecttolerance="10"
     gridtolerance="10"
     guidetolerance="10"
     inkscape:pageopacity="0"
     inkscape:pageshadow="2"
     inkscape:window-width="1600"
     inkscape:window-height="871"
     id="namedview23"
     showgrid="false"
     inkscape:zoom="0.79290284"
     inkscape:cx="308.77904"
     inkscape:cy="277.99521"
     inkscape:window-x="0"
     inkscape:window-y="0"
     inkscape:window-maximized="1"
     inkscape:current-layer="g3" /><g
     id="g3"><path
       d="M 47.042969 70.728516 C 35.692378 71.015489 8.5181407 84.339566 10.767578 111.90234 C 38.101578 140.56834 276.10156 363.23828 276.10156 363.23828 C 276.10156 363.23828 331.04456 328.57233 340.10156 299.23633 C 335.43556 292.56933 217.43359 175.90234 217.43359 175.90234 C 217.43359 175.90234 194.10059 191.90331 187.43359 204.57031 C 187.43359 204.57031 56.100594 77.236344 51.433594 71.902344 C 50.704375 71.068906 49.14493 70.675372 47.042969 70.728516 z M 402.14648 75.941406 C 387.92813 76.067446 403.18502 100.33177 407.43555 107.23828 C 412.76955 115.90528 417.83058 148.0893 384.76758 175.9043 C 347.11058 207.5843 316.62664 207.8457 297.64062 195.8457 C 284.15463 187.3227 311.80809 148.0907 290.12109 140.4707 C 267.72409 132.6017 255.80664 189.79883 255.80664 189.79883 L 351.14062 286.54102 C 351.14062 286.54102 365.14062 275.68744 365.14062 287.64844 C 365.14062 320.61944 295.64062 380.74414 265.14062 388.74414 C 245.14062 392.74414 261.14062 369.95117 261.14062 369.95117 L 207.80664 320.61914 C 207.80564 320.61914 185.14058 382.34925 156.76758 417.90625 C 104.10058 483.90625 76.768562 483.90627 82.101562 522.57227 C 87.872563 564.40827 118.76759 561.90584 129.43359 557.33984 C 140.09959 552.77384 140.76659 556.57223 147.43359 557.24023 C 154.10059 557.90623 164.10156 555.24027 180.10156 548.57227 C 196.10156 541.90627 204.10058 527.90627 208.76758 522.57227 C 213.43458 517.24027 228.76758 521.24023 232.76758 519.24023 C 236.76758 517.24023 258.10155 507.24027 263.43555 502.57227 C 268.76955 497.90627 283.43458 487.90627 288.76758 474.57227 C 294.10058 461.24027 305.43458 459.24025 312.76758 457.90625 C 320.10058 456.57225 332.76855 449.90627 347.43555 436.57227 C 362.10255 423.24027 378.76856 400.57225 384.10156 389.90625 C 389.43456 379.23825 393.43458 371.90628 406.76758 359.23828 C 420.10058 346.57228 445.43556 347.90628 458.10156 343.23828 C 470.76756 338.57228 507.43555 304.56931 515.43555 296.57031 C 523.43555 288.57031 522.76856 265.2383 526.10156 259.9043 C 529.43456 254.5703 543.43458 250.57031 548.76758 246.57031 C 554.10058 242.57031 572.10155 209.23828 579.43555 193.23828 C 586.76955 177.23828 558.76856 156.57128 548.10156 149.23828 C 537.43456 141.90528 529.43555 143.2373 517.43555 141.9043 C 505.43555 140.5713 459.43555 99.905281 419.43555 81.238281 C 411.31055 77.446547 405.77077 75.909278 402.14648 75.941406 z M 99.630859 148.08984 A 12 12 0 0 1 111.63086 160.08984 A 12 12 0 0 1 99.630859 172.08984 A 12 12 0 0 1 87.630859 160.08984 A 12 12 0 0 1 99.630859 148.08984 z M 550.06836 165.38477 C 562.92336 174.34277 568.10156 183.8457 568.10156 183.8457 C 568.10156 183.8457 563.43653 199.90247 554.76953 214.98047 C 546.10253 230.05847 532.35355 239.01933 525.43555 231.23633 C 514.76955 219.23633 524.10155 213.13319 533.43555 199.74219 C 542.76955 186.35119 550.06836 165.38477 550.06836 165.38477 z M 135.38672 183.8457 A 12 12 0 0 1 147.38672 195.8457 A 12 12 0 0 1 135.38672 207.8457 A 12 12 0 0 1 123.38672 195.8457 A 12 12 0 0 1 135.38672 183.8457 z M 496.09375 257.67773 C 498.38387 257.66181 500.58178 258.91809 502.76953 261.90234 C 510.10253 271.90434 503.43555 282.90234 489.43555 298.90234 C 475.43555 314.90234 455.66555 330.33431 445.43555 320.57031 C 430.76855 306.57231 456.54653 293.96995 470.76953 279.87695 C 481.52228 269.22395 489.22337 257.7255 496.09375 257.67773 z M 264.21289 459.25586 C 267.05842 459.18082 269.66397 460.52734 272.10156 463.90234 C 278.45156 472.69334 264.76758 488.56834 256.76758 493.90234 C 248.76758 499.23634 229.43556 512.57234 220.10156 503.90234 C 210.70556 495.17534 221.27659 488.80631 236.43359 477.57031 C 248.09459 468.92519 256.94099 459.44764 264.21289 459.25586 z M 180.9043 516.10938 C 181.21967 516.0976 181.53126 516.09766 181.83789 516.11133 C 184.78153 516.24251 187.34973 517.57106 190.09961 520.57031 C 194.34961 525.20531 186.76814 535.23631 175.36914 540.57031 C 163.96914 545.90231 149.43572 548.57031 147.38672 540.57031 C 144.00372 530.57031 153.77959 526.63233 161.43359 523.23633 C 170.38906 519.26425 176.17363 516.28606 180.9043 516.10938 z "
       id="path5" /><path
       d="M361.436,442.572c0,0,12.714-12.236,18.666-19.334c18.038-18.494,13.038-36.494,37.983-50.307   c8.891,4.428,60.684,74.973,76.017,139.641C466.769,512.619,367.436,453.906,361.436,442.572z"
       id="path7" /><g
       id="g4171" /></g></svg>