<?xml version="1.0" encoding="utf-8"?>
<!-- Generator: Adobe Illustrator 16.0.0, SVG Export Plug-In . SVG Version: 6.00 Build 0)  -->
<!DOCTYPE svg PUBLIC "-//W3C//DTD SVG 1.1//EN" "http://www.w3.org/Graphics/SVG/1.1/DTD/svg11.dtd">
<svg version="1.1" xmlns="http://www.w3.org/2000/svg" xmlns:xlink="http://www.w3.org/1999/xlink" x="0px" y="0px"
	 width="595.28px" height="595.28px" viewBox="0 0 595.28 595.28" enable-background="new 0 0 595.28 595.28" xml:space="preserve">
<g id="Calque_1" display="none">
	
		<image display="inline" overflow="visible" width="585" height="591" xlink:href="../../SCANS PICTOPORNO/splitroast-traisplusepais.png"  transform="matrix(1.0176 0 0 1.0176 -4.882812e-04 -3.0527)">
	</image>
</g>
<g id="Calque_2">
	<path fill="#020202" d="M534.976,283.653v28.925l34.71,7.438c0,0-15.702,15.702,0.827,28.121c12.428,9.337,24.768,4.11,24.768,4.11
		v-68.595H534.976z"/>
	<path fill="#020202" d="M60.305,257.207c0,0-3.016,21.488,0,28.925l-34.71,7.438c0,0,15.702,15.702-0.827,28.121
		C12.34,331.028,0,325.802,0,325.802v-68.595H60.305z"/>
	<path fill="#020202" d="M556.917,518.948c-5.512-8.662-50.399-19.688-50.399-19.688s-66.149-77.118-66.937-86.569
		c-0.787-9.45,28.351-54.336,22.05-86.624c-0.788-4.315,5.513-12.601,5.513-12.601s50.398,11.813,55.124,7.088
		c4.725-4.726,0.788-35.438,1.575-44.1l11.812-7.875c0,0-1.575-11.025-12.6-26.774c0-7.875,0-7.875,0-25.987
		s-33.074-80.324-95.287-54.337c-58.274,22.837-29.925,85.836-29.925,85.836l13.388,9.45l-2.363,4.725
		c0,0-46.462-38.587-114.187-38.587c-67.724,0-112.611-3.15-133.874-11.812c-21.262-8.663-70.087-10.237-84.262,23.625
		c-14.709,35.14-10.237,73.237,35.438,116.55c45.675,43.312,125.999,88.199,134.661,109.461c-35.437-10.237-76.916,3.616-94.499,0
		c-14.978-3.08-22.891-11.867-33.128-5.567c-19.206,11.818-1.575,12.601-18.9,39.374c-8.902,13.759-35.443,29.325-19.687,36.226
		c14.427,6.318,52.815-29.87,67.777-29.87s145.687,30.712,162.225,30.712c36.113,0,38.998-32.702,30.335-55.539
		c-8.662-22.837-61.047-95.659-87.822-118.497c-26.775-22.837-63-28.35-63-28.35l2.362-7.512c0,0,59.062,23.263,86.624,30.35
		c27.563,7.087,59.062,14.174,61.425,12.599c7.088,3.938,29.925,24.807,34.65,22.051l-3.938-33.862h6.301
		c0,0,8.661,76.387,13.387,81.111c4.725,4.726,92.924,96.808,105.524,96.808s55.912,0,55.912,0S562.43,527.61,556.917,518.948z
		 M506.518,230.936l-4.725,5.853c-7.875-6.3-23.625-4.725-23.625-4.725l-2.858-6.134
		C494.479,217.537,506.518,230.936,506.518,230.936z"/>
</g>
</svg>
