<?xml version="1.0" encoding="utf-8"?>
<!-- Generator: Adobe Illustrator 18.1.1, SVG Export Plug-In . SVG Version: 6.00 Build 0)  -->
<!DOCTYPE svg PUBLIC "-//W3C//DTD SVG 1.0//EN" "http://www.w3.org/TR/2001/REC-SVG-20010904/DTD/svg10.dtd">
<svg version="1.0" xmlns="http://www.w3.org/2000/svg" xmlns:xlink="http://www.w3.org/1999/xlink" x="0px" y="0px"
	 viewBox="0 0 595.3 595.3" enable-background="new 0 0 595.3 595.3" xml:space="preserve">
<g id="Calque_1" display="none">
	
		<image display="inline" overflow="visible" width="1616" height="1627" xlink:href="../scans/tag008 strangulation.jpg"  transform="matrix(0.3671 0 0 0.3671 1.013 -1.0061)">
	</image>
</g>
<g id="Calque_2">
	<path d="M308,317.6c49.5,0,89.5-20.7,123-67.7c13.5,6.4,15.7,22.1,12.8,37.1c7.1,3.6,15.7,19.2,10,36.4c6.4,3.6,14.3,24.9,7.8,42.8
		c10.7,6.4,0.9,38.5,6.4,53.5c10,27.1,33.6,45.5,126.2,130.4v46.3H406c0,0-44.2-104.7-81.3-152.5s-114-108.3-131.2-122.6
		c-17.1-14.3-24.9-27.8-25.7-38.5c-0.7-10.7,5-12.8,8.6-11.4C180.1,272.7,229.4,317.6,308,317.6z"/>
	<path d="M487.3,406.7l107,35.6v83.4c0,0-84.2-73.4-104.9-99.8C483.4,418.3,487.3,406.7,487.3,406.7z"/>
	<path d="M293.4,435.9c0,0,22.1,26.7,34,44.2c24.5,36,53.7,116.1,53.7,116.1H205.7c0,0,29.9-79.8,40.6-101.9
		S293.4,435.9,293.4,435.9z"/>
	<path d="M279.3,420.8c0,0-98.2-95.1-111.4-107.1c-17.8-16.1-11.3-51.7-11.3-51.7c-12.8-0.7-30.6,4.3-20,43.5
		c-6.4,8.6-10.6,24.9-3.9,35.6c-6.1,5-16.1,20-7.5,32.1c-6.4,5.7-14.3,20-10,34.2c4.3,14.3-1.4,24.2-12.8,34.9
		C91,453.1,1,541.4,1,541.4v54.8h191.2c0,0,25.7-92.6,42.8-116.9S279.3,420.8,279.3,420.8z"/>
	<path d="M1,429.1l93.9-22.4c7.4,12.8-5.4,25.7-18.9,37.8S1,516.1,1,516.1V429.1z"/>
	<path d="M294.7-1c0,0-161.2,0-161.9,0c6.4,126.2,0.9,298.6,161.9,298.6S456.6,125.9,456.6-1C455.9-1,294.7-1,294.7-1z M281.7,87.4
		C285,57.7,287.2,36,294.7,36c7.5,0,9.7,21.7,12.9,51.4c4.8,44.2,1,51.4-12.9,51.4S276.9,131.5,281.7,87.4z M219.2,55.5
		c-4.7,0-6.9,4-6.9,10.4s-1.2,15-11.9,15c-8.2,0-12.1-6-12.1-16c0-12.8,4.8-28.9,29-28.9c18.2,0,35.6,7.4,35.6,30
		c0,9.5-5.5,14.9-13,14.9s-13.2-6.8-13.2-13.8S223.9,55.5,219.2,55.5z M294.7,238.2c-41.3,0-65.3-15-65.3-37.4
		c0-22.5,23.3-32.4,65.3-32.4s65.3,10,65.3,32.4C360,223.2,336,238.2,294.7,238.2z M389,80.9c-10.6,0-11.9-8.6-11.9-15
		s-2.3-10.4-6.9-10.4c-4.7,0-7.4,4.6-7.4,11.6s-5.7,13.8-13.2,13.8c-7.5,0-13-5.4-13-14.9c0-22.6,17.4-30,35.6-30
		c24.2,0,29,16,29,28.9C401.1,74.9,397.3,80.9,389,80.9z"/>
</g>
</svg>
