<?xml version="1.0" encoding="utf-8"?>
<!-- Generator: Adobe Illustrator 16.0.0, SVG Export Plug-In . SVG Version: 6.00 Build 0)  -->
<!DOCTYPE svg PUBLIC "-//W3C//DTD SVG 1.1//EN" "http://www.w3.org/Graphics/SVG/1.1/DTD/svg11.dtd">
<svg version="1.1" xmlns="http://www.w3.org/2000/svg" xmlns:xlink="http://www.w3.org/1999/xlink" x="0px" y="0px"
	 width="595.28px" height="595.28px" viewBox="0 0 595.28 595.28" enable-background="new 0 0 595.28 595.28" xml:space="preserve">
<g id="Calque_1" display="none">
	<g display="inline">
		<path fill="#FFFFFF" d="M123.28,590.36c-10.56,0-21.12,0-31.68,0c-0.087-14.393-0.068-28.787-0.284-43.178
			c-0.391-26.141-0.888-52.279-1.407-78.417c-0.291-14.63-0.527-29.266-1.154-43.883c-0.329-7.651-1.5-15.265-2.203-22.903
			c-1.526-16.592-2.953-33.188-5.566-49.662c-2.018-12.723-3.757-25.491-5.623-38.238c-0.842-5.751-1.344-11.579-2.609-17.236
			c-2.334-10.44-5.154-20.748-7.048-31.318c-2.087-11.647-5.281-23.089-10.459-33.895c-3.257-6.796-6-13.845-8.818-20.843
			c-6.494-16.133-14.069-31.874-17.516-49.111c-1.856-9.277-4.545-18.412-5.954-27.748c-2.047-13.561-3.303-27.241-4.844-40.876
			c-0.875-7.741-1.687-15.49-2.44-23.244c-0.203-2.09-1.512-2.884-3.363-3.393c2.666,1.108,2.366,3.444,2.328,5.525
			c-0.158,8.685-0.463,17.368-0.643,26.052c-0.294,14.259-0.544,28.519-0.793,42.778c-0.272,15.585-0.535,31.17-0.781,46.755
			c-0.298,18.94-0.633,37.88-0.842,56.821c-0.214,19.366-0.232,38.734-0.453,58.1c-0.197,17.316-0.557,34.632-0.834,51.947
			c-0.24,14.931-0.466,29.86-0.693,44.791c-0.288,18.887-0.506,37.773-0.881,56.658c-0.206,10.366-0.669,20.727-1.035,31.089
			c-0.018,0.52-0.211,1.032-0.323,1.549c0-161.28,0-322.56,0-483.84c92.76,0,185.52,0,278.28,0c0.315,2.978,0.53,5.97,0.967,8.929
			c1.095,7.404,2.286,14.793,3.449,22.187c1.154,7.335,2.058,14.724,3.574,21.984c1.06,5.077,2.722,10.068,4.542,14.938
			c4.969,13.299,9.614,26.761,15.435,39.688c5.104,11.337,11.626,22.037,17.521,33.017c2.092,3.896,4.21,7.778,6.257,11.698
			c0.342,0.656,0.782,1.779,0.491,2.155c-1.031,1.331-0.253,2.246,0.389,3.226c6.43,9.814,12.892,19.607,19.311,29.428
			c12.887,19.717,25.766,39.438,38.596,59.191c0.831,1.281,1.532,1.216,2.601,0.515c3.448-2.265,6.888-4.546,10.376-6.749
			c9.478-5.984,18.924-12.021,28.486-17.866c7.787-4.76,15.702-9.312,23.606-13.877c2.952-1.705,5.979-3.305,9.07-4.738
			c2.888-1.337,5.608-3.34,9.083-2.893c1.753,0.226,3.111-0.439,4.28-1.746c1.235-1.381,2.781-2.189,4.706-2.312
			c0.762-0.049,1.596-0.398,2.221-0.854c1.046-0.762,1.991-1.678,2.903-2.604c1.006-1.021,1.763-0.766,2.438,0.319
			c2.124,3.407,4.24,6.817,6.358,10.227c0.758,1.221,0.483,2.015-0.821,2.733c-4.559,2.507-9.076,5.09-13.581,7.692
			c-6.42,3.708-12.881,7.352-19.203,11.221c-6.425,3.932-12.695,8.117-19.053,12.163c-1.546,0.983-3.315,1.667-4.718,2.813
			c-2.304,1.884-4.542,3.756-7.57,4.371c-0.363,0.074-0.626,0.644-0.936,0.983c-0.354,0.389-0.64,0.892-1.071,1.15
			c-3.92,2.349-7.46,5.375-12.008,6.616c-0.809,0.221-1.492,0.96-2.184,1.522c-0.537,0.437-0.929,1.073-1.501,1.441
			c-1.995,1.284-4.081,2.428-6.054,3.744c-1.75,1.168-3.394,2.495-5.219,3.852c0.104,0.196,0.316,0.686,0.606,1.124
			c4.076,6.144,8.16,12.282,12.249,18.417c14.19,21.299,28.379,42.599,42.579,63.892c8.879,13.314,17.773,26.618,26.669,39.922
			c1.063,1.59,2.037,3.271,3.296,4.694c3.129,3.54,6.566,6.817,9.569,10.457c3.576,4.333,6.766,8.982,10.233,13.408
			c5.797,7.398,11.631,14.77,17.555,22.067c2.335,2.876,4.771,5.722,7.491,8.222c2.946,2.71,6.238,5.053,9.45,7.463
			c4.887,3.665,9.553,7.742,14.82,10.756c8.522,4.877,17.458,9.033,26.22,13.493c0,35.88,0,71.76,0,107.64
			c-47.16,0-94.32,0-141.48,0c-0.355-0.394-0.69-0.808-1.071-1.176c-4.614-4.465-9.225-8.981-12.52-14.528
			c-3.815-6.424-7.251-13.074-10.893-19.603c-1.853-3.319-3.034-6.848-3.477-10.608c-0.266-2.261-0.33-4.545-0.562-6.811
			c-1.043-10.187-2.218-20.361-3.137-30.56c-0.629-6.982-0.999-13.991-1.338-20.995c-0.821-16.942-1.118-33.911-3.002-50.796
			c-0.844-7.562-1.252-15.172-1.914-22.756c-0.781-8.952-1.609-17.9-2.449-26.847c-0.302-3.219-0.348-6.513-1.108-9.626
			c-2.861-11.717-5.702-23.451-9.056-35.032c-3.749-12.947-7.198-26.004-13.763-38c-5.948-10.87-11.5-21.932-18.914-31.941
			c-4.808-6.489-8.873-13.534-14.506-19.402c-7.509-7.823-15.047-15.618-22.592-23.407c-6.013-6.206-12.49-11.858-19.991-16.217
			c-5.107-2.968-10.106-6.228-15.492-8.586c-9.311-4.078-19.228-6.395-29.105-8.731c-8.525-2.017-17.039-4.083-25.571-6.071
			c-6.297-1.468-12.345-3.709-19.08-3.531c-10.957,0.291-21.935-0.284-32.905-0.414c-4.114-0.048-8.111,0.257-11.888,2.455
			c-3.906,2.273-8.347,3.655-12.158,6.055c-3.805,2.396-7.605,5.151-10.517,8.519c-3.17,3.667-5.342,8.216-6.643,13.011
			c-0.702,2.587-1.279,5.212-1.818,7.839c-1.297,6.319-2.712,12.62-3.763,18.981c-1.639,9.918-3.093,19.869-4.483,29.826
			c-1.472,10.547-2.871,21.106-4.126,31.681c-1.087,9.153-2.019,18.328-2.854,27.508c-0.837,9.19-1.602,18.391-2.159,27.601
			c-0.656,10.827-1.095,21.669-1.556,32.508c-0.5,11.74-1.179,23.481-1.302,35.228c-0.156,15.047,0.196,30.1,0.273,45.149
			c0.114,22.311,0.103,44.621,0.291,66.932C122.641,555.464,123.01,572.912,123.28,590.36z"/>
		<path fill-rule="evenodd" clip-rule="evenodd" d="M123.28,590.36c-0.27-17.448-0.639-34.896-0.786-52.346
			c-0.188-22.311-0.177-44.621-0.291-66.932c-0.077-15.05-0.43-30.103-0.273-45.149c0.123-11.746,0.802-23.487,1.302-35.228
			c0.461-10.839,0.899-21.681,1.556-32.508c0.558-9.21,1.322-18.41,2.159-27.601c0.836-9.18,1.767-18.354,2.854-27.508
			c1.255-10.575,2.654-21.134,4.126-31.681c1.39-9.957,2.844-19.908,4.483-29.826c1.051-6.361,2.466-12.662,3.763-18.981
			c0.54-2.627,1.117-5.252,1.818-7.839c1.301-4.795,3.473-9.345,6.643-13.011c2.912-3.368,6.712-6.123,10.517-8.519
			c3.811-2.4,8.252-3.782,12.158-6.055c3.777-2.198,7.774-2.502,11.888-2.455c10.97,0.13,21.948,0.704,32.905,0.414
			c6.735-0.178,12.783,2.063,19.08,3.531c8.532,1.989,17.046,4.055,25.571,6.071c9.877,2.336,19.794,4.654,29.105,8.731
			c5.385,2.358,10.384,5.619,15.492,8.586c7.501,4.359,13.979,10.011,19.991,16.217c7.545,7.789,15.083,15.583,22.592,23.407
			c5.633,5.868,9.698,12.913,14.506,19.402c7.414,10.009,12.966,21.071,18.914,31.941c6.564,11.996,10.014,25.053,13.763,38
			c3.354,11.581,6.194,23.315,9.056,35.032c0.761,3.113,0.807,6.407,1.108,9.626c0.84,8.946,1.668,17.895,2.449,26.847
			c0.662,7.584,1.07,15.193,1.914,22.756c1.884,16.885,2.181,33.854,3.002,50.796c0.339,7.004,0.709,14.013,1.338,20.995
			c0.919,10.198,2.094,20.373,3.137,30.56c0.231,2.266,0.296,4.55,0.562,6.811c0.442,3.761,1.624,7.289,3.477,10.608
			c3.642,6.528,7.077,13.179,10.893,19.603c3.295,5.547,7.905,10.063,12.52,14.528c0.381,0.368,0.716,0.782,1.071,1.176
			C339.521,590.36,231.4,590.36,123.28,590.36z"/>
		<path fill-rule="evenodd" clip-rule="evenodd" d="M589.12,482.721c-8.762-4.46-17.697-8.616-26.22-13.493
			c-5.268-3.014-9.934-7.091-14.82-10.756c-3.212-2.41-6.504-4.753-9.45-7.463c-2.72-2.5-5.156-5.346-7.491-8.222
			c-5.924-7.298-11.758-14.669-17.555-22.067c-3.468-4.426-6.657-9.075-10.233-13.408c-3.003-3.64-6.44-6.917-9.569-10.457
			c-1.259-1.424-2.232-3.104-3.296-4.694c-8.896-13.304-17.79-26.607-26.669-39.922c-14.2-21.293-28.389-42.593-42.579-63.892
			c-4.089-6.136-8.173-12.274-12.249-18.417c-0.29-0.438-0.502-0.928-0.606-1.124c1.825-1.357,3.469-2.684,5.219-3.852
			c1.973-1.316,4.059-2.46,6.054-3.744c0.572-0.368,0.964-1.005,1.501-1.441c0.691-0.562,1.375-1.302,2.184-1.522
			c4.548-1.242,8.088-4.268,12.008-6.616c0.432-0.259,0.718-0.761,1.071-1.15c0.31-0.34,0.572-0.91,0.936-0.983
			c3.028-0.614,5.267-2.486,7.57-4.371c1.402-1.146,3.172-1.83,4.718-2.813c6.357-4.045,12.628-8.23,19.053-12.163
			c6.322-3.869,12.783-7.513,19.203-11.221c4.505-2.602,9.022-5.185,13.581-7.692c1.305-0.718,1.579-1.512,0.821-2.733
			c-2.118-3.41-4.234-6.82-6.358-10.227c-0.675-1.084-1.432-1.339-2.438-0.319c-0.912,0.926-1.857,1.842-2.903,2.604
			c-0.625,0.456-1.459,0.805-2.221,0.854c-1.925,0.124-3.471,0.931-4.706,2.312c-1.169,1.307-2.527,1.972-4.28,1.746
			c-3.475-0.447-6.195,1.555-9.083,2.893c-3.092,1.433-6.118,3.033-9.07,4.738c-7.904,4.565-15.819,9.117-23.606,13.877
			c-9.562,5.846-19.009,11.882-28.486,17.866c-3.488,2.203-6.928,4.483-10.376,6.749c-1.068,0.702-1.77,0.766-2.601-0.515
			c-12.83-19.753-25.709-39.474-38.596-59.191c-6.419-9.821-12.881-19.614-19.311-29.428c-0.642-0.979-1.42-1.895-0.389-3.226
			c0.291-0.375-0.149-1.499-0.491-2.155c-2.047-3.919-4.165-7.802-6.257-11.698c-5.896-10.98-12.417-21.68-17.521-33.017
			c-5.82-12.927-10.466-26.389-15.435-39.688c-1.82-4.87-3.481-9.861-4.542-14.938c-1.516-7.26-2.419-14.649-3.574-21.984
			c-1.163-7.394-2.354-14.783-3.449-22.187c-0.438-2.959-0.652-5.951-0.967-8.929c0.84,0,1.68,0,2.52,0
			c0.219,0.168,0.413,0.402,0.66,0.493c4.662,1.729,9.339,3.417,13.996,5.16c10.229,3.828,20.389,7.809,29.809,13.435
			c0.912,0.545,1.891,0.98,2.839,1.466c-0.18-0.536-0.497-0.813-0.861-0.996c-7.373-3.707-14.619-7.704-22.166-11.014
			c-7.331-3.216-14.972-5.725-22.477-8.544c64.8,0,129.6,0,194.4,0c0.871,0.124,1.741,0.339,2.614,0.357
			c11.26,0.225,22.52,0.387,33.778,0.637c9.401,0.208,18.803,0.467,28.201,0.788c5.565,0.19,11.123,0.613,16.688,0.809
			c7.824,0.276,15.651,0.438,23.478,0.65c0,120.24,0,240.48,0,360.72c-1.074-2.802-2.148-5.604-3.224-8.404
			c-0.122,0.048-0.244,0.096-0.366,0.145c1.196,3.353,2.393,6.706,3.59,10.06C589.12,407.84,589.12,445.28,589.12,482.721z"/>
		<path fill-rule="evenodd" clip-rule="evenodd" d="M7.36,488.48c0.112-0.517,0.305-1.029,0.323-1.549
			c0.366-10.362,0.829-20.723,1.035-31.089c0.375-18.885,0.593-37.771,0.881-56.658c0.227-14.931,0.454-29.86,0.693-44.791
			c0.277-17.315,0.638-34.631,0.834-51.947c0.22-19.366,0.239-38.733,0.453-58.1c0.209-18.941,0.544-37.881,0.842-56.821
			c0.246-15.585,0.508-31.17,0.781-46.755c0.25-14.26,0.499-28.519,0.793-42.778c0.18-8.685,0.485-17.367,0.643-26.052
			c0.038-2.081,0.338-4.417-2.328-5.525c1.852,0.508,3.16,1.303,3.363,3.393c0.754,7.754,1.565,15.502,2.44,23.244
			c1.542,13.635,2.797,27.316,4.844,40.876c1.409,9.336,4.098,18.471,5.954,27.748c3.447,17.237,11.022,32.978,17.516,49.111
			c2.817,6.999,5.561,14.047,8.818,20.843c5.178,10.806,8.372,22.248,10.459,33.895c1.895,10.571,4.714,20.878,7.048,31.318
			c1.265,5.657,1.767,11.485,2.609,17.236c1.866,12.747,3.604,25.516,5.623,38.238c2.613,16.474,4.04,33.07,5.566,49.662
			c0.703,7.639,1.874,15.252,2.203,22.903c0.627,14.617,0.863,29.253,1.154,43.883c0.519,26.138,1.016,52.276,1.407,78.417
			c0.216,14.391,0.197,28.785,0.284,43.178c-28.08,0-56.16,0-84.24,0C7.36,556.4,7.36,522.44,7.36,488.48z"/>
		<path fill-rule="evenodd" clip-rule="evenodd" fill="#FFFFFF" d="M589.12,7.88c-7.826-0.211-15.653-0.374-23.478-0.65
			c-5.565-0.196-11.123-0.619-16.688-0.809c-9.398-0.321-18.8-0.58-28.201-0.788c-11.259-0.25-22.519-0.412-33.778-0.637
			c-0.873-0.018-1.743-0.233-2.614-0.357c34.92,0,69.84,0,104.76,0C589.12,5.72,589.12,6.8,589.12,7.88z"/>
		<path fill-rule="evenodd" clip-rule="evenodd" fill="#FFFFFF" d="M289.96,4.64c7.504,2.819,15.146,5.329,22.477,8.544
			c7.547,3.311,14.793,7.307,22.166,11.014c0.364,0.183,0.682,0.46,0.861,0.996c-0.948-0.486-1.927-0.921-2.839-1.466
			c-9.42-5.626-19.58-9.607-29.809-13.435c-4.657-1.743-9.334-3.432-13.996-5.16c-0.247-0.091-0.441-0.325-0.66-0.493
			C288.76,4.64,289.36,4.64,289.96,4.64z"/>
		<path fill-rule="evenodd" clip-rule="evenodd" fill="#FFFFFF" d="M589.12,370.4c-1.197-3.354-2.394-6.707-3.59-10.06
			c0.122-0.049,0.244-0.097,0.366-0.145c1.075,2.801,2.149,5.603,3.224,8.404C589.12,369.2,589.12,369.8,589.12,370.4z"/>
	</g>
</g>
<g id="Calque_2" display="none">
	<path display="inline" d="M76.446,315.277l2.157-0.993c-44.097,59.726-35.032,147.399,8.55,215.733
		c13.958,21.888,29.47,35.821,45.146,44.269H0v20.994h595.28v-20.994H326.979c5.267-5.935,8.723-19.976,13.606-34.657
		c6.441-19.361,26.202,1.026,31.148-0.952c4.945-1.979,4.268-18.166,4.268-18.166c1.301,10.52,6.612,20.145,10.169,7.612
		c3.557-12.53,24.349-9.971,24.349-9.971c57.578-3.709,13.258-73.9,13.258-73.9c48.088-8.367,59.729-14.381,117.381,70.962
		c16.877,24.982,35.797,43.515,54.122,57.263V264.693c-43.478-3.535-95.704,2.357-150.351,29.698
		c-72.623,36.336-114.854-21.76-185.675-40.258c33.423-2.489,75.167-12.728,127.899-34.429c0,0,25.818-46.911-50.688-59.82
		C259.96,146.976,191.443,41.544,188.609-0.644H21.577c0,0-48.102,87.456,4.632,175.374S76.446,315.277,76.446,315.277z
		 M243.594,566.466c18.429-14.081,50.988,1.017,68.06,7.82h-83.041C237.992,570.15,243.594,566.466,243.594,566.466z
		 M107.912,161.826c18.139,23.612,35.741,71.921,93.785,87.766c-10.491,1.031-21.586,3.08-33.39,6.379
		c-33.584,9.386-59.348,24.969-78.154,44.589c-6.188-28.688-27.886-129.936-32.387-160.009
		C57.766,140.551,77.528,122.274,107.912,161.826z"/>
	<path display="inline" d="M618.439-33.183c0,0-54.665,84.759,3.975,232.85c58.641,148.089,56.652,305.125,56.652,358.795h21.756
		c-17.789-407.699,43.193-359.168,50.759-358.182c0,0,94,11,168,205c70.464,184.729,159,149,264.383,156.291
		c103.118,7.135,158.959-95.181,103.364-99.518C1123.581,449.28,999.786,287.585,971.581,245.28c0,0,43-48,143-72l-10-16
		c0,0-103.093,35.016-146,70c0,0-84.246-31.519-187-108C722.3,82.6,671.581,20.28,618.439-33.183z"/>
</g>
<g id="Calque_3">
	<g>
		<path d="M106.475,96.381l-20.873,8c0,0-27.602,75.899-50.998,113.494c-62.549,100.506,6.178,200.828,82.121,221.95
			c75.942,21.122,103.621-5.473,130.607-16.876l-7.957,71.988l59.588,88.439l61.059-83.284l-6.01-82.61
			c0,0,60.004,48.603,152.986,7.764c79.606-34.964,101.089-153.928,49.832-234.384c-3.63-5.698-28.496-52.247-34.176-86.396
			l-22.653-7.518c15.333,64.667,58.666,120.667,67.333,168c9.069,49.529-11.333,168.669-147.066,154.934
			C298.696,407.58,301.5,276.28,331.06,233.794C349.014,207.989,347,184.28,347,184.28s-6.666,16.967-11.583,14.733
			s-4.353-55.491-4.353-55.491s42.055-68.408,16.995-84.075s-60.413-22.751-91.236-8.459s5.875,86.343,10.677,94.292
			s-0.566,46.5-4.033,52.5s-10.727-16.428-10.727-16.428S248,193.28,261,218.28c18.674,35.91,37.479,50.797,26.99,111.648
			c-10.49,60.852-78.256,103.888-136.605,95.096C66.152,412.182,5.334,331.613,42,248.947
			C55.572,218.347,83.949,182.163,106.475,96.381z"/>
		<circle cx="450.917" cy="315.549" r="27.749"/>
		<circle cx="161.436" cy="312.381" r="27.748"/>
	</g>
</g>
</svg>
