<?xml version="1.0" encoding="utf-8"?>
<!-- Generator: Adobe Illustrator 17.0.2, SVG Export Plug-In . SVG Version: 6.00 Build 0)  -->
<!DOCTYPE svg PUBLIC "-//W3C//DTD SVG 1.1//EN" "http://www.w3.org/Graphics/SVG/1.1/DTD/svg11.dtd">
<svg version="1.1" id="swimmingpool" xmlns="http://www.w3.org/2000/svg" xmlns:xlink="http://www.w3.org/1999/xlink" x="0px"
	 y="0px" width="595.28px" height="595.28px" viewBox="0 0 595.28 595.28" enable-background="new 0 0 595.28 595.28"
	 xml:space="preserve">
<g>
	<polygon points="333.667,219.167 282.667,270 282.667,300.748 333.667,248.745 	"/>
	<path d="M342.167,416.581c-1,0-2,9.5-10,12.25s-14.333,3.585-27.083,14.085s-16.5,23.335-25.25,25.585
		c-3.5,9.25,0.25,20.665,0,30.165s-1.25,15,2.25,10.75c3.5-4.25,14.5-9.083,25.25-11.833s17.25-15.004,21.25-20.254
		s8.835-6.417,8.335-10.333c-0.5-3.917-4.103-8.978-1.624-17.53c2.588-8.929,8.122-18.635,8.872-25.635
		S343.167,416.581,342.167,416.581z"/>
	<path d="M553.5,0L355.335,197.831l-0.167-28.413c0-25.667-20.5-50.417-54.5-50.417s-49,18-56,39.333c0,0-11.667-8.667-30-8.667
		s-61,23.333-61,63.333s-0.167,93.5-0.167,93.5s7,4.5,13.75,4.5s13.75-6,13.75-6s-1.667-50.333-1.667-75s11.667-49,36.333-49
		c15.667,0,22.667,7,22.667,7s0,43.5,0,52.5s19.084,11.5,19.084,11.5v43l25.249-25c0,0,1.333-36.667-2-56.333
		c-3.333-19.667-14.333-34.333-14.333-34.333c2-19.333,14-35,33.667-35s33.667,15.667,33.667,32.333c0,11,0,42.5,0,42.5
		l21.665-21.331c0.001,0.123,1.167,110.798,1.167,129.787c0,0-0.73,11.939-12.182,11.939c-9.486,0-10.652-5.896-10.652-5.896
		c0-8.667,0-56.253,0-56.253l-51,51.255v53c0,0-3.167,8.916-14.333,8.916c-8.083,0-10.916-6.583-10.916-6.583v-89L0,552v43.28
		h595.28V0H553.5z M361.835,527.743c1,4.333,2.667,15.333-9.333,15.333s-12.667-10.333-11.333-17
		c1.333-6.667,0.333-6.081-2.333-9.748c-2.667-3.667-0.333-18.168-2.667-18.168c-2.333,0-4.16,12.592-24.827,19.505
		c-21.312,7.129-30.173,28.831-30.173,28.831c0,5.667,7.251,10.767,3.085,18.683c-5.645,10.725,2.998,16.487-12.085,20.653
		c-7.39,2.041-11.916-5.333-11.916-11.667c0-6.333,3.583-9.333,3.583-15.667s-5.833-7.333-5.833-17.667
		c0-10.333,3.833-18.333,3.833-28.333s-7.667-19.333-7.667-28.333s6.084-19.667,6.084-29.333c0-9.667-6.084-21-6.084-26.667
		s3-15.667,3-15.667c2.333-0.167,3.5,6.167,10.667,6.167s12-5.667,12.333-4s-2.564,9.277-1.5,14.333
		c1.999,9.501-0.249,15.753,1.5,17.252c1.749,1.499,5.333-15.833,17.667-24.5s14.333-9.085,22.833-15.252
		c8.5-6.167,8.667-13,13-20.333s-0.667-24.585,0.333-25.252s5,4.833,13,4.833s11.167-7.667,12.333-7.667s1.5,1.5,1.5,5.5
		s-5,17.585-6.667,25.585s2.667,20.333,5.167,30.333s-3.5,9.748-3.5,23.081s6.667,20,6.333,27c-0.333,7-5.333,6.415-4.667,15.081
		c0.667,8.667,9,19,9,26C366.501,517.661,360.835,523.409,361.835,527.743z"/>
</g>
</svg>
