<?xml version="1.0" encoding="utf-8"?>
<!-- Generator: Adobe Illustrator 16.0.0, SVG Export Plug-In . SVG Version: 6.00 Build 0)  -->
<!DOCTYPE svg PUBLIC "-//W3C//DTD SVG 1.1//EN" "http://www.w3.org/Graphics/SVG/1.1/DTD/svg11.dtd">
<svg version="1.1" id="Calque_1" xmlns="http://www.w3.org/2000/svg" xmlns:xlink="http://www.w3.org/1999/xlink" x="0px" y="0px"
	 width="595.279px" height="595.281px" viewBox="0 0 595.279 595.281" enable-background="new 0 0 595.279 595.281"
	 xml:space="preserve">
<g id="Calque_1_1_" display="none">
	<g display="inline">
		<path fill="#FFFFFF" d="M123.28,590.361c-10.56,0-21.119,0-31.68,0c-0.087-14.395-0.067-28.787-0.284-43.18
			c-0.391-26.141-0.888-52.277-1.406-78.416c-0.291-14.631-0.527-29.266-1.154-43.883c-0.329-7.651-1.5-15.266-2.203-22.903
			c-1.526-16.592-2.953-33.188-5.566-49.662c-2.018-12.723-3.757-25.491-5.623-38.237c-0.842-5.752-1.344-11.58-2.608-17.237
			c-2.334-10.44-5.154-20.748-7.048-31.318c-2.087-11.647-5.281-23.089-10.459-33.895c-3.257-6.796-6-13.845-8.818-20.843
			c-6.494-16.133-14.069-31.874-17.516-49.111c-1.856-9.277-4.545-18.412-5.954-27.748c-2.047-13.561-3.304-27.241-4.844-40.876
			c-0.875-7.741-1.688-15.49-2.44-23.244c-0.203-2.09-1.512-2.884-3.363-3.393c2.666,1.108,2.366,3.444,2.328,5.525
			c-0.158,8.685-0.463,17.368-0.643,26.052c-0.294,14.259-0.544,28.519-0.793,42.778c-0.272,15.585-0.535,31.17-0.781,46.755
			c-0.298,18.94-0.633,37.88-0.842,56.821c-0.214,19.366-0.232,38.734-0.453,58.101c-0.197,17.315-0.558,34.631-0.834,51.946
			c-0.24,14.931-0.466,29.86-0.693,44.791c-0.288,18.887-0.506,37.772-0.881,56.657c-0.206,10.367-0.669,20.729-1.035,31.09
			c-0.018,0.52-0.211,1.031-0.323,1.549c0-161.279,0-322.56,0-483.84c92.761,0,185.521,0,278.28,0
			c0.315,2.978,0.53,5.97,0.967,8.929c1.096,7.404,2.286,14.793,3.449,22.187c1.154,7.335,2.059,14.724,3.574,21.984
			c1.06,5.077,2.722,10.068,4.542,14.938c4.969,13.299,9.613,26.761,15.435,39.688c5.104,11.337,11.626,22.037,17.521,33.017
			c2.092,3.896,4.21,7.778,6.257,11.698c0.342,0.656,0.782,1.779,0.491,2.155c-1.031,1.331-0.253,2.246,0.389,3.226
			c6.43,9.814,12.892,19.607,19.311,29.428c12.888,19.717,25.767,39.438,38.597,59.191c0.831,1.281,1.531,1.216,2.601,0.515
			c3.448-2.265,6.888-4.546,10.376-6.749c9.479-5.984,18.924-12.021,28.486-17.866c7.787-4.76,15.702-9.312,23.605-13.877
			c2.952-1.705,5.979-3.305,9.07-4.738c2.888-1.337,5.608-3.34,9.083-2.893c1.753,0.226,3.111-0.439,4.28-1.746
			c1.234-1.381,2.781-2.189,4.706-2.312c0.762-0.049,1.596-0.398,2.221-0.854c1.046-0.762,1.991-1.678,2.903-2.604
			c1.006-1.021,1.763-0.766,2.438,0.319c2.124,3.407,4.24,6.817,6.358,10.227c0.758,1.221,0.482,2.015-0.821,2.733
			c-4.559,2.507-9.076,5.09-13.581,7.692c-6.42,3.708-12.881,7.353-19.203,11.221c-6.425,3.932-12.694,8.117-19.053,12.163
			c-1.546,0.983-3.315,1.667-4.718,2.813c-2.305,1.884-4.542,3.756-7.57,4.371c-0.363,0.074-0.626,0.644-0.936,0.983
			c-0.354,0.389-0.641,0.892-1.071,1.15c-3.92,2.349-7.46,5.375-12.008,6.616c-0.81,0.221-1.492,0.96-2.185,1.522
			c-0.537,0.437-0.929,1.073-1.501,1.441c-1.995,1.284-4.081,2.428-6.054,3.744c-1.75,1.168-3.395,2.495-5.219,3.852
			c0.104,0.196,0.315,0.687,0.605,1.124c4.076,6.145,8.16,12.282,12.249,18.417c14.19,21.299,28.379,42.599,42.579,63.892
			c8.879,13.313,17.773,26.618,26.669,39.923c1.063,1.59,2.037,3.271,3.296,4.693c3.129,3.54,6.566,6.816,9.569,10.457
			c3.576,4.333,6.766,8.982,10.233,13.408c5.797,7.398,11.631,14.77,17.555,22.066c2.335,2.877,4.771,5.723,7.491,8.223
			c2.945,2.709,6.237,5.053,9.449,7.463c4.888,3.664,9.554,7.742,14.82,10.756c8.522,4.877,17.458,9.033,26.22,13.492
			c0,35.881,0,71.76,0,107.641c-47.159,0-94.319,0-141.479,0c-0.355-0.395-0.69-0.809-1.071-1.176
			c-4.614-4.465-9.225-8.98-12.52-14.527c-3.815-6.426-7.251-13.074-10.894-19.604c-1.853-3.318-3.034-6.848-3.477-10.607
			c-0.267-2.262-0.33-4.545-0.562-6.812c-1.043-10.186-2.218-20.361-3.137-30.559c-0.629-6.982-0.999-13.992-1.338-20.996
			c-0.821-16.941-1.118-33.91-3.002-50.795c-0.844-7.562-1.252-15.173-1.914-22.757c-0.781-8.952-1.609-17.899-2.449-26.847
			c-0.302-3.219-0.348-6.514-1.107-9.626c-2.861-11.718-5.702-23.451-9.057-35.032c-3.749-12.947-7.198-26.004-13.763-38
			c-5.948-10.87-11.5-21.932-18.914-31.941c-4.808-6.489-8.873-13.534-14.506-19.402c-7.509-7.823-15.047-15.618-22.592-23.407
			c-6.014-6.206-12.49-11.858-19.991-16.217c-5.107-2.968-10.106-6.228-15.492-8.586c-9.311-4.078-19.228-6.395-29.104-8.731
			c-8.525-2.017-17.039-4.083-25.571-6.071c-6.297-1.468-12.345-3.709-19.08-3.531c-10.957,0.291-21.935-0.284-32.905-0.414
			c-4.113-0.048-8.11,0.257-11.888,2.455c-3.906,2.273-8.347,3.655-12.158,6.055c-3.805,2.396-7.604,5.151-10.517,8.519
			c-3.17,3.667-5.342,8.216-6.644,13.011c-0.701,2.587-1.278,5.212-1.817,7.839c-1.297,6.319-2.712,12.62-3.764,18.981
			c-1.639,9.918-3.093,19.869-4.482,29.826c-1.472,10.547-2.871,21.105-4.126,31.68c-1.087,9.154-2.02,18.328-2.854,27.509
			c-0.837,9.19-1.602,18.391-2.158,27.601c-0.656,10.827-1.096,21.67-1.557,32.508c-0.5,11.74-1.179,23.481-1.302,35.229
			c-0.156,15.047,0.196,30.1,0.272,45.148c0.114,22.311,0.104,44.621,0.291,66.932C122.641,555.464,123.01,572.912,123.28,590.361z"
			/>
		<path d="M123.28,590.361c-0.27-17.449-0.639-34.896-0.785-52.348c-0.188-22.311-0.178-44.621-0.291-66.932
			c-0.077-15.049-0.431-30.104-0.273-45.148c0.123-11.746,0.802-23.487,1.302-35.229c0.461-10.838,0.899-21.681,1.557-32.508
			c0.558-9.21,1.321-18.41,2.158-27.601c0.837-9.181,1.768-18.354,2.854-27.509c1.255-10.575,2.654-21.133,4.126-31.68
			c1.39-9.957,2.844-19.908,4.483-29.826c1.051-6.361,2.466-12.662,3.763-18.981c0.54-2.627,1.117-5.252,1.818-7.839
			c1.301-4.795,3.473-9.345,6.643-13.011c2.912-3.368,6.712-6.123,10.517-8.519c3.812-2.4,8.252-3.782,12.158-6.055
			c3.777-2.198,7.774-2.502,11.888-2.455c10.971,0.13,21.948,0.704,32.905,0.414c6.735-0.178,12.783,2.063,19.08,3.531
			c8.532,1.989,17.046,4.055,25.571,6.071c9.877,2.336,19.794,4.654,29.104,8.731c5.386,2.358,10.384,5.619,15.492,8.586
			c7.501,4.359,13.979,10.011,19.991,16.217c7.545,7.789,15.083,15.583,22.592,23.407c5.633,5.868,9.698,12.913,14.506,19.402
			c7.414,10.009,12.966,21.071,18.914,31.941c6.564,11.996,10.014,25.053,13.763,38c3.354,11.581,6.194,23.314,9.057,35.032
			c0.761,3.112,0.807,6.407,1.107,9.626c0.84,8.945,1.668,17.895,2.449,26.847c0.662,7.584,1.07,15.192,1.914,22.757
			c1.884,16.885,2.181,33.854,3.002,50.795c0.339,7.004,0.709,14.014,1.338,20.996c0.919,10.197,2.094,20.373,3.137,30.559
			c0.231,2.268,0.297,4.551,0.562,6.812c0.442,3.76,1.624,7.289,3.477,10.607c3.643,6.527,7.077,13.178,10.894,19.604
			c3.295,5.547,7.905,10.062,12.52,14.527c0.381,0.367,0.716,0.781,1.071,1.176C339.521,590.361,231.4,590.361,123.28,590.361z"/>
		<path d="M589.119,482.72c-8.762-4.459-17.696-8.615-26.22-13.492c-5.268-3.014-9.934-7.092-14.82-10.756
			c-3.212-2.41-6.504-4.754-9.449-7.463c-2.721-2.5-5.156-5.346-7.491-8.223c-5.924-7.297-11.758-14.668-17.555-22.066
			c-3.469-4.426-6.657-9.075-10.233-13.408c-3.003-3.641-6.44-6.917-9.569-10.457c-1.259-1.424-2.231-3.104-3.296-4.693
			c-8.896-13.305-17.79-26.607-26.669-39.922c-14.2-21.294-28.389-42.594-42.579-63.893c-4.089-6.136-8.173-12.274-12.249-18.417
			c-0.29-0.438-0.502-0.928-0.605-1.124c1.824-1.357,3.469-2.684,5.219-3.852c1.973-1.316,4.059-2.46,6.054-3.744
			c0.572-0.368,0.964-1.005,1.501-1.441c0.691-0.562,1.375-1.302,2.185-1.522c4.548-1.242,8.088-4.268,12.008-6.616
			c0.432-0.259,0.718-0.761,1.071-1.15c0.31-0.34,0.571-0.91,0.936-0.983c3.028-0.614,5.267-2.486,7.57-4.371
			c1.401-1.146,3.172-1.83,4.718-2.813c6.356-4.045,12.628-8.23,19.053-12.163c6.322-3.869,12.783-7.513,19.203-11.221
			c4.505-2.602,9.022-5.185,13.581-7.692c1.305-0.718,1.579-1.512,0.821-2.733c-2.118-3.41-4.234-6.82-6.358-10.227
			c-0.675-1.084-1.432-1.339-2.438-0.319c-0.912,0.926-1.857,1.842-2.903,2.604c-0.625,0.456-1.459,0.805-2.221,0.854
			c-1.926,0.124-3.472,0.931-4.706,2.312c-1.169,1.307-2.527,1.972-4.28,1.746c-3.475-0.447-6.195,1.555-9.083,2.893
			c-3.092,1.433-6.118,3.033-9.07,4.738c-7.903,4.565-15.818,9.117-23.605,13.877c-9.562,5.846-19.009,11.882-28.486,17.866
			c-3.488,2.203-6.928,4.483-10.376,6.749c-1.068,0.702-1.77,0.766-2.601-0.515c-12.83-19.753-25.709-39.474-38.597-59.191
			c-6.419-9.821-12.881-19.614-19.311-29.428c-0.643-0.979-1.42-1.895-0.389-3.226c0.29-0.375-0.149-1.499-0.491-2.155
			c-2.047-3.919-4.165-7.802-6.257-11.698c-5.896-10.98-12.417-21.68-17.521-33.017c-5.82-12.927-10.466-26.389-15.435-39.688
			c-1.82-4.87-3.481-9.861-4.542-14.938c-1.516-7.26-2.419-14.649-3.574-21.984c-1.163-7.394-2.354-14.783-3.449-22.187
			c-0.438-2.959-0.651-5.951-0.967-8.929c0.84,0,1.68,0,2.521,0c0.219,0.168,0.412,0.402,0.659,0.493
			c4.662,1.729,9.339,3.417,13.996,5.16c10.229,3.828,20.389,7.809,29.81,13.435c0.911,0.545,1.891,0.98,2.839,1.466
			c-0.181-0.536-0.497-0.813-0.861-0.996c-7.373-3.707-14.619-7.704-22.166-11.014c-7.331-3.216-14.972-5.725-22.477-8.544
			c64.8,0,129.6,0,194.399,0c0.871,0.124,1.741,0.339,2.614,0.357c11.26,0.225,22.52,0.387,33.778,0.637
			c9.4,0.208,18.803,0.467,28.2,0.788c5.565,0.19,11.123,0.613,16.688,0.809c7.824,0.276,15.65,0.438,23.478,0.65
			c0,120.24,0,240.48,0,360.72c-1.073-2.802-2.147-5.604-3.224-8.404c-0.122,0.049-0.244,0.096-0.366,0.146
			c1.196,3.353,2.394,6.706,3.59,10.06C589.119,407.839,589.119,445.281,589.119,482.72z"/>
		<path d="M7.36,488.48c0.112-0.518,0.306-1.029,0.323-1.549c0.366-10.361,0.829-20.723,1.035-31.09
			c0.375-18.885,0.593-37.771,0.881-56.657c0.228-14.931,0.454-29.86,0.693-44.791c0.276-17.315,0.638-34.632,0.834-51.946
			c0.22-19.367,0.239-38.734,0.453-58.101c0.209-18.941,0.544-37.881,0.842-56.821c0.246-15.585,0.508-31.17,0.781-46.755
			c0.25-14.26,0.499-28.519,0.793-42.778c0.18-8.685,0.484-17.367,0.643-26.052c0.038-2.081,0.338-4.417-2.328-5.525
			c1.853,0.508,3.16,1.303,3.363,3.393c0.754,7.754,1.564,15.502,2.439,23.244c1.542,13.635,2.798,27.316,4.845,40.876
			c1.409,9.336,4.098,18.471,5.954,27.748c3.446,17.237,11.021,32.978,17.516,49.111c2.817,6.999,5.561,14.047,8.818,20.843
			c5.178,10.806,8.372,22.248,10.459,33.895c1.895,10.571,4.714,20.878,7.048,31.318c1.265,5.657,1.767,11.485,2.608,17.237
			c1.866,12.746,3.604,25.516,5.623,38.237c2.613,16.474,4.04,33.07,5.566,49.662c0.703,7.64,1.874,15.252,2.203,22.903
			c0.627,14.617,0.863,29.252,1.154,43.883c0.519,26.139,1.016,52.275,1.406,78.416c0.216,14.393,0.197,28.785,0.284,43.18
			c-28.08,0-56.16,0-84.24,0C7.36,556.4,7.36,522.441,7.36,488.48z"/>
		<path fill="#FFFFFF" d="M589.119,7.88c-7.825-0.211-15.652-0.374-23.478-0.65c-5.565-0.196-11.123-0.619-16.688-0.809
			c-9.397-0.321-18.8-0.58-28.2-0.788c-11.26-0.25-22.52-0.412-33.778-0.637c-0.873-0.018-1.743-0.233-2.614-0.357
			c34.92,0,69.84,0,104.76,0C589.119,5.72,589.119,6.8,589.119,7.88z"/>
		<path fill="#FFFFFF" d="M289.96,4.64c7.504,2.819,15.146,5.329,22.477,8.544c7.547,3.311,14.793,7.307,22.166,11.014
			c0.364,0.183,0.682,0.46,0.861,0.996c-0.948-0.486-1.928-0.921-2.84-1.466c-9.42-5.626-19.579-9.607-29.809-13.435
			c-4.657-1.743-9.334-3.432-13.996-5.16c-0.247-0.091-0.44-0.325-0.659-0.493C288.76,4.64,289.36,4.64,289.96,4.64z"/>
		<path fill="#FFFFFF" d="M589.119,370.4c-1.196-3.354-2.394-6.707-3.59-10.061c0.122-0.049,0.244-0.096,0.366-0.145
			c1.075,2.801,2.149,5.604,3.224,8.404C589.119,369.201,589.119,369.8,589.119,370.4z"/>
	</g>
</g>
<g id="Calque_2" display="none">
	<path display="inline" d="M76.446,315.277l2.157-0.992c-44.097,59.725-35.032,147.398,8.55,215.732
		c13.958,21.889,29.471,35.82,45.146,44.27H0v20.994H595.28v-20.994H326.979c5.267-5.936,8.723-19.977,13.606-34.658
		c6.44-19.361,26.201,1.027,31.147-0.951c4.945-1.979,4.269-18.166,4.269-18.166c1.301,10.52,6.611,20.145,10.169,7.611
		c3.557-12.529,24.349-9.971,24.349-9.971c57.578-3.709,13.258-73.9,13.258-73.9c48.088-8.367,59.729-14.381,117.381,70.963
		c16.877,24.982,35.797,43.514,54.122,57.262V264.693c-43.478-3.535-95.704,2.357-150.351,29.698
		c-72.623,36.336-114.854-21.76-185.675-40.258c33.423-2.489,75.167-12.728,127.898-34.429c0,0,25.818-46.911-50.688-59.82
		C259.96,146.976,191.443,41.544,188.609-0.644H21.577c0,0-48.103,87.456,4.632,175.374
		C78.943,262.648,76.446,315.277,76.446,315.277z M243.594,566.466c18.429-14.082,50.988,1.018,68.06,7.82h-83.041
		C237.992,570.15,243.594,566.466,243.594,566.466z M107.912,161.826c18.139,23.612,35.74,71.921,93.784,87.766
		c-10.49,1.031-21.586,3.08-33.39,6.379c-33.584,9.386-59.348,24.969-78.154,44.589c-6.188-28.688-27.886-129.936-32.387-160.009
		C57.766,140.551,77.528,122.274,107.912,161.826z"/>
	<path display="inline" d="M618.439-33.183c0,0-54.665,84.759,3.975,232.85c58.642,148.088,56.652,305.125,56.652,358.795h21.756
		c-17.789-407.699,43.193-359.168,50.759-358.182c0,0,94,11,168,205c70.465,184.729,159,149,264.383,156.291
		c103.118,7.135,158.959-95.182,103.364-99.52C1123.58,449.281,999.785,287.585,971.58,245.28c0,0,43-48,143-72l-10-16
		c0,0-103.093,35.016-146,70c0,0-84.245-31.52-187-108C722.3,82.6,671.58,20.28,618.439-33.183z"/>
</g>
<g id="Calque_3">
	<path d="M75.18,105.409c0,0-115.097,92.113-57.384,224.319C75.509,461.935,71.702,526.226,75.18,594.042h12.172
		c0,0,6.956-229.535,19.128-244.316c12.172-14.78,66.079,37.387,90.423,106.943c24.345,69.555,27.823,149.545,281.704,137.373
		s18.666-109.74-10.434-128.68c-5.514-3.588-116.346,97.529-205.025-90.264c-4.864-10.305,89.439-83.729,89.439-83.729
		c0.583-5.219-7.5-20.499-7.5-20.499s-118.479,77.466-130.216,57.468C199.02,301.333,80.397,187.138,75.18,105.409z"/>
	<path d="M130.341,0c-7.878,54.759-47.156,100.245-47.156,100.245C113.487,81.908,135.642,31.853,147.187,0H130.341z"/>
</g>
<path d="M181.14,62.14c0,0-33.953,67,29,84C210.14,146.14,169.14,124.28,181.14,62.14z"/>
<path d="M347.14,0c0,0-42,57.14-29,153.14c0,0-33.793-56.14,7.207-153.14H347.14z"/>
</svg>
