<?xml version="1.0" encoding="utf-8"?>
<!-- Generator: Adobe Illustrator 16.0.0, SVG Export Plug-In . SVG Version: 6.00 Build 0)  -->
<!DOCTYPE svg PUBLIC "-//W3C//DTD SVG 1.1//EN" "http://www.w3.org/Graphics/SVG/1.1/DTD/svg11.dtd">
<svg version="1.1" id="Calque_1" xmlns="http://www.w3.org/2000/svg" xmlns:xlink="http://www.w3.org/1999/xlink" x="0px" y="0px"
	 width="595.28px" height="595.28px" viewBox="0 0 595.28 595.28" enable-background="new 0 0 595.28 595.28" xml:space="preserve">
<path d="M76.446,315.277l2.157-0.993c-44.097,59.726-35.032,147.399,8.55,215.733c13.958,21.888,29.47,35.821,45.146,44.269H0
	v20.994h595.28v-20.994H326.979c5.266-5.935,8.723-19.976,13.607-34.657c6.441-19.361,26.202,1.026,31.147-0.952
	c4.945-1.979,4.269-18.166,4.269-18.166c1.301,10.52,6.612,20.145,10.168,7.612c3.557-12.53,24.348-9.971,24.348-9.971
	c57.579-3.709,13.259-73.9,13.259-73.9c48.087-8.367,59.729-14.381,117.38,70.962c16.876,24.982,35.797,43.515,54.122,57.263
	V264.693c-43.478-3.535-95.704,2.357-150.35,29.698c-72.624,36.336-114.855-21.76-185.675-40.258
	c33.423-2.489,75.167-12.728,127.899-34.429c0,0,25.818-46.911-50.688-59.82C259.96,146.976,191.443,41.544,188.609-0.644H21.577
	c0,0-48.102,87.456,4.632,175.374S76.446,315.277,76.446,315.277z M243.594,566.466c18.429-14.081,50.988,1.017,68.061,7.82h-83.041
	C237.992,570.15,243.594,566.466,243.594,566.466z M107.912,161.826c18.139,23.612,35.741,71.921,93.785,87.766
	c-10.491,1.031-21.586,3.08-33.39,6.379c-33.584,9.386-59.348,24.969-78.154,44.589c-6.188-28.688-27.886-129.936-32.387-160.009
	C57.766,140.551,77.528,122.274,107.912,161.826z"/>
</svg>
