<?xml version="1.0" encoding="UTF-8" standalone="no"?>
<svg
   xmlns:dc="http://purl.org/dc/elements/1.1/"
   xmlns:cc="http://creativecommons.org/ns#"
   xmlns:rdf="http://www.w3.org/1999/02/22-rdf-syntax-ns#"
   xmlns:svg="http://www.w3.org/2000/svg"
   xmlns="http://www.w3.org/2000/svg"
   version="1.1"
   id="svg2"
   viewBox="0 0 744.09449 744.09448"
   height="210mm"
   width="210mm">
  <defs
     id="defs4" />
  <metadata
     id="metadata7">
    <rdf:RDF>
      <cc:Work
         rdf:about="">
        <dc:format>image/svg+xml</dc:format>
        <dc:type
           rdf:resource="http://purl.org/dc/dcmitype/StillImage" />
        <dc:title></dc:title>
      </cc:Work>
    </rdf:RDF>
  </metadata>
  <g
     transform="translate(0,-308.26772)"
     id="layer1">
    <path
       id="path4263"
       d="m -296.7639,1674.2722 c 2.7388,7.0688 10.57367,52.6291 10.96127,71.9982 0.25259,12.6225 -1.22603,34.6519 -2.13745,54.0714 -0.29851,6.3601 -2.76781,14.954 -2.82382,26.9304 l -21.5,1 c -0.50201,-12.8646 1.70765,-21.7747 2.18856,-27.2609 1.62122,-18.4951 0.99168,-38.9827 0.71541,-51.0873 -0.42875,-18.7858 -4.06217,-58.1899 -11.40397,-74.6518 z"
       style="fill:#ffffff;fill-rule:evenodd;stroke:none;stroke-width:1px;stroke-linecap:butt;stroke-linejoin:miter;stroke-opacity:1" />
    <path
       id="rect4265"
       transform="translate(0,308.26772)"
       d="M 0 0 L 0 519.20117 C 71.233302 484.1811 150.81764 434.5608 183.44531 376.39844 C 248.49914 260.43294 187.68811 176.99562 163.64648 162.85352 C 139.60485 148.71132 101.42098 155.78094 91.521484 176.99414 C 81.621994 198.20734 73.186586 149.65964 100.05664 117.83984 C 122.57474 91.173698 204.39378 47.900557 300.44141 90.402344 C 297.82715 92.199039 294.83133 94.972461 291.25586 98.962891 C 287.95004 102.65239 287.9763 107.88709 289.58984 112.15039 C 293.19516 121.67579 300.4829 129.30114 308.29883 135.58594 C 316.58206 141.96644 326.12882 147.42111 336.66016 148.72461 C 341.35917 149.30141 347.18598 147.49418 349.58203 143.76758 C 356.06218 133.68897 357.35209 127.97163 355.41602 123.83984 C 356.07567 124.35611 356.73438 124.85149 357.39453 125.37695 C 375.39718 139.7065 391.29347 158.5341 404.78516 180.68555 C 402.92251 182.94327 401.76915 185.90386 401.22852 188.71094 C 399.06354 199.95264 401.54321 211.54742 405.31836 222.16992 C 409.48437 233.15952 415.40429 244.00689 424.71484 251.46289 C 428.19702 254.24571 433.04745 256.45392 437.48438 255.35547 C 444.19007 277.51576 449.13763 301.09391 452.15625 325.51367 C 439.09088 326.45558 427.53119 350.36112 429.35547 378.56836 C 430.93508 402.99261 442.03412 422.63471 453.47266 426.98047 C 449.9606 463.56777 442.05679 500.25915 429.27344 535.36523 C 427.84333 534.84446 426.3413 534.33418 424.71094 533.83594 C 423.25856 533.39209 421.75107 533.17476 420.19922 533.17188 C 405.198 533.14398 386.16631 553.1797 375.07422 582.85352 C 365.86855 607.48076 364.93622 631.19774 371.49414 643.85742 C 339.32842 690.27016 306.40712 722.32524 278.39648 744.09375 L 744.09375 744.09375 L 744.09375 435.08203 C 711.58448 426.14137 674.26426 417.69183 638.82227 413.875 C 559.95622 405.3817 491.74414 411.75391 491.74414 411.75391 C 491.74414 411.75391 488.65803 400.36326 488.35156 378.35156 C 536.77013 388.38137 647.15606 388.28451 744.09375 385.76758 L 744.09375 288.75781 C 650.6918 298.14348 535.50526 321.57082 486.84961 344.58984 C 485.25551 333.96004 483 328.59375 483 328.59375 C 483 328.59375 674.94141 280.17969 673.44141 265.17969 C 671.94141 250.17969 461 230.59375 461 230.59375 L 458 224.09375 C 458 224.09375 607.31445 178.27539 605.81445 165.27539 C 604.31445 152.27539 451 191.09375 451 191.09375 L 441 176.59375 C 555.71227 109.32376 600.22546 64.912663 644.93555 0 L 0 0 z M 694.36328 0 C 628.54366 52.684772 520.09382 141.83761 524.95312 153.63086 C 533.01356 160.81969 655.22461 116.19817 744.09375 82.382812 L 744.09375 0 L 694.36328 0 z M 307.46875 92.425781 C 308.83801 92.411856 310.37058 93.214553 311.21289 94.533203 C 316.09538 99.367103 320.73646 104.47398 326.25586 108.61328 C 332.47611 113.54188 339.64377 117.04778 346.16797 121.51758 C 349.10278 122.80568 349.80144 127.09395 346.17773 128.00195 C 341.52132 129.27135 336.86732 126.86979 332.7832 124.87109 C 324.32573 120.16249 316.50202 114.16507 310.0625 106.91797 C 307.4007 103.59467 304.26244 99.74835 304.70703 95.21875 C 304.89357 93.2705 306.09949 92.439706 307.46875 92.425781 z M 744.09375 104.02539 C 683.97743 124.86159 619.74666 149.47208 621.50195 159.07422 C 626.42389 165.79007 685.10212 160.02055 744.09375 152.32227 L 744.09375 104.02539 z M 744.09375 164.79492 C 633.4089 180.59486 527.96289 200.50576 527.96289 219.11914 C 527.96289 238.9377 636.6589 243.39693 744.09375 242.98438 L 744.09375 164.79492 z M 366.24414 175.22656 C 361.33115 175.34746 354.82142 176.94237 345.9707 180.31836 C 339.38188 182.83156 336.00359 189.47322 335.26562 195.91992 C 333.61703 210.32422 337.86577 224.72639 343.6582 237.77539 C 349.97962 251.25019 358.50202 264.37648 370.97852 272.89258 C 376.54855 276.68638 385.10266 278.19832 390.56445 275.04492 C 427.49359 253.72382 405.68852 245.75136 391.81836 216.22266 C 380.98227 193.15344 383.79055 174.79478 366.24414 175.22656 z M 428.47656 178.64453 C 430.50053 178.67727 432.36474 180.9316 432.4043 183.34961 C 434.22736 190.85421 435.65594 198.47806 438.49805 205.69336 C 441.5456 214.07716 446.3403 221.6593 449.94922 229.7832 C 451.99863 232.7461 450.1385 237.26164 446.13477 235.99414 C 440.93006 234.46394 437.89256 229.42206 435.16211 225.10156 C 429.84378 215.60936 425.89257 205.25739 424.00195 194.52539 C 423.41363 189.77569 422.67765 184.24282 425.77344 180.16992 C 426.60286 179.07327 427.55658 178.62965 428.47656 178.64453 z M 368.69922 182.16211 C 371.25812 182.00804 373.82991 184.67507 374.11328 187.72461 C 377.13976 197.02491 379.68145 206.51301 383.9668 215.34961 C 388.62437 225.64201 395.40866 234.75201 400.75 244.66211 C 403.62388 248.20551 401.7112 254.089 396.5332 252.875 C 389.81331 251.4452 385.49184 245.37169 381.62695 240.17969 C 373.99499 228.70689 368.00536 216.01568 364.58203 202.64648 C 363.38063 196.70568 361.9176 189.79151 365.43359 184.34961 C 366.37507 182.88477 367.53608 182.23214 368.69922 182.16211 z M 378.27148 314.89258 C 362.28278 315.67246 346.21423 344.53155 345.57031 379.05664 C 344.90562 414.69544 360.91881 444.90984 377.41016 443.96484 C 433.84199 440.73124 407.97831 429.80544 408.93359 378.58594 C 409.88888 327.36634 432.64105 318.3947 379.81836 314.9043 C 379.30328 314.87026 378.78725 314.86742 378.27148 314.89258 z M 401.93945 324.86523 C 411.64967 325.04633 401.52889 334.67228 400.7793 374.86328 C 400.0297 415.05438 409.68677 430.28852 399.97656 430.10742 C 390.26634 429.92632 379.69233 406.39989 380.23438 377.33789 C 380.7764 348.27599 392.22925 324.68423 401.93945 324.86523 z M 471.09375 331.91016 C 477.66473 331.97378 470.80163 340.71867 472.79883 371.59961 C 474.86045 403.47671 483.51405 414.90424 475.8125 415.40234 C 468.11094 415.90044 458.1841 397.96817 456.69336 374.91797 C 455.20261 351.86787 462.71251 332.42779 470.41406 331.92969 C 470.65474 331.91412 470.88178 331.9081 471.09375 331.91016 z M 336.82812 497.17188 C 318.94691 497.83472 295.97393 520.67896 281.52734 554.82227 C 265.07205 593.71297 266.34272 631.42128 284.36523 639.04688 C 324.40906 655.99005 325.02254 639.58841 348.67188 583.69531 C 372.32117 527.80211 382.51252 511.81304 343.95508 498.21094 C 342.22495 497.60059 340.41582 497.26097 338.54297 497.17773 C 337.97721 497.15259 337.40497 497.15049 336.82812 497.17188 z M 354.2168 516.35938 C 355.35385 516.32677 356.42653 516.51523 357.41992 516.93555 C 368.01615 521.41905 361.80522 536.84092 343.24805 580.69922 C 324.69088 624.55752 319.42241 636.26475 308.82617 631.78125 C 298.22994 627.29785 300.51696 597.95393 313.93555 566.24023 C 326.09614 537.49969 343.22533 516.6743 354.2168 516.35938 z M 434.75977 548.47852 C 435.3645 548.51645 435.94827 548.63728 436.50586 548.8457 C 445.42722 552.18051 440.83419 565.15413 427.03125 602.08008 C 413.22831 639.00604 409.2827 648.87387 400.36133 645.53906 C 391.43997 642.20424 392.29848 617.85525 402.2793 591.1543 C 411.63632 566.12217 425.68878 547.90954 434.75977 548.47852 z M 174.76953 679.93359 C 151.99745 679.95202 122.37566 688.47345 93.042969 705 C 72.562259 716.53922 55.329199 730.24243 42.75 744.09375 L 134.51953 744.09375 C 170.82033 725.97134 201.97702 723.69614 212.24023 733.94141 C 215.41379 737.10942 217.49913 740.49984 218.53125 744.09375 L 232.74219 744.09375 C 230.78653 731.6466 224.03542 716.20157 212.11719 695.55859 C 206.04965 685.04929 192.48115 679.91926 174.76953 679.93359 z "
       style="opacity:1;fill:#000000;fill-opacity:1;stroke:none;stroke-width:31.25;stroke-linecap:round;stroke-linejoin:round;stroke-miterlimit:4;stroke-dasharray:none;stroke-dashoffset:0;stroke-opacity:1" />
  </g>
</svg>
