<?xml version="1.0" encoding="utf-8"?>
<!-- Generator: Adobe Illustrator 16.0.0, SVG Export Plug-In . SVG Version: 6.00 Build 0)  -->
<!DOCTYPE svg PUBLIC "-//W3C//DTD SVG 1.1//EN" "http://www.w3.org/Graphics/SVG/1.1/DTD/svg11.dtd">
<svg version="1.1" id="Calque_1" xmlns="http://www.w3.org/2000/svg" xmlns:xlink="http://www.w3.org/1999/xlink" x="0px" y="0px"
	 width="595.279px" height="595.281px" viewBox="0 0 595.279 595.281" enable-background="new 0 0 595.279 595.281"
	 xml:space="preserve">
<path d="M302.386,303.818c0,0,35.469-10.133,60.498-60.908c0,0-0.291-3.842,49.008,8.955c48.285,12.533,41.963,0.559,59.75,36.768
	c24.725,50.332,26.063,91.617,122.139,142.668v163.98h-31.996c0,0-65.746-70.879-87.338-108.904s-17.879-60.051-40.428-70.553
	c-9.297-4.328-61.793-15.441-76.066-109.615C357.952,306.208,322.761,339.891,302.386,303.818z"/>
<path d="M348.247,326.707c-39.102,14.645-43.487-0.297-59.951,0.008c-16.463,0.305-26.297,47.637,45.729,36.352
	C350.999,362.352,366.609,350.457,348.247,326.707z"/>
<path d="M397.697,413.824c0,0-0.035,33.815-48.449,36.506L290.976,564.52l21.097-5.854l2.719,17.881l11.052-12.996l4.573,14.414
	l10.654-11.928l5.193,15.99l11.797-11.207l7.119,17.604l12.459-18.655l10.713,18.655l9.346-15.403l13.806,17.35l11.065-16.258
	l8.49,12.938l3.027-127.696c0,0,3.098-25.275-10.918-31.332C410.747,422.652,397.697,413.824,397.697,413.824z"/>
<path d="M288.358,384.188c0,0-2.738-11.584,7.782-13.685c10.52-2.098,36.858,5.802,54.858-5.676
	c13.5-1.894,42.962,29.678-2.27,36.853C303.499,408.852,291.217,399.523,288.358,384.188z"/>
<path d="M310.586,425.958c-2.587-26.106,24.844-12.281,34.598-16.135c27.772-10.974,56.291-5.687,32.098,18.91
	C361.531,444.617,312.765,447.978,310.586,425.958z"/>
<path d="M1.5,64.348c0,0,87.047-43.049,193.023,57.978c105.976,101.026,141.585,113.469,152.781,114.249c0,0-2.4,35.9-63.603,60.338
	c-61.202,24.438-59.707,44.576-133.455,110.508c-73.748,65.933-47.662,24.67-108.705,55.301c0,0-10.043-25.231,35.957-55.301
	s59.54-96.688,18.771-104.379c-40.771-7.69-53.12,5.467-56.445,35.39C36.499,368.354,25.5,372.266,1.5,375.309V64.348z"/>
<path d="M74.741,465.902c-0.115-6.691,14.109-8.598,14.166-5.14c0.665,41.157,15.1,93.707,59.562,134.519
	C148.469,595.281,72.389,538.641,74.741,465.902z"/>
</svg>
