<?xml version="1.0" encoding="utf-8"?>
<!-- Generator: Adobe Illustrator 16.0.0, SVG Export Plug-In . SVG Version: 6.00 Build 0)  -->
<!DOCTYPE svg PUBLIC "-//W3C//DTD SVG 1.1//EN" "http://www.w3.org/Graphics/SVG/1.1/DTD/svg11.dtd">
<svg version="1.1" id="Calque_1" xmlns="http://www.w3.org/2000/svg" xmlns:xlink="http://www.w3.org/1999/xlink" x="0px" y="0px"
	 width="595.28px" height="595.28px" viewBox="0 0 595.28 595.28" enable-background="new 0 0 595.28 595.28" xml:space="preserve">
<path d="M440.734,396.639c-3.146,1.532-4.923-8.777-2.242-11.026c10.987-9.221,17.787-45.874,21.681-67.541
	c3.204-17.83,0.584-36.384-2.936-47.802c-1.804-5.851-5.578-19.208-10.356-25.992c-7.517-10.671-22.625-20.484-23.566-46.332
	c-0.127-3.497,13.298-7.511,13.412-4.013c0.829,25.427,14.308,31.929,21.601,42.282c5.275,7.489,9.831,21.957,12.289,29.931
	c1.943,6.303,7.927,28.854,3.336,54.401C469.332,346.258,468.609,383.068,440.734,396.639z"/>
<path d="M399.263,323.451c3.488-0.289,1.963,10.014-1.406,10.964c-15.16,4.274-23.574,17.484-39.1,27.754
	c-2.92,1.93-14.167,1.771-12.658-1.388C354.764,342.636,379.26,325.105,399.263,323.451z"/>
<path d="M288.534,439.26c-19.08,0-37.448-0.981-54.66-8.855c-21.661-9.908-51.217-26.469-59.245-48.021
	c-1.222-3.279,9.117-11.775,10.912-8.771c44.396,74.295,158.81,38.347,180.22,31.194c3.319-1.108,18.037,0.154,12.315,7.636
	c-9.605,12.561-44.511,25.615-85.693,26.764C291.098,439.241,289.812,439.26,288.534,439.26z"/>
<path d="M125.613,225.673c-11.3,2.779,20.138-31.179,25.424-36.948c21.286-23.231,37.42-38.35,44.74-57.375
	c5.229-13.589,14.107-13.547,14.423-9.272c2.625,35.63-26.112,51.3-48.841,76.105C156.135,203.885,133.192,223.809,125.613,225.673z
	"/>
<path d="M460.67,152.048c-132.926-73.327-196.32-58.644-292.28-36.423c-14.587,3.378-29.327,10.926-45.944,10.289
	c-14.06-0.54-6.354-13.302-2.877-13.701c15.477-1.777,31.146-6.864,45.663-10.226c48.281-11.181,89.984-20.839,136.27-18.017
	c50.332,3.066,101.508,20.282,165.931,55.82L460.67,152.048z"/>
<path d="M486.705,63.181c-18.97-14.046-53.649,98.214-14.671,148.55c28.81,37.207,38.209,103.181,30.287,128.776
	c-11.604,37.49-28.201,80.34-77.567,102.84c-63.212,28.811-86.316,11.429-133.882,43.384c32.928,18.525,41.611,20.755,62.295,30.348
	c3.513,1.63,14.966,4.811,17.363,6.305c10.19,6.347,9.477,24.111,7.089,52.614c-0.576,6.889-1.119,13.41-1.336,19.282h218.488
	V95.325C563.076,90.47,505.865,77.368,486.705,63.181z M538.518,194.731c-23.035,0-43.709-19.674-43.709-42.709
	s18.674-43.708,41.709-43.708s42.708,19.673,42.708,42.708S561.553,194.731,538.518,194.731z"/>
<path d="M364.88,546.9c-19.978-22.098-71.38,14.456-97.896-17.936c-2.579-3.15-3.957-6.165-4.347-7.016
	c-3.316-7.234-12.703-8.023-20.376-6.346c-8.953,1.954-18.213,8.111-18.213,15.033c0,16.761-20.648,31.001-32.956,37.997
	c-18.927,10.759-42.445,18.51-62.912,20.734c-31.479,3.417-39.545-10.632-50.706-30.081c-5.715-9.958-50.311-118.75-54.258-174.157
	c-1.574-22.094-3.061-42.963-5.609-59.293c-1.563-10.019-9.928-32.104-18.575-52.866l1.46,322.104h361.485
	c0.193-6.555,0.818-14.022,1.423-21.244C364.188,564.419,370.103,552.678,364.88,546.9z M278.971,546.608l0.741,0.969
	C279.548,547.382,279.292,547.045,278.971,546.608z"/>
<path d="M89.616,552.318c10.975,19.123,14.679,25.566,37.05,23.132c18.662-2.028,40.16-9.127,57.508-18.987
	c19.098-10.856,25.874-20.697,25.874-25.826c0-15.344,15.15-25.64,29.228-28.711c16.332-3.564,30.503,2.004,36.088,14.191
	c2.908,6.345,10.415,7.792,20.595,10.945c12.491,3.871,31.192,5.695,48.944-2.26c-54.905-25.473-178.158-80.349-215.86-153.557
	c-18.127-35.201-27.345-54.505-38.286-82.105c-16.071-40.54-21.502-110.545-92.247-131.432l0.359,79.312
	c15.402,35.557,35.367,105.778,38.312,147.115C40.791,434.808,83.611,541.856,89.616,552.318z M82.489,435.655
	c0,0,6.407-2.501,7.959-1.217c12.428,10.286,25.554,20.619,38.898,49.506c8.977,19.43,16.727,38.904,16.924,47.262
	c0.166,7.023-13.081,17.337-20.016,14.482c-11.244-4.629-19.115-14.303-31.766-43.5c-8.51-19.639-15.696-43.292-15.693-51.651
	C78.798,443.512,79.829,435.655,82.489,435.655z"/>
<path d="M550.452,149.321c-1.013,14.61-22.123,17.144-35.545,6.114c-14.169-11.644-10.599,29.181,23.653,30.023
	c18.334,0.45,32.41-16.46,32.41-34.8S551.72,131.025,550.452,149.321z"/>
<path d="M453.139,0c-4.528,20.109-10.227,42.393-15.466,57.943c-47.418-22.115-89.622-33.762-130.481-36.215
	c-18.745-1.126-36.835-0.354-54.933,1.657c2.435-8.861,4.717-16.606,6.744-23.385h-14.607c-2.178,7.345-4.602,15.723-7.167,25.322
	c-23.482,3.429-47.283,8.64-72.838,14.237C118.767,49.55,67.056,60.875-0.052,66.093l1.086,13.958
	c68.072-5.293,120.285-16.728,166.352-26.817C268.999,30.981,336.128,16.281,470.57,90.443l6.762-12.259
	c-9.186-5.067-18.157-9.764-26.952-14.123C456.343,46.84,462.687,21.921,467.523,0H453.139z"/>
</svg>
