<?xml version="1.0" encoding="utf-8"?>
<!-- Generator: Adobe Illustrator 16.0.0, SVG Export Plug-In . SVG Version: 6.00 Build 0)  -->
<!DOCTYPE svg PUBLIC "-//W3C//DTD SVG 1.1//EN" "http://www.w3.org/Graphics/SVG/1.1/DTD/svg11.dtd">
<svg version="1.1" id="Calque_2" xmlns="http://www.w3.org/2000/svg" xmlns:xlink="http://www.w3.org/1999/xlink" x="0px" y="0px"
	 width="595.28px" height="595.28px" viewBox="0 0 595.28 595.28" enable-background="new 0 0 595.28 595.28" xml:space="preserve">
<path d="M46.622,443.526l60.331,67.769c0,0,14.876,19.836,35.537,4.959s26.638-21.815,37.19-25.968
	c5.124-2.017,14.876-2.384,20.661-7.63s6.199-15.576,12.397-21.774s16.529,1.651,25.62-6.612s5.785-18.182,13.223-23.967
	s19.008,0,28.926-9.091s8.265-21.487,14.876-26.446s24.794,2.479,33.885-4.959s9.917-23.966,16.528-28.925
	s19.835-0.827,26.446-7.438s4.479-21.967,16.876-32.711c6.43-5.573,24.01,0.872,32.273-6.565c8.264-7.438,5.396-24.36,13.66-30.972
	s14.876,1.653,21.968-8.049c7.132-9.757,1.173-21.703,6.958-25.008s27.273,21.487,47.935,7.438s41.787-64.708,46.28-105.785
	c5.785-52.893-28.099-83.061-66.115-82.645c-30.616,0.335-120.661,4.132-114.05,44.628c3.943,24.155-2.688,26.166-2.688,26.166
	c-9.709,8.545-19.994,1.508-28.718,11.025c-9.091,9.917-4.826,21.661-11.438,26.62s-19.141-5.132-25.752,1.479
	s-7.438,20.661-15.703,28.099c-8.265,7.438-21.488,0.827-28.926,7.438s-1.653,14.876-9.917,20.661s-23.141,4.132-29.752,9.091
	s-8.264,24.793-14.049,30.579s-23.967-1.653-32.231,4.958s-1.653,14.752-9.917,23.079c-8.265,8.326-24.793,2.54-33.058,6.673
	s-3.306,21.488-12.397,28.1s-19.834-2.48-29.752,4.958s-9.741,26.484-19.835,37.19c-27.272,28.926,0,0-27.272,28.926
	C40.669,415.129,27.045,421.537,46.622,443.526z"/>
<path d="M199.903,520.906c-0.63,6.259,9.091,14.876,33.058,0c12.502-7.76,9.917-20.661,14.876-22.314s21.487,0.827,32.231-7.438
	c4.724-3.634,7.659-14.479,10.744-18.182c8.265-9.918,18.458-4.154,23.197-10.766s6.555-14.854,13.167-20.64
	s24.793-4.958,34.711-13.223s8.266-16.528,15.703-23.141s23.141-2.479,29.752-11.57s11.916-21.835,18.528-27.62
	s22.14-2.653,28.752-11.744s8.918-20.14,13.876-25.098s22.357-5.002,28.969-12.439s4.957-22.566-3.307-23.266
	s-8.611,7.392-15.223,14.002c-6.611,6.611-21.009-1.96-28.447,7.958s-7.438,19.008-14.876,26.446s-19.661,3.48-28.752,10.918
	s-8.265,18.181-14.876,25.619s-19.355,2.827-27.62,9.438s-9.145,19.051-16.143,25.228s-23.526,1.219-30.965,7.004
	s-9.917,19.007-16.529,25.619c-6.612,6.612-11.571,0.001-19.835,6.612s-5.785,17.354-14.876,24.793s-19.834-2.479-28.925,4.133
	s-9.332,17.333-14.05,24.793C216.771,515.947,200.5,514.977,199.903,520.906z"/>
<path d="M363.977,109.642c0.001,13.224-23.142,9.091-28.926,16.529s-4.958,15.702-15.702,23.967s-18.183-2.479-26.446,4.958
	c-8.264,7.438-6.611,13.223-16.529,20.661s-12.396-1.653-20.661,5.785s-8.264,15.182-18.182,22.62s-20.355-2.133-31.926,8.611
	s-9.397,23.314-16.835,29.099s-24.792,3.306-32.231,9.917s-6.612,14.876-15.703,23.141s-20.661,4.132-24.793,9.091
	s-3.306,17.355-10.744,24.793s-18.182,4.959-22.314,9.091s-7.438,13.223-14.876,20.661c-3.999,3.999-9.431,4.876-11.673-2.745
	c-1.929-6.555-2.124-13.188,6.235-27.486c5.88-10.06,11.224-3.982,23.62-12.908c12.396-8.926,8.264-20.497,18.182-28.761
	s14.05-4.132,25.62-12.396s10.744-19.834,18.182-23.967s21.488-3.306,28.926-9.917s9.891-20.661,15.689-26.446
	s27.286-4.132,33.071-9.917s5.479-15.223,14.57-21.834s22.314,0.826,29.752-8.265s5.265-13.355,11.876-18.314
	s14.491,1.306,23.361-6.132s5.564-14.703,24.573-25.446C340.885,97.931,363.976,100.635,363.977,109.642z"/>
</svg>
