<?xml version="1.0" encoding="utf-8"?>
<!-- Generator: Adobe Illustrator 16.0.0, SVG Export Plug-In . SVG Version: 6.00 Build 0)  -->
<!DOCTYPE svg PUBLIC "-//W3C//DTD SVG 1.1//EN" "http://www.w3.org/Graphics/SVG/1.1/DTD/svg11.dtd">
<svg version="1.1" id="Calque_2" xmlns="http://www.w3.org/2000/svg" xmlns:xlink="http://www.w3.org/1999/xlink" x="0px" y="0px"
	 width="595.28px" height="595.28px" viewBox="0 0 595.28 595.28" enable-background="new 0 0 595.28 595.28" xml:space="preserve">
<g>
	<path d="M595.278,438.5v-76.271c0,0-54.432-112.711-74.773-162.711c-20.341-50-38.535-55.085-58.651-55.085c-65,0-31.781,0-65,0
		c-68,0-146.95,0-198.426,0c-33.22,0,0,0-65,0c-20.116,0-38.312,5.085-58.653,55.085c-20.342,50-74.773,162.711-74.773,162.711
		V438.5c0,0,113.762,55.933,113.762,75.424s-0.849,22.034-22.885,22.034c-22.037,0-90.877,0-90.877,0v59.322h198.426h198.426
		h198.425v-59.322c0,0-68.84,0-90.878,0c-22.036,0-22.884-2.543-22.884-22.034S595.278,438.5,595.278,438.5z M302.985,406.981v0.002
		c-0.113,0-0.232-0.001-0.346-0.001c-0.114,0-0.231,0.001-0.345,0.001v-0.002c-38.537-0.069-129.684-6.006-207.19-18.643
		c-77.966-12.712-34.746-101.695-9.322-150.847S125.858,168,153.917,168c37.979,0,95.954,0,123.376,0c24.587,0,40.693,0,40.693,0
		c27.422,0,85.397,0,123.377,0c28.06,0,42.71,20.339,68.134,69.492s68.645,138.135-9.322,150.847
		C422.67,400.976,341.408,406.912,302.985,406.981z"/>
	<path d="M325.5,252.635c-11.604,3.868,6.877,42.14,19.5,49.293c12.623,7.152,15.29,11.031,16.973,27.02
		c1.683,15.987,2.523,22.721,9.256,20.616c6.733-2.104,7.574-19.774,10.94-19.354c10.939,0.841,5.013,51.753,14.727,51.753
		c0,0,9.677,2.104,9.677-26.087s-0.419-35.764,4.208-44.6c4.628-8.836,6.114-9.603,9.294-24.821
		c3.076-14.729,10.99-22.436,16.46-40.529c2.58-8.534,3.051-16.407-4.959-14.678c-7.153,5.049-14.621,21.842-16.109,22.63
		c-7.153,3.787,7.671-30.685,5.645-38.166c-1.563-5.772-9.489-7.102-14.538,2.575c-5.049,9.677-5.577,22.735-10.626,26.101
		s0.949-50.084-11.674-50.084c-12.622,0-7.993,43.759-11.36,49.229c-3.366,5.469-10.938-36.186-25.245-30.715
		c-10.52,4.628,14.414,50.497,3.787,61.431C345,280.89,336,249.135,325.5,252.635z"/>
</g>
</svg>
