<?xml version="1.0" encoding="UTF-8" standalone="no"?>
<!-- Generator: Adobe Illustrator 17.0.0, SVG Export Plug-In . SVG Version: 6.00 Build 0)  -->

<svg
   xmlns:dc="http://purl.org/dc/elements/1.1/"
   xmlns:cc="http://creativecommons.org/ns#"
   xmlns:rdf="http://www.w3.org/1999/02/22-rdf-syntax-ns#"
   xmlns:svg="http://www.w3.org/2000/svg"
   xmlns="http://www.w3.org/2000/svg"
   xmlns:sodipodi="http://sodipodi.sourceforge.net/DTD/sodipodi-0.dtd"
   xmlns:inkscape="http://www.inkscape.org/namespaces/inkscape"
   version="1.1"
   id="Calque_1"
   x="0px"
   y="0px"
   width="595.28px"
   height="595.28px"
   viewBox="0 0 595.28 595.28"
   enable-background="new 0 0 595.28 595.28"
   xml:space="preserve"
   inkscape:version="0.91 r13725"
   sodipodi:docname="voyeur.svg"><metadata
     id="metadata13"><rdf:RDF><cc:Work
         rdf:about=""><dc:format>image/svg+xml</dc:format><dc:type
           rdf:resource="http://purl.org/dc/dcmitype/StillImage" /></cc:Work></rdf:RDF></metadata><defs
     id="defs11" /><sodipodi:namedview
     pagecolor="#ffffff"
     bordercolor="#666666"
     borderopacity="1"
     objecttolerance="10"
     gridtolerance="10"
     guidetolerance="10"
     inkscape:pageopacity="0"
     inkscape:pageshadow="2"
     inkscape:window-width="1600"
     inkscape:window-height="871"
     id="namedview9"
     showgrid="false"
     inkscape:zoom="1.5858083"
     inkscape:cx="245.18816"
     inkscape:cy="253.72649"
     inkscape:window-x="0"
     inkscape:window-y="0"
     inkscape:window-maximized="1"
     inkscape:current-layer="Calque_1" /><path
     fill="none"
     stroke="#000000"
     stroke-width="10"
     stroke-linecap="round"
     stroke-linejoin="round"
     stroke-miterlimit="10"
     d="  M163.973,121.997"
     id="path3" /><path
     fill="none"
     stroke="#000000"
     stroke-width="10"
     stroke-linecap="round"
     stroke-linejoin="round"
     stroke-miterlimit="10"
     d="  M290.699,361.027"
     id="path5" /><path
     d="m 1,0 0,595.28 595.28,0 0,-595.28 z M 154.966,467.213 C 107.864,430.254 77.601,372.809 77.601,308.294 c 0,-72.663 38.395,-136.35 95.996,-171.907 3.298,32.483 10.335,107.109 8.924,118.688 -1.765,14.485 -21.333,74.95 -26.39,89.163 -4.642,13.051 -8.152,74.581 -1.165,122.975 z m 257.358,-6.899 c -31.693,27.716 -72.125,45.681 -116.625,49.217 l 0,-144.567 33.107,-36.294 -3.645,-3.645 -34.431,31.005 c -0.011,0 -0.02,-0.003 -0.031,-0.003 l -0.003,0 -34.11,-31.114 -3.645,3.645 32.758,36.377 0,145.141 c -2.064,0.062 -4.132,0.104 -6.211,0.104 -41.877,0 -80.774,-12.752 -113.025,-34.582 -8.963,-48.238 -5.14,-116.117 -0.909,-128.009 4.747,-13.344 32.921,-75.108 34.895,-91.305 1.905,-15.638 -16.837,-120.31 -17.296,-124.758 -0.022,-0.215 -0.08,-0.417 -0.128,-0.622 28.661,-15.619 61.525,-24.497 96.463,-24.497 43.395,0 83.59,13.695 116.505,36.995 -2.97,27.905 -17.581,92.938 -16.022,104.89 1.979,15.178 30.176,72.924 34.927,85.396 4.455,11.69 8.442,81.572 -2.574,126.626 z m 12.636,-12.048 c 7.632,-45.72 4.045,-105.64 -0.716,-118.139 -5.051,-13.258 -24.598,-69.643 -26.356,-83.129 -1.214,-9.307 3.892,-62.73 7.424,-96.579 46.353,36.992 76.062,93.96 76.062,157.875 0,54.35 -21.483,103.678 -56.414,139.972 z"
     id="path7"
     inkscape:connector-curvature="0"
     style="fill:#1d1d1b"
     sodipodi:nodetypes="ccccccscsccccccccscccccscccccsccccccccsc" /></svg>