<?xml version="1.0" encoding="utf-8"?>
<!-- Generator: Adobe Illustrator 17.0.0, SVG Export Plug-In . SVG Version: 6.00 Build 0)  -->
<!DOCTYPE svg PUBLIC "-//W3C//DTD SVG 1.1//EN" "http://www.w3.org/Graphics/SVG/1.1/DTD/svg11.dtd">
<svg version="1.1" id="Calque_1" xmlns="http://www.w3.org/2000/svg" xmlns:xlink="http://www.w3.org/1999/xlink" x="0px" y="0px"
	 width="595.28px" height="595.28px" viewBox="0 0 595.28 595.28" enable-background="new 0 0 595.28 595.28" xml:space="preserve">
<path d="M298.026,48.788c-70.522-0.214-195.894,83.05-183.581,206.222c7.149,71.517,33.712,129.498,74.575,165.559
	c12.692,11.339,29.024,13.685,40.284,13.685c2.34,0,4.455-0.101,6.278-0.242c56.445-7.473,101.55-21.853,129.275-41.865
	c58.932-42.537,62.467-113.44,63.798-140.133l0.118-2.345c2.562-49.167-19.354-82.165-38.732-105.419
	c-8.528-10.233-22.109-24.959-41.513-34.647c-20.696-10.333-43.644-13.061-70.156-8.338
	c-64.501,11.491-100.919,50.499-111.337,119.252c-13.715,90.521,39.085,133.763,62.423,148.152
	c18.105,11.163,40.958,14.678,64.346,9.901c21.105-4.312,39.671-14.859,49.662-28.214c19.211-25.679,21.083-37.336,24.812-60.56
	c0.375-2.335,0.766-4.767,1.19-7.318c4.304-25.818,2.223-69.049-17.803-105.914c-7.647-14.078-21.306-23.902-38.459-27.664
	c-20.63-4.523-43.23,0.46-60.46,13.328c-34.196,25.539-47.697,78.704-38.854,112.336c3.992,15.182,13.392,28.468,26.468,37.412
	c11.654,7.971,25.461,11.782,36.927,10.188c23.961-3.326,35.988-4.996,48.273-42.933c10.555-32.588,2.392-41.821-9.964-55.797
	c-1.24-1.402-2.493-2.82-3.741-4.276c-5.246-6.12-16.237-11.174-27.097-8.994c-11.005,2.209-19.45,11.515-24.42,26.909
	c-2.954,9.148-2.732,15.942,0.66,20.193c6.311,7.909,23.042,8.329,28.405,7.854c5.23-0.465,9.84,3.397,10.303,8.623
	c0.464,5.226-3.396,9.839-8.623,10.303c-3.157,0.279-31.236,2.24-44.936-14.929c-7.616-9.544-8.925-22.29-3.89-37.882
	c4.116-12.746,14.625-34.853,38.761-39.699c18.968-3.809,36.401,4.918,45.263,15.257c1.185,1.382,2.374,2.727,3.55,4.057
	c13.618,15.404,27.7,31.333,13.806,74.236c-14.881,45.949-34.006,51.771-63.736,55.899c-16.265,2.258-34.585-2.599-50.267-13.325
	c-16.846-11.522-28.962-28.663-34.116-48.262c-10.375-39.451,4.209-101.286,45.859-132.392
	c21.585-16.121,49.957-22.354,75.898-16.663c22.623,4.96,40.766,18.155,51.085,37.153c22.329,41.104,24.648,89.313,19.85,118.106
	c-0.419,2.513-0.804,4.907-1.173,7.207c-3.82,23.788-6.344,39.502-28.359,68.929c-12.702,16.979-35.533,30.229-61.072,35.447
	c-28.14,5.75-55.885,1.365-78.12-12.344c-25.185-15.528-45.179-37.589-57.821-63.797c-14.683-30.436-19.197-65.217-13.415-103.375
	C159.877,140.935,202.535,95.477,275.04,82.56c30.254-5.391,57.833-2.01,81.975,10.044c22.596,11.282,38,27.937,47.621,39.482
	c21.598,25.917,46.017,62.815,43.111,118.571l-0.116,2.303c-0.704,14.115-2.015,40.39-11.329,69.366
	c-11.577,36.016-31.874,64.69-60.325,85.227c-25.988,18.758-63.538,32.593-111.819,41.247c-7.06,1.581-12.428,6.226-2.362,8.669
	c5.696,1.219,11.518,2.156,17.467,2.784l-0.007,0c0,0,0.006,0,0.007,0c0.53,0.056,1.066,0.098,1.599,0.15
	c3.563,0.703,11.779,4.567,11.195,25.307c-0.744,26.426,0.03,64.389,0.03,64.389s2.711,40.333,1.966,45.172
	c2.347,0.017,3.052,0,3.052,0h25.929c0,0-0.829-46.289-0.085-68.248c0.744-21.959-1.489-49.874,0-51.734s5.534-15.854,15.528-18.345
	l-0.035,0.002c81.229-17.753,140.269-89.981,143.165-201.937C484.966,125.199,368.548,49.002,298.026,48.788z"/>
</svg>
